<svg width="701" height="966" viewBox="0 0 701 966" fill="none" xmlns="http://www.w3.org/2000/svg">
<path d="M281.101 189.821C281.208 194.086 281.094 198.374 280.812 202.687C280.365 208.781 279.207 214.832 277.361 220.723C275.732 226.095 273.604 231.33 271.005 236.362C265.182 234.772 259.24 233.568 253.22 232.759C248.41 232.129 243.586 231.725 238.748 231.546C239.867 229.697 240.986 227.848 242.074 225.989C245.141 220.831 247.361 215.265 248.651 209.498C249.995 203.691 250.434 197.752 249.954 191.881L281.101 189.821ZM170.065 200.283C170.155 202.68 170.154 204.922 170.188 207.246C170.305 213.037 169.682 218.846 168.336 224.541L135.788 224.016C136.304 222.55 136.839 221.125 137.299 219.586C138.183 216.948 138.785 214.238 139.095 211.5C139.419 208.763 139.504 206.012 139.348 203.278L170.065 200.283ZM884.723 295.131L860.152 295.83C861.571 292.374 862.638 288.802 863.341 285.168C864.414 279.481 864.454 273.692 863.458 268.064C862.463 262.391 860.42 256.972 857.426 252.063C854.441 247.088 849.953 243.143 844.538 240.737C839.181 238.286 833.244 237.146 827.232 237.413C829.341 236.101 831.533 234.924 833.794 233.89C839.418 231.285 845.33 229.355 851.395 228.145C857.555 226.914 863.821 226.401 870.054 226.619C875.419 229 880.196 232.415 884.103 236.664C887.968 240.951 890.569 246.183 891.646 251.839C892.679 257.243 892.848 262.796 892.149 268.309C891.451 273.944 890.236 279.524 888.519 284.985C887.433 288.422 886.166 291.808 884.723 295.131V295.131ZM713.047 234.987C711.242 240.511 709.628 246.082 708.205 251.701C706.676 257.625 705.329 263.616 704.095 269.632C703.043 274.846 702.109 280.058 701.294 285.267C700.35 291.262 699.944 297.307 700.082 303.332C700.254 309.256 700.838 315.148 701.832 320.968C702.772 326.446 704.062 331.851 705.693 337.153C707.343 342.499 709.349 347.725 711.7 352.799C707.817 348.276 703.048 344.544 697.65 341.805C692.392 339.119 686.597 337.488 680.602 337.006C678.143 336.799 675.668 336.748 673.191 336.853C671.778 332.87 670.667 328.783 669.867 324.625C668.879 319.589 668.371 314.459 668.35 309.3C668.362 303.289 668.818 297.271 669.713 291.291L672.234 274.949C673.084 269.465 674.025 264.015 675.018 258.567C676.012 253.118 677.133 247.906 678.38 242.689C679.627 237.472 681.182 232.316 682.828 227.193C684.474 222.071 686.407 217.02 688.531 212.056C687.313 215.751 686.78 219.604 686.957 223.432C687.088 228.377 689.088 233.039 692.581 236.54C694.101 238.064 695.916 239.287 697.929 240.144C700.67 238.727 703.276 237.068 705.714 235.19C710.488 231.513 714.641 227.131 718.01 222.217C716.1 226.384 714.443 230.649 713.047 234.987V234.987ZM782.855 318.019C787.41 321.757 791.438 326.054 794.841 330.809C798.095 335.305 800.865 340.12 803.112 345.182C805.344 350.288 807.063 355.604 808.246 361.06C809.421 366.617 810.035 372.291 810.08 378.001C810.13 383.595 809.59 389.2 808.468 394.729C807.324 400.33 805.636 405.833 803.428 411.163C798.872 415.486 793.691 419.142 788.061 422.007C782.559 424.809 776.653 426.741 770.576 427.726C768.175 428.123 765.754 428.357 763.331 428.427C766.501 423.069 769.267 417.507 771.607 411.785C773.957 406.054 775.785 400.15 777.072 394.145C778.234 388.725 778.743 383.215 778.587 377.727C778.434 372.085 777.455 366.521 775.68 361.201C774.316 357.175 772.566 353.292 770.453 349.602C770.411 348.914 770.39 348.217 770.327 347.538C769.83 341.543 769.782 335.507 770.183 329.475C770.567 323.377 771.435 317.3 772.779 311.298C776.333 313.251 779.687 315.517 782.799 318.068L782.855 318.019ZM651.442 341.47L653.472 345.804C649.113 349.436 645.147 353.489 641.639 357.896C637.778 362.718 634.376 367.861 631.478 373.258L629.363 377.121C629.023 374.361 628.515 371.628 627.841 368.937C626.41 363.385 624.878 357.877 623.245 352.412C621.743 347.289 620.331 342.078 619.058 336.831C617.866 331.941 616.412 327.122 614.701 322.395C612.901 317.314 610.685 312.392 608.072 307.676C605.423 303.018 602.432 298.558 599.119 294.329L593.92 280.842C599.696 282.482 605.205 284.837 610.312 287.85C615.422 290.923 620.069 294.644 624.138 298.917C627.942 302.918 631.415 307.205 634.526 311.74C637.887 316.546 641.01 321.455 643.914 326.507C646.818 331.559 649.239 336.382 651.637 341.507L651.442 341.47ZM582.545 266.156C579.283 270.802 575.548 275.129 571.4 279.07C567.297 282.956 562.794 286.424 557.967 289.417C553.087 292.437 547.962 295.056 542.649 297.243C536.754 299.645 530.66 301.517 524.445 302.836C518.883 304.034 513.243 304.789 507.586 305.092L509.086 274.161L511.036 273.463C516.839 271.369 522.48 268.845 527.907 265.914C533.305 263.013 538.513 259.782 543.5 256.24C548.356 252.797 553.058 249.178 557.659 245.383C562.26 241.588 566.673 237.655 570.951 233.586C575.322 229.43 579.311 224.914 582.869 220.094C586.308 215.459 589.16 210.452 591.359 205.187C593.581 199.884 595.171 194.373 596.096 188.763L599.014 193.906C601.713 199.154 603.838 204.675 605.355 210.382V210.382L605.098 212.272C602.156 217.305 599.73 222.591 597.855 228.051C595.968 233.52 594.628 239.135 593.854 244.815C593.745 245.569 593.667 246.334 593.549 247.067L592.024 250.163C589.27 255.683 586.103 261.012 582.549 266.106L582.545 266.156ZM496.505 203.673C494.542 208.891 492.195 213.979 489.482 218.895C486.775 223.877 483.728 228.688 480.362 233.294C474.382 231.527 468.098 230.763 461.778 231.036C456.143 231.248 450.54 232.239 445.139 233.977C447.294 231.095 449.489 228.245 451.698 225.485C455.116 221.183 458.253 216.684 461.091 212.015C464.229 206.84 466.515 201.246 467.862 195.44C469.107 190.126 469.565 184.694 469.22 179.31C474.098 180.337 479.076 180.938 484.097 181.103C489.773 181.347 495.481 181.022 501.13 180.134C501.202 182.274 501.096 184.421 500.814 186.556C500.061 192.374 498.612 198.112 496.496 203.652L496.505 203.673ZM996.557 286.687L996.716 287.056C993.849 291.546 990.784 295.853 987.52 299.979C983.705 304.856 979.595 309.516 975.213 313.931C971.353 317.934 967.187 321.652 962.754 325.051C957.867 328.815 952.549 332.01 946.913 334.565C941.223 337.159 935.274 339.138 929.176 340.467C930.188 334.425 929.698 328.289 927.748 322.57C926.854 319.807 925.617 317.169 924.064 314.713L927.055 314.173C933.272 313.098 939.3 311.048 944.899 308.104C950.537 305.143 955.671 301.332 960.101 296.819C964.299 292.534 968.046 287.859 971.283 282.867C974.369 277.999 977.013 272.892 979.185 267.606C981.335 262.233 983.01 256.707 984.189 251.09L990.359 263.035L996.557 286.687ZM981.773 375.358C980.638 377.658 979.623 380.008 978.731 382.4C976.649 388.003 975.795 393.926 976.226 399.782C976.619 405.587 978.306 411.197 981.172 416.229L957.713 431.258C956.474 431.941 955.273 432.656 954.051 433.38C949.378 436.081 944.564 438.539 939.633 440.743C934.237 443.153 928.641 445.087 922.916 446.52C917.15 447.927 911.283 448.837 905.386 449.238L912.915 446.295L905.386 449.238L898.414 451.989C892.344 453.793 885.986 454.301 879.788 453.476C874.272 452.793 869.065 450.796 864.63 447.663C859.672 444.257 855.467 439.942 852.242 434.951C849.008 429.98 847.006 424.326 846.385 418.411C846.085 415.544 846.107 412.643 846.452 409.758C850.021 411.185 853.63 412.546 857.278 413.841C862.762 415.738 868.418 417.176 874.187 418.14C879.922 419.097 885.753 419.548 891.609 419.488C897.476 419.468 903.347 418.947 909.156 417.933C914.775 416.958 920.31 415.499 925.694 413.574C931.102 411.643 936.332 409.24 941.318 406.395C946.319 403.57 951.154 400.468 955.797 397.105C960.389 393.801 964.852 390.318 969.186 386.654C973.52 382.991 977.714 379.202 981.768 375.287L981.773 375.358ZM1076.19 421.496L1076.64 421.108C1081.5 423.362 1086.08 426.136 1090.28 429.381C1094.75 432.833 1098.72 436.845 1102.1 441.316C1105.62 445.835 1108.54 450.768 1110.81 456.008C1113.08 461.212 1114.84 466.627 1116.05 472.182C1117.32 477.641 1118.03 483.228 1118.16 488.861C1118.28 494.526 1117.94 500.208 1117.12 505.851C1116.31 511.305 1115.19 516.72 1113.75 522.072C1112.3 527.432 1110.56 532.724 1108.54 537.924C1106.45 543.13 1103.98 548.196 1101.15 553.083C1098.34 557.896 1095.12 562.491 1091.54 566.818C1087.93 571.187 1083.98 575.284 1079.73 579.072L1068.83 566.251L1065.17 561.061L1070.99 553.451C1073.5 550.106 1075.74 546.586 1077.69 542.924C1080.55 537.447 1082.74 531.683 1084.2 525.755C1085.54 520.286 1086.28 514.716 1086.4 509.139C1086.52 503.594 1086.09 498.069 1085.12 492.641C1084.13 487.23 1082.62 481.938 1080.6 476.836C1078.52 471.57 1075.89 466.539 1072.75 461.821C1069.44 456.829 1065.44 452.309 1060.86 448.379C1056.2 444.413 1051.02 441.039 1045.46 438.336L1045.61 438.271L1046.25 437.991C1051.4 436.264 1056.39 434.103 1061.17 431.534C1066.53 428.653 1071.58 425.219 1076.21 421.294L1076.19 421.496ZM988.345 425.231C991.287 428.227 994.595 430.867 998.2 433.096C1003.34 436.249 1009.05 438.461 1015.08 439.626L1014.77 441.514L1014.65 444.661C1014.33 450.613 1013.27 456.533 1011.51 462.293C1009.78 467.969 1007.29 473.424 1004.1 478.511C1000.86 483.713 996.976 488.527 992.542 492.845C989.337 488.218 985.813 483.811 981.994 479.652C978.933 476.347 975.674 473.219 972.231 470.285C974.372 466.987 976.313 463.576 978.044 460.07C980.626 454.866 982.78 449.485 984.487 443.979L988.345 425.231ZM1201.86 397.194C1202.73 398.013 1203.57 398.891 1204.35 399.697C1208.46 403.81 1212.01 408.421 1214.9 413.424C1217.92 418.6 1220.22 424.158 1221.73 429.958C1223.11 435.118 1223.8 440.45 1223.79 445.827C1223.82 451.329 1223.21 456.84 1221.97 462.255C1221.73 462.822 1221.49 463.389 1221.22 463.945C1218.83 469.429 1217.42 475.232 1217.03 481.106C1216.62 486.955 1216.93 492.805 1217.97 498.53C1218.99 504.276 1220.24 509.973 1221.71 515.621C1223.16 521.206 1223.46 527.046 1222.61 532.822C1221.77 538.656 1219.82 544.327 1216.85 549.543C1213.98 554.638 1210.78 559.558 1207.26 564.269C1203.82 568.86 1200.23 573.381 1196.47 577.832C1192.72 582.283 1188.88 586.664 1184.97 590.975L1178.62 594.476L1172.21 597.398L1137.31 603.374L1137.03 603.374C1141.39 600.042 1145.66 596.569 1149.84 592.954C1154.37 588.995 1158.73 584.868 1162.95 580.555C1167.17 576.242 1171.59 571.43 1175.68 566.638C1179.72 561.947 1183.49 557.058 1187 551.993C1190.57 546.917 1192.78 541.09 1193.41 535.063C1194.02 529.672 1193.49 524.257 1191.84 519.151C1190.11 513.763 1188.11 508.447 1185.86 503.203C1183.45 497.686 1183.19 491.449 1185.13 485.614C1186.84 480.194 1188.31 474.685 1189.54 469.087C1190.76 463.55 1191.55 457.947 1191.9 452.325C1192.16 448.123 1192.24 443.944 1192.09 439.748C1193.25 435.947 1194.06 432.065 1194.51 428.149C1195.19 422.143 1194.67 416.108 1192.96 410.379C1191.32 404.896 1188.79 399.727 1185.46 395.064L1187.57 395.149C1192.47 395.389 1197.3 396.154 1201.99 397.431L1201.86 397.194ZM1065.29 561.206L1068.94 566.396C1063.76 569.078 1058.37 571.339 1052.83 573.154L1048.74 574.462L1048.59 574.528L1051.28 572.705C1056.29 569.291 1060.98 565.457 1065.3 561.247L1065.29 561.206ZM1048.41 574.582L1048.56 574.516L1048.41 574.582ZM375.263 179.039C377.723 184.044 379.513 189.35 380.592 194.833C381.61 200.251 382.047 205.776 381.896 211.321C381.717 217.304 380.813 223.272 379.205 229.101C377.554 235.02 375.333 240.794 372.572 246.347C370.073 251.408 367.193 256.294 363.957 260.967C360.667 265.656 357.057 270.134 353.151 274.367C346.899 274.335 340.738 273.261 334.938 271.193C329.765 269.367 324.937 266.784 320.617 263.531L325.147 259.572C329.216 255.992 332.924 252.045 336.217 247.787C340.015 242.905 343.218 237.625 345.759 232.059C348.133 226.916 349.778 221.507 350.647 215.984C351.566 210.242 351.071 204.42 349.203 198.996C347.376 193.383 344.288 188.268 340.155 184.008L344.892 177.572L347.99 173.795C351.693 169.023 356.06 164.762 360.961 161.138C362.243 162.207 363.529 163.404 364.819 164.73C369.023 168.956 372.542 173.777 375.263 179.039V179.039ZM335.035 180.695L335.272 180.592L344.874 177.531L340.155 184.008L335.035 180.695Z" fill="#88CFDA"/>
<path d="M55.0614 211.513L55.2122 211.447L139.222 203.283C139.378 206.018 139.293 208.768 138.969 211.505C138.653 214.243 138.051 216.952 137.173 219.592C136.687 221.069 136.143 222.474 135.662 224.022L54.7993 222.492L44.9353 222.524L44.385 222.494C41.162 222.379 37.8795 222.363 34.5805 222.427C31.2815 222.491 28.1334 222.49 25.0803 222.472C22.0273 222.454 19.1606 222.453 16.3675 222.444C13.5875 222.412 10.8019 222.553 8.0276 222.864C5.94644 223.22 3.82544 222.946 1.95672 222.082C1.66292 221.928 1.4266 221.691 1.27814 221.401C0.9869 220.782 0.921933 220.079 1.09355 219.405C1.26517 218.73 1.66351 218.122 2.22511 217.678C2.54915 217.372 2.94172 217.144 3.36973 217.012C6.51047 215.987 9.77019 215.396 13.0505 215.256C16.2316 215.097 19.4773 214.91 22.6823 214.569C25.8874 214.229 29.1584 213.982 32.3635 213.642L37.7656 213.057L38.0991 213.059L55.0614 211.513ZM884.594 295.187L884.755 295.264L884.594 295.187ZM863.299 268.109C864.294 273.737 864.254 279.526 863.181 285.213C862.486 288.848 861.418 292.421 859.992 295.875C853.864 296.419 847.846 298.01 842.22 300.574C837.604 302.673 833.33 305.444 829.552 308.788C831.8 316.786 833.17 325.019 833.637 333.354C834.128 340.853 833.85 348.407 832.808 355.906C832.249 359.918 831.473 363.905 830.482 367.852C829.493 371.837 828.195 375.754 826.599 379.57C824.931 383.492 822.913 387.276 820.569 390.879C816.387 397.363 811.435 403.367 805.819 408.764L803.457 411.053C805.665 405.723 807.353 400.22 808.497 394.619C809.619 389.09 810.159 383.485 810.109 377.891C810.072 372.178 809.465 366.502 808.297 360.94C807.113 355.485 805.394 350.169 803.162 345.063C800.916 340.001 798.145 335.186 794.891 330.689C791.488 325.935 787.461 321.638 782.905 317.9C779.793 315.349 776.44 313.083 772.885 311.13C773.363 307.814 774.077 304.525 775.022 301.288C776.808 295.373 779.341 289.669 782.563 284.307L788.807 274.734C792.18 269.471 796.019 264.491 800.277 259.852C804.209 255.534 808.436 251.473 812.928 247.699C817.456 243.937 822.248 240.486 827.267 237.374C833.278 237.107 839.215 238.247 844.572 240.698C849.987 243.104 854.475 247.049 857.46 252.024C860.454 256.933 862.497 262.352 863.493 268.025L863.299 268.109ZM628.186 368.788C628.859 371.479 629.368 374.212 629.708 376.972C626.23 382.318 621.74 387 616.485 390.761C611.874 394.152 606.621 396.609 601.057 397.977C594.979 399.446 588.747 400.078 582.548 399.852C576.381 399.664 570.269 398.892 564.301 397.545C558.364 396.223 552.591 394.349 547.062 391.952C541.666 389.573 536.668 386.465 532.213 382.716C527.602 378.907 523.728 374.339 520.76 369.209C517.728 364.048 515.343 358.539 513.654 352.796C512.103 347.442 510.817 342.047 509.794 336.611C508.799 331.165 508.124 325.658 507.77 320.117C507.437 315.125 507.376 310.11 507.586 305.093C513.206 304.799 518.809 304.06 524.337 302.882C530.552 301.564 536.646 299.692 542.542 297.29C547.859 295.113 552.985 292.494 557.86 289.464C562.686 286.471 567.189 283.002 571.293 279.116C575.433 275.169 579.167 270.843 582.437 266.203C585.991 261.109 589.158 255.78 591.912 250.26L593.438 247.164C592.224 253.095 591.681 259.114 591.818 265.113C591.936 270.431 592.616 275.704 593.846 280.85L599.046 294.336C602.358 298.565 605.35 303.025 607.998 307.684C610.611 312.4 612.828 317.321 614.627 322.403C616.338 327.13 617.792 331.948 618.984 336.839C620.279 342.076 621.691 347.287 623.171 352.42C624.796 357.904 626.328 363.413 627.767 368.945L628.186 368.788ZM605.418 211.475L604.965 212.378L605.221 210.489L605.418 211.475ZM992.252 269.476C994.053 275.111 995.446 280.873 996.418 286.722L990.212 263.05C990.906 265.186 991.579 267.331 992.252 269.476V269.476ZM1116.84 387.184C1122.43 384.458 1128.37 382.51 1134.48 381.399C1140.57 380.269 1146.77 379.947 1152.9 380.44C1158.82 380.905 1164.58 382.34 1169.93 384.684C1175.03 386.879 1179.68 389.895 1183.7 393.608L1185.23 395.137C1188.56 399.8 1191.1 404.969 1192.73 410.452C1194.44 416.181 1194.97 422.216 1194.29 428.222C1193.84 432.138 1193.02 436.02 1191.86 439.821C1192.02 444.017 1191.93 448.196 1191.68 452.398C1191.32 458.019 1190.53 463.622 1189.31 469.16C1188.09 474.724 1186.62 480.233 1184.9 485.686C1182.97 491.522 1183.23 497.759 1185.63 503.275C1187.9 508.514 1189.9 513.83 1191.62 519.224C1193.25 524.332 1193.78 529.745 1193.19 535.136C1192.55 541.163 1190.35 546.99 1186.77 552.066C1183.27 557.131 1179.49 562.02 1175.46 566.711C1171.36 571.506 1167.11 576.145 1162.73 580.628C1158.48 584.9 1154.15 589.068 1149.62 593.027C1145.47 596.677 1141.19 600.15 1136.8 603.447C1131.11 603.095 1125.47 602.276 1119.96 600.998C1114.52 599.738 1109.23 597.991 1104.16 595.779C1098.56 593.348 1093.26 590.354 1088.34 586.843C1085.17 584.572 1082.24 582.016 1079.58 579.208C1083.84 575.421 1087.79 571.323 1091.4 566.955C1094.98 562.627 1098.19 558.033 1101.01 553.219C1103.84 548.332 1106.31 543.266 1108.39 538.06C1110.42 532.86 1112.16 527.569 1113.61 522.208C1115.05 516.859 1116.18 511.442 1116.97 505.988C1117.79 500.344 1118.14 494.662 1118.01 488.997C1117.89 483.363 1117.19 477.775 1115.91 472.319C1114.69 466.763 1112.94 461.349 1110.67 456.144C1108.4 450.905 1105.47 445.971 1101.95 441.452C1098.58 436.981 1094.6 432.97 1090.13 429.517C1085.93 426.273 1081.36 423.498 1076.49 421.244L1077.02 420.798C1080.48 416.094 1084.31 411.654 1088.49 407.523C1092.61 403.456 1097.04 399.697 1101.74 396.28C1106.52 392.877 1111.58 389.871 1116.86 387.295L1116.84 387.184ZM1171.92 597.549C1166.04 599.805 1159.94 601.44 1153.74 602.425C1148.2 603.318 1142.6 603.686 1137.02 603.526L1171.92 597.549Z" fill="#CACAA8"/>
<path d="M1259.2 443.747C1262.04 448.436 1264.43 453.379 1266.34 458.515C1268.3 463.78 1269.72 469.236 1270.58 474.805C1271.48 480.582 1271.54 486.481 1270.77 492.334C1269.93 498.419 1268.21 504.389 1265.65 510.068C1263.46 515.073 1260.56 519.78 1257.04 524.052C1253.19 528.797 1248.32 532.688 1242.78 535.44C1237.45 538.09 1231.71 539.818 1225.82 540.542C1227.96 535.77 1229.84 530.892 1231.49 525.908C1233.4 520.165 1234.95 514.328 1236.13 508.429C1237.22 503.011 1237.71 497.516 1237.58 492.039C1237.39 486.286 1235.85 480.698 1233.06 475.699C1230.34 470.508 1226.5 465.972 1221.77 462.389C1223.01 456.974 1223.62 451.464 1223.59 445.962C1223.59 440.586 1222.9 435.256 1221.53 430.093C1220.02 424.293 1217.72 418.735 1214.71 413.559C1211.81 408.556 1208.26 403.944 1204.16 399.831C1203.35 398.985 1202.51 398.106 1201.66 397.329C1204.07 398.03 1206.41 398.876 1208.7 399.862C1214.11 402.174 1219.27 404.982 1224.1 408.249C1228.75 411.362 1233.18 414.765 1237.37 418.437C1241.55 422.131 1245.48 426.072 1249.16 430.24C1252.89 434.391 1256.21 438.884 1259.06 443.662L1259.2 443.747ZM532.691 169.929C538.158 168.886 543.696 168.34 549.232 168.297C555.217 168.267 561.153 168.971 566.901 170.391C572.848 171.801 578.453 174.223 583.46 177.546C588.223 180.696 592.462 184.514 596.045 188.882C595.12 194.493 593.53 200.004 591.308 205.307C589.109 210.572 586.258 215.579 582.818 220.214C579.26 225.034 575.271 229.549 570.9 233.706C566.619 237.768 562.189 241.7 557.608 245.502C553.007 249.297 548.305 252.917 543.449 256.359C538.463 259.901 533.254 263.133 527.856 266.034C522.429 268.965 516.788 271.489 510.985 273.583L509.036 274.281C509.014 268.464 507.912 262.736 505.782 257.369C503.663 251.86 500.276 246.925 495.869 242.927C491.422 238.81 486.174 235.576 480.407 233.397C483.772 228.791 486.819 223.98 489.526 218.998C492.239 214.081 494.586 208.994 496.549 203.776C498.665 198.235 500.114 192.498 500.868 186.68C501.149 184.545 501.255 182.397 501.183 180.258C506.126 179.115 510.954 177.49 515.59 175.409C521.082 172.942 526.841 171.12 532.739 169.981L532.691 169.929ZM1237.77 492.127C1237.9 497.604 1237.41 503.099 1236.32 508.517C1235.14 514.416 1233.59 520.253 1231.68 525.995C1230 530.945 1228.11 535.823 1226.02 540.629C1224.06 545.883 1221.68 550.989 1218.89 555.898C1216.13 560.732 1212.93 565.324 1209.32 569.615C1205.75 573.859 1201.85 577.831 1197.65 581.49C1193.65 584.933 1189.43 588.132 1185.03 591.069C1189 586.847 1192.86 582.514 1196.6 578.069C1200.34 573.624 1203.89 569.024 1207.26 564.27C1210.74 559.594 1213.91 554.714 1216.75 549.661C1219.71 544.445 1221.67 538.774 1222.51 532.94C1223.36 527.164 1223.05 521.324 1221.61 515.739C1220.14 510.091 1218.89 504.394 1217.87 498.648C1216.83 492.923 1216.51 487.073 1216.93 481.224C1217.32 475.35 1218.73 469.547 1221.12 464.063C1221.39 463.507 1221.63 462.94 1221.87 462.373C1226.59 465.955 1230.44 470.491 1233.16 475.682C1235.94 480.681 1237.49 486.27 1237.67 492.023" fill="#CACAA8"/>
<path d="M248.651 209.498C247.366 215.272 245.15 220.844 242.084 226.009C240.995 227.869 239.876 229.717 238.758 231.566L227.525 230.388L210.598 228.411L196.22 226.646C190.635 225.962 185.035 225.439 179.419 225.077C175.756 224.892 172.062 224.714 168.336 224.54C169.723 218.834 170.381 213.01 170.296 207.199C170.226 204.793 170.228 202.551 170.173 200.236L249.954 191.881C250.434 197.751 249.995 203.69 248.651 209.498V209.498ZM717.98 222.205C721.172 217.814 724.673 213.636 728.458 209.702C732.677 205.238 738.201 202.13 744.24 200.822C750.484 199.431 756.937 199.626 762.962 201.389C768.845 203.074 774.274 205.902 778.923 209.704C783.511 213.482 787.193 218.18 789.729 223.491C792.242 228.749 793.931 234.362 794.742 240.152C795.627 246.126 795.506 252.232 794.384 258.238C793.303 263.946 791.404 269.508 788.743 274.761L782.499 284.335C779.277 289.696 776.744 295.4 774.957 301.316C774.012 304.553 773.299 307.841 772.821 311.157C771.477 317.16 770.609 323.237 770.225 329.335C769.824 335.367 769.872 341.403 770.369 347.398C770.432 348.076 770.453 348.774 770.495 349.462C772.605 353.154 774.361 357.032 775.743 361.052C777.5 366.379 778.471 371.944 778.629 377.586C778.785 383.075 778.277 388.585 777.114 394.005C775.827 400.01 773.999 405.913 771.65 411.645C769.28 417.392 766.481 422.977 763.274 428.354C757.006 428.286 750.843 427.126 745.08 424.928C739.515 422.854 734.465 419.726 730.218 415.722C725.769 411.574 722.103 406.704 719.375 401.318C716.629 395.949 715.2 390.004 715.199 383.929C715.188 378.218 716.227 372.513 718.268 367.082C718.529 366.384 718.799 365.707 719.038 365.019C720.789 368.058 722.186 371.284 723.204 374.64C724.903 380.24 725.527 386.127 725.047 392.016C725.527 386.127 724.903 380.24 723.204 374.64C722.186 371.284 720.789 368.058 719.038 365.019L711.593 352.553C709.243 347.479 707.236 342.253 705.587 336.907C703.955 331.605 702.666 326.2 701.726 320.721C700.743 314.9 700.159 309.009 699.976 303.086C699.838 297.06 700.244 291.016 701.188 285.021C701.997 279.798 702.931 274.586 703.989 269.386C705.223 263.37 706.483 257.416 708.099 251.454C709.714 245.493 711.183 240.374 712.941 234.741C714.342 230.426 716 226.186 717.908 222.041L717.98 222.205ZM969.12 386.561C964.78 390.21 960.318 393.694 955.732 397.011C951.089 400.375 946.254 403.477 941.252 406.301C936.267 409.146 931.037 411.549 925.628 413.48C920.244 415.405 914.71 416.864 909.091 417.839C903.282 418.854 897.41 419.375 891.544 419.395C885.688 419.455 879.856 419.004 874.122 418.047C868.353 417.083 862.696 415.644 857.213 413.747C853.564 412.452 849.955 411.091 846.386 409.665C847.009 403.557 848.748 397.566 851.521 391.972C854.235 386.534 857.938 381.586 862.448 377.374C866.733 373.248 871.485 369.605 876.607 366.517C881.613 363.498 886.881 360.924 892.343 358.827C897.879 356.677 903.621 355.114 909.466 354.166C915.55 353.222 921.185 350.283 925.415 345.847C926.943 344.237 928.209 342.415 929.167 340.446C935.265 339.117 941.215 337.138 946.905 334.545C952.54 331.989 957.859 328.794 962.746 325.03C967.174 321.63 971.342 317.92 975.214 313.931C979.558 309.505 983.63 304.837 987.408 299.954C990.705 295.749 993.771 291.442 996.604 287.032C996.709 290.348 996.802 293.694 996.842 297.039C996.971 302.261 996.884 307.496 996.58 312.744C996.281 317.965 995.74 323.217 995.056 328.435C994.37 333.757 993.408 339.051 992.176 344.299C990.925 349.567 989.424 354.788 987.673 359.964C985.922 365.14 983.943 370.244 981.738 375.275C977.667 379.231 973.473 383.02 969.156 386.643" fill="#56BA8D"/>
<path d="M469.225 179.381C469.588 184.749 469.16 190.167 467.953 195.474C466.614 201.281 464.328 206.877 461.183 212.048C458.345 216.717 455.207 221.217 451.789 225.519C449.579 228.295 447.393 231.126 445.23 234.011C439.439 235.617 433.868 237.956 428.664 240.965L426.244 242.232C421.821 245.609 417.389 249.046 412.949 252.544C408.495 256.088 403.725 259.238 398.701 261.953C393.597 264.744 388.267 267.108 382.773 269.02C373.209 272.376 363.185 274.162 353.124 274.306C357.03 270.072 360.641 265.595 363.93 260.905C367.166 256.233 370.046 251.346 372.545 246.285C375.3 240.735 377.513 234.964 379.157 229.049C380.784 223.223 381.688 217.253 381.848 211.269C381.995 205.722 381.566 200.195 380.565 194.772C379.479 189.291 377.682 183.988 375.215 178.987C372.527 173.728 369.036 168.911 364.853 164.691C363.584 163.413 362.319 162.207 361.017 161.09L363.322 159.263C368.035 155.593 373.181 152.489 378.642 150.023C384.321 147.473 390.315 145.697 396.448 144.75C402.655 143.755 408.946 143.633 415.124 144.386C420.644 145.043 425.945 146.717 430.745 149.316C431.138 149.537 431.487 149.823 431.776 150.161C434.501 153.853 437.183 157.564 439.79 161.162C443.373 165.961 447.908 170.012 453.144 173.091C458.107 176.037 463.57 178.149 469.311 179.343L469.225 179.381ZM1041.19 439.306C1042.58 439.072 1043.94 438.798 1045.31 438.523C1050.87 441.214 1056.05 444.581 1060.7 448.545C1065.28 452.479 1069.28 456.995 1072.61 461.978C1075.74 466.702 1078.38 471.732 1080.47 476.993C1082.48 482.099 1083.98 487.394 1084.96 492.808C1085.94 498.233 1086.37 503.754 1086.26 509.296C1086.12 514.87 1085.38 520.436 1084.04 525.901C1082.59 531.835 1080.41 537.602 1077.52 543.07C1075.57 546.735 1073.33 550.255 1070.82 553.597L1065.04 561.218C1060.7 565.413 1056.01 569.24 1051 572.655L1048.32 574.498L1048.21 574.545C1041.87 574.549 1035.68 573.045 1030.19 570.165C1024.87 567.448 1020.45 563.37 1017.4 558.358C1014.31 553.352 1011.87 547.978 1010.14 542.354C1008.48 537.032 1007.02 531.668 1005.73 526.259C1004.46 520.794 1002.79 515.438 1000.71 510.234C998.66 505.002 996.26 499.914 993.527 495.001C993.216 494.283 992.746 493.609 992.361 492.899C996.79 488.583 1000.67 483.776 1003.92 478.586C1007.1 473.484 1009.59 468.025 1011.33 462.348C1013.09 456.591 1014.14 450.673 1014.44 444.724C1014.5 443.676 1014.53 442.617 1014.59 441.568L1014.89 439.681L1022.68 440.867C1028.86 441.026 1035.06 440.505 1041.17 439.315" fill="#CACAA8"/>
<path d="M1046.95 573.48L1046.8 573.545L1046.67 573.601M1067.13 565.524L1063.49 560.254M605.628 211.311L605.565 211.168M605.767 212.225L605.314 213.128M605.314 213.128C602.38 218.098 599.961 223.324 598.096 228.727M605.314 213.128L598.096 228.727M598.096 228.727C596.201 234.159 594.863 239.741 594.102 245.39M598.096 228.727L594.102 245.39M594.102 245.39L593.784 247.671M593.784 247.671C592.582 253.542 592.029 259.498 592.137 265.438C592.263 270.733 592.934 275.983 594.138 281.113L599.333 294.528L593.784 247.671ZM883.927 295.305L883.766 295.229M47.4437 223.532L46.8935 223.503C43.6794 223.408 40.4184 223.383 37.1409 223.437C33.8635 223.492 30.6938 223.5 27.6712 223.494L19.0015 223.447C16.2312 223.434 13.4565 223.578 10.692 223.878M47.4437 223.532L10.692 223.878M47.4437 223.532L57.3077 223.5L137.823 224.937L170.242 225.518M10.692 223.878C8.61072 224.24 6.48788 223.966 4.62114 223.096M10.692 223.878L4.62114 223.096M1182.75 589.816L1176.43 593.307L1170.02 596.229M1170.02 596.229C1164.16 598.474 1158.09 600.106 1151.91 601.098M1170.02 596.229L1151.91 601.098M1151.91 601.098C1146.38 601.976 1140.8 602.345 1135.24 602.2M1151.91 601.098L1135.24 602.2M1135.24 602.2L1134.95 602.18M1134.95 602.18C1129.29 601.848 1123.69 601.064 1118.2 599.835M1134.95 602.18L1118.2 599.835M1118.2 599.835C1112.79 598.571 1107.53 596.828 1102.48 594.629M1118.2 599.835L1102.48 594.629M1102.48 594.629C1096.9 592.221 1091.62 589.239 1086.73 585.735M1102.48 594.629L1086.73 585.735M1086.73 585.735C1083.58 583.475 1080.65 580.934 1077.99 578.142M1086.73 585.735L1077.99 578.142M1077.99 578.142L1067.17 565.384M1067.17 565.384C1062 568.043 1056.62 570.29 1051.09 572.102M1067.17 565.384L1051.09 572.102M1051.09 572.102L1047.03 573.422L1046.86 573.497L1046.75 573.543M1046.75 573.543C1040.44 573.539 1034.28 572.022 1028.82 569.127M1046.75 573.543L1028.82 569.127M1028.82 569.127C1023.5 566.438 1019.09 562.379 1016.06 557.38M1028.82 569.127L1016.06 557.38M1016.06 557.38C1012.97 552.406 1010.53 547.062 1008.81 541.468M1016.06 557.38L1008.81 541.468M1008.81 541.468C1007.17 536.137 1005.71 530.793 1004.43 525.435M1008.81 541.468L1004.43 525.435M1004.43 525.435C1003.17 519.99 1001.5 514.657 999.412 509.481M1004.43 525.435L999.412 509.481M999.412 509.481C997.39 504.269 995.009 499.204 992.285 494.32M999.412 509.481L992.285 494.32M992.285 494.32C991.974 493.602 991.503 492.929 991.119 492.218M992.285 494.32L991.119 492.218M991.119 492.218C987.925 487.619 984.413 483.239 980.605 479.108M991.119 492.218L980.605 479.108M980.605 479.108C977.566 475.806 974.319 472.688 970.882 469.773M980.605 479.108L970.882 469.773M970.882 469.773C966.365 466.231 961.491 463.129 956.327 460.508M970.882 469.773L956.327 460.508M956.327 460.508C951.276 457.901 945.925 455.848 940.369 454.384M956.327 460.508L940.369 454.384M940.369 454.384C934.679 452.858 928.836 451.848 922.915 451.368M940.369 454.384L922.915 451.368M922.915 451.368C917.083 450.888 911.21 450.769 905.335 451.014M922.915 451.368L905.335 451.014M905.335 451.014C902.816 451.106 900.12 451.323 897.513 451.624M905.335 451.014L897.513 451.624M897.513 451.624C891.444 453.413 885.091 453.91 878.899 453.081M897.513 451.624L878.899 453.081M878.899 453.081C873.404 452.405 868.217 450.415 863.802 447.291M878.899 453.081L863.802 447.291M863.802 447.291C858.861 443.912 854.674 439.621 851.471 434.651M863.802 447.291L851.471 434.651M851.471 434.651C848.247 429.7 846.253 424.066 845.641 418.173M851.471 434.651L845.641 418.173M845.641 418.173C845.339 415.323 845.36 412.438 845.704 409.57M845.641 418.173L845.704 409.57M845.704 409.57C846.342 403.481 848.089 397.512 850.865 391.939M845.704 409.57L850.865 391.939M850.865 391.939C853.551 386.497 857.223 381.539 861.701 377.307M850.865 391.939L861.701 377.307M861.701 377.307C865.979 373.212 870.714 369.592 875.813 366.52M861.701 377.307L875.813 366.52M875.813 366.52C880.8 363.514 886.042 360.942 891.475 358.837M875.813 366.52L891.475 358.837M891.475 358.837C896.993 356.705 902.713 355.152 908.534 354.204M891.475 358.837L908.534 354.204M908.534 354.204C914.593 353.259 920.205 350.33 924.418 345.913M908.534 354.204L924.418 345.913M924.418 345.913C925.954 344.323 927.218 342.508 928.158 340.542M924.418 345.913L928.158 340.542M928.158 340.542C929.146 334.535 928.646 328.437 926.701 322.756M928.158 340.542L926.701 322.756M926.701 322.756C925.802 320.001 924.561 317.374 923.004 314.928M926.701 322.756L923.004 314.928M923.004 314.928C918.92 310.508 914.165 306.714 908.891 303.669M923.004 314.928L908.891 303.669M908.891 303.669C903.902 300.724 898.459 298.531 892.742 297.165M908.891 303.669L892.742 297.165M892.742 297.165C889.829 296.44 886.858 295.919 883.853 295.605M892.742 297.165L883.853 295.605M883.853 295.605L883.649 295.548L859.173 296.23M859.173 296.23C853.067 296.763 847.07 298.345 841.465 300.901M859.173 296.23L841.465 300.901M841.465 300.901C836.898 303.008 832.663 305.762 828.904 309.068M841.465 300.901L828.904 309.068M828.904 309.068C831.123 317.034 832.484 325.228 832.967 333.522M828.904 309.068L832.967 333.522M832.967 333.522C833.44 340.998 833.161 348.527 832.132 356.004M832.967 333.522L832.132 356.004M832.132 356.004C831.566 359.991 830.788 363.954 829.802 367.878M832.132 356.004L829.802 367.878M829.802 367.878C828.797 371.859 827.489 375.772 825.888 379.585M829.802 367.878L825.888 379.585M825.888 379.585C824.218 383.495 822.204 387.268 819.87 390.864M825.888 379.585L819.87 390.864M819.87 390.864C815.691 397.313 810.753 403.286 805.158 408.66M819.87 390.864L805.158 408.66M805.158 408.66L802.819 410.939M802.819 410.939C798.288 415.255 793.124 418.895 787.507 421.735M802.819 410.939L787.507 421.735M787.507 421.735C782.036 424.546 776.152 426.476 770.096 427.446M787.507 421.735L770.096 427.446M770.096 427.446C767.701 427.833 765.288 428.064 762.872 428.138M770.096 427.446L762.872 428.138M762.872 428.138C756.626 428.075 750.483 426.922 744.739 424.734M762.872 428.138L744.739 424.734M744.739 424.734C739.196 422.661 734.168 419.541 729.938 415.551M744.739 424.734L729.938 415.551M729.938 415.551C725.5 411.433 721.845 406.59 719.13 401.229M729.938 415.551L719.13 401.229M719.13 401.229C716.406 395.882 714.991 389.966 714.989 383.922M719.13 401.229L714.989 383.922M714.989 383.922C714.951 378.244 715.96 372.569 717.969 367.162M714.989 383.922L717.969 367.162M717.969 367.162C718.238 366.485 718.478 365.797 718.726 365.129M717.969 367.162L718.726 365.129M718.726 365.129L711.352 352.828M711.352 352.828C707.461 348.402 702.727 344.743 697.392 342.038M711.352 352.828L697.392 342.038M697.392 342.038C692.153 339.378 686.379 337.778 680.409 337.332M697.392 342.038L680.409 337.332M680.409 337.332C677.965 337.124 675.504 337.067 673.041 337.161M680.409 337.332L673.041 337.161M673.041 337.161C666.838 337.879 660.912 340.285 655.956 344.096M673.041 337.161L655.956 344.096M655.956 344.096L653.582 346.001M653.582 346.001C649.234 349.619 645.279 353.659 641.782 358.053M653.582 346.001L641.782 358.053M641.782 358.053C637.945 362.852 634.557 367.964 631.659 373.325M641.782 358.053L631.659 373.325M631.659 373.325C630.989 374.615 630.224 375.92 629.545 377.189M631.659 373.325L629.545 377.189M629.545 377.189C626.186 382.423 621.846 387.023 616.757 390.741M629.545 377.189L616.757 390.741M616.757 390.741C612.168 394.122 606.936 396.57 601.393 397.929M616.757 390.741L601.393 397.929M601.393 397.929C595.338 399.409 589.125 400.048 582.945 399.826M601.393 397.929L582.945 399.826M582.945 399.826C576.807 399.633 570.723 398.865 564.781 397.532M582.945 399.826L564.781 397.532M564.781 397.532C558.853 396.198 553.091 394.312 547.576 391.899M564.781 397.532L547.576 391.899M547.576 391.899C542.197 389.539 537.215 386.448 532.775 382.716M547.576 391.899L532.775 382.716M532.775 382.716C528.202 378.914 524.349 374.373 521.379 369.282M532.775 382.716L521.379 369.282M521.379 369.282C518.342 364.123 515.957 358.614 514.273 352.869M521.379 369.282L514.273 352.869M514.273 352.869C512.734 347.542 511.456 342.168 510.439 336.745M514.273 352.869L510.439 336.745M510.439 336.745C509.456 331.326 508.793 325.847 508.451 320.333M510.439 336.745L508.451 320.333M508.451 320.333C508.093 315.402 508.006 310.447 508.191 305.488M508.451 320.333L508.191 305.488M508.191 305.488L509.693 274.678M509.693 274.678C509.662 268.894 508.565 263.198 506.453 257.858M509.693 274.678L506.453 257.858M506.453 257.858C504.351 252.359 500.977 247.433 496.58 243.447M506.453 257.858L496.58 243.447M496.58 243.447C492.121 239.368 486.865 236.178 481.097 234.048M496.58 243.447L481.097 234.048M481.097 234.048C475.148 232.299 468.901 231.537 462.617 231.793M481.097 234.048L462.617 231.793M462.617 231.793C456.985 232.022 451.386 233.019 445.986 234.755M462.617 231.793L445.986 234.755M445.986 234.755C440.208 236.348 434.648 238.673 429.454 241.67M445.986 234.755L429.454 241.67M429.454 241.67L427.122 243.021M427.122 243.021C422.713 246.391 418.307 249.809 413.904 253.275M427.122 243.021L413.904 253.275M413.904 253.275C409.483 256.786 404.757 259.916 399.785 262.628M413.904 253.275L399.785 262.628M399.785 262.628C394.694 265.393 389.384 267.741 383.913 269.647M399.785 262.628L383.913 269.647M383.913 269.647C378.333 271.619 372.582 273.049 366.746 273.913M383.913 269.647L366.746 273.913M366.746 273.913C362.647 274.527 358.518 274.866 354.39 274.926M366.746 273.913L354.39 274.926M354.39 274.926C348.167 274.884 342.036 273.815 336.259 271.765M354.39 274.926L336.259 271.765M336.259 271.765C331.112 269.941 326.302 267.377 321.987 264.156M336.259 271.765L321.987 264.156M321.987 264.156C317.84 259.765 313.222 255.813 308.205 252.363M321.987 264.156L308.205 252.363M308.205 252.363C303.783 249.293 299.044 246.661 294.056 244.507M308.205 252.363L294.056 244.507M294.056 244.507C289.279 242.426 284.366 240.632 279.344 239.134M294.056 244.507L279.344 239.134M279.344 239.134L272.557 237.054M272.557 237.054C266.757 235.463 260.835 234.266 254.833 233.473M272.557 237.054L254.833 233.473M254.833 233.473C250.055 232.838 245.257 232.455 240.467 232.385M254.833 233.473L240.467 232.385M240.467 232.385L229.277 231.188M229.277 231.188C223.693 230.585 218.079 229.971 212.468 229.306M229.277 231.188L212.468 229.306M212.468 229.306L198.129 227.573M198.129 227.573C192.592 226.901 187.014 226.368 181.411 226.017M198.129 227.573L181.411 226.017M181.411 226.017C177.727 225.785 174.019 225.612 170.242 225.518M181.411 226.017L170.242 225.518M4.62114 223.096C4.33461 222.945 4.10211 222.716 3.95145 222.436M4.62114 223.096L3.95145 222.436M3.95145 222.436C3.66244 221.819 3.59957 221.119 3.77289 220.447C3.9462 219.776 4.34563 219.172 4.90725 218.733M3.95145 222.436L4.90725 218.733M4.90725 218.733C5.22592 218.42 5.61573 218.185 6.04303 218.046M4.90725 218.733L6.04303 218.046M6.04303 218.046C9.17208 217.038 12.4162 216.453 15.6807 216.31M6.04303 218.046L15.6807 216.31M15.6807 216.31C18.8529 216.13 22.0859 215.972 25.2694 215.642M15.6807 216.31L25.2694 215.642M25.2694 215.642C28.4922 215.342 31.715 215.043 34.9201 214.703M25.2694 215.642L34.9201 214.703M34.9201 214.703C36.7369 214.525 38.5359 214.307 40.3134 214.098L34.9201 214.703ZM40.6468 214.099L57.5825 212.492M336.339 181.641L57.6509 212.413L141.354 204.309L172.023 201.262L251.573 192.787M1044.02 438.083L1043.84 438.158L1039.74 438.961C1033.65 440.134 1027.47 440.652 1021.32 440.506L1013.66 439.243C1007.66 438.077 1001.96 435.873 996.839 432.735C993.284 430.571 990.007 428.019 987.07 425.125L980.021 415.996C977.149 410.991 975.47 405.398 975.102 399.611C974.67 393.793 975.514 387.908 977.578 382.339C978.45 379.952 979.461 377.611 980.607 375.326C982.799 370.284 984.797 365.205 986.538 360.066C988.28 354.927 989.734 349.717 991.015 344.46C992.296 339.204 993.201 333.964 993.875 328.605C994.548 323.246 995.074 318.195 995.403 312.985C995.732 307.776 995.792 302.536 995.671 297.351C995.609 294.016 995.525 290.69 995.42 287.374L995.269 287.025C994.284 281.209 992.904 275.475 991.138 269.86C990.443 267.725 989.771 265.58 989.098 263.435L983.011 251.624C980.295 246.636 976.726 242.147 972.449 238.34C968.099 234.395 962.902 231.415 957.198 229.595C951.489 227.734 945.441 226.902 939.348 227.141C933.217 227.401 927.206 229.213 921.919 232.397C917.851 234.849 914.233 237.957 911.232 241.58C907.18 241.182 903.198 240.366 899.354 239.147C893.578 237.345 888.134 234.728 883.196 231.38C881.216 230.04 879.094 228.902 876.863 227.983C876.117 227.69 875.325 227.515 874.514 227.465C872.751 227.351 870.983 227.288 869.208 227.326C863.001 227.112 856.763 227.629 850.631 228.865C844.588 230.067 838.697 231.988 833.094 234.582C830.841 235.614 828.656 236.788 826.555 238.096C821.549 241.183 816.775 244.618 812.272 248.373C807.779 252.141 803.549 256.195 799.612 260.505C795.38 265.078 791.564 269.991 788.209 275.187C790.886 269.953 792.791 264.403 793.868 258.705C795.024 252.725 795.171 246.638 794.305 240.683C793.504 234.921 791.827 229.335 789.327 224.104C786.78 218.814 783.084 214.146 778.483 210.406C773.851 206.627 768.441 203.824 762.579 202.163C756.578 200.409 750.152 200.211 743.931 201.589C737.91 202.885 732.406 205.994 728.222 210.462C724.461 214.371 720.982 218.523 717.812 222.887C714.44 227.792 710.28 232.16 705.499 235.819C703.076 237.691 700.484 239.343 697.758 240.754C695.744 239.91 693.932 238.693 692.418 237.171C688.986 233.678 687.036 229.048 686.934 224.149C686.768 220.331 687.297 216.491 688.495 212.802C688.113 206.762 686.253 200.948 683.067 195.833C680.023 190.917 675.644 186.926 670.384 184.272C664.989 181.493 659.087 179.692 652.958 178.954C646.934 178.164 640.744 178.936 635.016 181.193C629.469 183.338 624.421 186.595 620.214 190.744C615.793 195.065 612.037 199.976 609.07 205.314C607.794 207.552 606.676 209.868 605.724 212.244L605.563 211.339L605.501 211.196C604.007 205.512 601.893 200.017 599.196 194.802L596.278 189.658C592.709 185.322 588.484 181.538 583.737 178.425C578.741 175.105 573.145 172.687 567.209 171.281C561.512 169.903 555.633 169.232 549.71 169.283C544.198 169.313 538.684 169.857 533.242 170.908C527.356 172.029 521.61 173.846 516.136 176.317C511.521 178.389 506.715 180.005 501.794 181.138C491.161 182.734 480.386 182.445 470 180.287C464.322 179.12 458.91 177.061 453.977 174.191C448.754 171.127 444.223 167.101 440.628 162.333C437.99 158.603 435.342 154.95 432.685 151.375C432.383 151.043 432.028 150.761 431.632 150.539C426.857 147.952 421.584 146.283 416.094 145.622C403.832 144.125 391.257 146.07 379.854 151.228C374.4 153.676 369.267 156.775 364.577 160.449L362.284 162.246C357.365 165.82 352.968 170.028 349.221 174.748L346.144 178.516L336.572 181.588M1216.41 554.729C1219.21 549.833 1221.58 544.731 1223.5 539.479L1216.41 554.729ZM1216.41 554.729C1213.68 559.524 1210.52 564.083 1206.95 568.349M1216.41 554.729L1206.95 568.349M1206.95 568.349C1203.41 572.584 1199.53 576.539 1195.34 580.175M1206.95 568.349L1195.34 580.175M1195.34 580.175C1191.35 583.6 1187.16 586.783 1182.78 589.705M911.906 445.976L904.407 448.93L897.478 451.663L911.906 445.976ZM1183.22 394.813C1186.53 399.455 1189.05 404.595 1190.69 410.046C1192.39 415.756 1192.91 421.771 1192.22 427.755C1191.77 431.649 1190.96 435.511 1189.82 439.293L1183.22 394.813ZM724.739 391.784C725.23 385.917 724.607 380.052 722.902 374.479C721.89 371.136 720.499 367.923 718.754 364.898L724.739 391.784ZM788.169 275.034L782.036 284.511C778.825 289.86 776.304 295.551 774.529 301.453C773.579 304.671 772.866 307.943 772.396 311.244C771.065 317.244 770.204 323.318 769.822 329.412C769.422 335.423 769.461 341.438 769.939 347.413L770.044 349.487L788.169 275.034ZM1219.64 461.899C1224.34 465.47 1228.16 469.992 1230.86 475.166C1233.65 480.141 1235.18 485.712 1235.35 491.445C1235.47 496.892 1234.98 502.356 1233.89 507.743C1232.72 513.624 1231.18 519.441 1229.27 525.162C1227.6 530.051 1225.79 534.854 1223.59 539.634L1219.64 461.899ZM1223.53 539.561C1229.4 538.836 1235.13 537.107 1240.44 534.458C1245.95 531.725 1250.81 527.857 1254.65 523.138C1258.14 518.881 1261.02 514.198 1263.21 509.224C1265.71 503.574 1267.4 497.646 1268.23 491.607C1268.97 485.778 1268.91 479.906 1268.04 474.149C1267.17 468.606 1265.75 463.175 1263.81 457.929C1261.9 452.819 1259.52 447.898 1256.7 443.224C1253.85 438.478 1250.56 434.01 1246.85 429.874C1243.18 425.727 1239.26 421.806 1235.08 418.134C1230.92 414.484 1226.51 411.095 1221.89 407.988C1217.07 404.738 1211.93 401.947 1206.53 399.653C1204.26 398.679 1201.92 397.837 1199.53 397.131C1194.86 395.859 1190.04 395.094 1185.16 394.851L1183.08 394.777C1182.57 394.244 1182.05 393.761 1181.53 393.257C1177.54 389.562 1172.92 386.557 1167.85 384.367C1162.5 382.048 1156.76 380.625 1150.85 380.155C1144.75 379.652 1138.58 379.979 1132.52 381.127C1126.47 382.252 1120.59 384.206 1115.07 386.929C1109.8 389.484 1104.76 392.481 1100.01 395.885C1095.31 399.281 1090.89 403.021 1086.78 407.068C1082.62 411.19 1078.79 415.616 1075.34 420.304L1074.84 420.741L1074.39 421.129C1069.78 425.029 1064.75 428.446 1059.41 431.32C1054.64 433.873 1049.66 436.027 1044.54 437.759L1223.53 539.561Z" stroke="white" stroke-width="2.27918" stroke-linecap="round" stroke-linejoin="round"/>
</svg>
