<svg width="1886" height="1117" viewBox="0 0 1886 1117" fill="none" xmlns="http://www.w3.org/2000/svg">
<g style="mix-blend-mode:soft-light" opacity="0.58">
<g style="mix-blend-mode:soft-light" opacity="0.58">
<path d="M260.563 231.049L227.708 203.102C208.856 237.254 192.672 273.068 179.327 310.164C176.092 319.363 172.903 328.511 169.623 337.558V338.714L182.238 321.273C205.913 288.724 232.202 258.531 260.794 231.049" fill="#89CFD9"/>
</g>
<g style="mix-blend-mode:soft-light" opacity="0.58">
<path d="M1125.47 834.77C1107.23 812.938 1091.36 788.886 1078.2 763.093C1058.97 726.004 1046.05 685.444 1040.07 643.364L1027.74 644.47C1020.85 644.168 1013.87 643.816 1007.08 643.615C968.187 642.446 929.306 646.378 891.278 655.327C853.785 664.016 817.517 678.078 783.425 697.147C748.669 716.606 716.248 740.645 686.893 768.723C716.246 793.289 744.036 819.99 770.07 848.642C790.843 871.502 810.362 895.67 828.526 921.023C850.582 908.253 873.31 896.907 896.592 887.044C931.287 872.292 966.994 860.527 1003.38 851.859L1125.47 834.77Z" fill="#89CFD9"/>
</g>
<g style="mix-blend-mode:soft-light" opacity="0.58">
<path d="M1174.36 232.455L1177.08 229.691C1163.72 194.969 1146.85 161.977 1126.76 131.324C1105.44 98.5176 1080.28 68.8794 1051.9 43.161C1023.4 16.4717 992.006 -6.33256 958.42 -24.7458C925.088 -43.3189 890.233 -58.4639 854.31 -69.9834C818.931 -81.6345 782.567 -89.3972 745.764 -93.1551C708.821 -97.1744 671.639 -97.9308 634.583 -95.417C598.815 -92.9658 563.206 -88.2835 527.932 -81.3933C492.577 -74.4447 457.604 -65.3665 423.174 -54.2005C388.64 -42.7435 354.924 -28.5477 322.299 -11.7274C290.089 4.98648 259.181 24.5197 229.879 46.6795C200.394 69.0709 172.582 93.9621 146.702 121.121L227.708 203.101L260.563 231.048C277.568 219.119 294.635 207.256 311.763 195.461C334.282 180.043 357.893 166.597 382.371 155.25C418.808 138.54 456.981 126.725 496.047 120.065C532.083 113.851 568.629 111.862 605.055 114.134C677.529 118.805 748.523 138.439 814.246 171.988C847.991 189.182 880.067 210.012 909.993 234.164C941.678 259.678 970.087 289.683 994.464 323.383C1019.15 357.719 1039.76 395.292 1055.83 435.221V433.964L1056.8 431.401V430.998L1057.31 429.541C1069.96 395.082 1085.42 361.925 1103.52 330.47C1123.79 295.198 1147.51 262.419 1174.27 232.707" fill="#89CFD9"/>
</g>
<g style="mix-blend-mode:soft-light" opacity="0.58">
<path d="M1450.51 907.703C1435.16 914.202 1419.51 919.79 1403.6 924.441C1366.52 935.58 1327.7 938.132 1289.65 931.93C1251.86 926.068 1215.68 911.372 1183.6 888.854L1079.21 1041.86C1074.36 1049.8 1069.42 1057.79 1064.38 1065.73C1045.49 1096.33 1028.19 1128.05 1012.53 1160.73C995.346 1196.53 981.224 1233.96 970.343 1272.57C959.549 1311.39 951.925 1351.17 947.562 1391.44L968.864 1341.18L947.562 1391.44L927.876 1437.74C914.493 1478.5 909.431 1521.95 913.043 1565.06C916.072 1603.39 927.737 1640.31 947.007 1672.57C967.895 1708.5 994.904 1739.76 1026.58 1764.65C1058.08 1789.76 1094.43 1806.72 1132.86 1814.27C1151.48 1817.84 1170.39 1819.31 1189.28 1818.64C1180.94 1793.31 1173.05 1767.72 1165.62 1741.89C1154.64 1703.15 1146.78 1663.44 1142.15 1623.21C1137.37 1583.22 1135.96 1542.84 1137.95 1502.58C1139.68 1462.29 1144.66 1422.24 1152.82 1382.9C1168.49 1306.31 1196.9 1233.49 1236.65 1168.02C1256.46 1135.27 1277.98 1103.79 1301.11 1073.73C1323.88 1044 1347.77 1015.28 1372.78 987.573C1397.8 959.86 1423.71 933.237 1450.51 907.703Z" fill="#89CFD9"/>
</g>
<g style="mix-blend-mode:soft-light" opacity="0.58">
<path d="M2032.89 855.026L2030.35 854.473C2000.65 871.831 1971.71 890.479 1943.52 910.417C1910.7 933.708 1879.2 959.103 1849.16 986.466C1822.03 1010.82 1796.66 1037.4 1773.28 1065.98C1747.38 1097.49 1725.09 1132.29 1706.88 1169.63C1688.48 1207.31 1673.97 1247.1 1663.63 1288.25C1703.32 1284.66 1743.23 1291.43 1780.03 1308.01C1797.82 1315.76 1814.71 1325.76 1830.35 1337.81C1831.69 1331.03 1833.08 1324.24 1834.51 1317.71C1843.27 1275.48 1858.34 1235.11 1879.1 1198.18C1899.89 1161.09 1926.08 1127.92 1956.64 1099.96C1985.73 1073.44 2017.28 1050.28 2050.77 1030.85C2083.31 1012.27 2117.34 996.948 2152.43 985.059C2188.04 973.106 2224.55 964.612 2261.53 959.676L2185.79 911.07L2032.89 855.026Z" fill="#89CFD9"/>
</g>
<g style="mix-blend-mode:soft-light" opacity="0.58">
<path d="M1409.84 -28.8174C1429.16 -65.4684 1443.56 -104.941 1452.59 -146.033C1461.59 -187.317 1465.32 -229.754 1463.68 -272.146C1462.19 -313.165 1454.38 -353.621 1440.57 -391.824C1427.58 -428.018 1409.15 -461.615 1386.04 -491.247C1382.95 -495.117 1379.71 -498.987 1376.57 -502.757C1347.02 -528.32 1313.96 -548.674 1278.61 -563.074C1241.67 -577.936 1202.45 -584.899 1163.08 -583.582C1137.46 -582.734 1111.95 -579.369 1086.88 -573.529C1059.53 -576.88 1032.17 -578.773 1004.81 -579.209C968.035 -579.997 931.253 -577.729 894.79 -572.423C858.053 -567.095 821.825 -559.908 786.105 -551.111C747.514 -541.059 706.894 -546.262 671.505 -565.788C637.957 -584.185 603.777 -600.94 568.966 -616.052C536.043 -629.99 500.856 -636.488 465.549 -635.153C426.08 -634.012 387.523 -621.992 353.49 -600.219C319.479 -578.913 286.531 -555.659 254.787 -530.553C222.532 -505.321 191.125 -478.832 160.565 -451.086C131.453 -424.278 103.342 -396.499 76.2326 -367.748C51.3719 -341.209 27.4815 -313.815 4.56152 -285.566C5.27117 -246.333 8.94956 -207.229 15.5594 -168.652C22.3614 -130.631 32.3855 -93.3774 45.5033 -57.3674C59.7534 -17.4037 77.8774 20.7947 99.5685 56.5812C113.418 79.628 129.196 101.233 146.702 121.12C172.605 93.9898 200.415 69.1005 229.88 46.6792C259.182 24.5354 290.09 5.019 322.299 -11.6773C354.964 -28.491 388.727 -42.6539 423.313 -54.05C457.743 -65.2159 492.716 -74.2942 528.07 -81.2428C563.345 -88.133 598.954 -92.8153 634.722 -95.2665C671.685 -97.7334 708.77 -96.9938 745.625 -93.0549C782.442 -89.2602 818.82 -81.4811 854.218 -69.8329C890.141 -58.3134 924.996 -43.1683 958.328 -24.5952C991.928 -6.21673 1023.35 16.5354 1051.9 43.1607C1080.26 68.8171 1105.43 98.3871 1126.76 131.123C1146.89 161.834 1163.8 194.895 1177.18 229.691L1180.23 226.373C1211.7 205.115 1241.59 181.181 1269.6 154.797C1297.2 128.711 1322.89 100.327 1346.44 69.9012C1370.16 39.0535 1391.38 6.02314 1409.84 -28.8174" fill="#7565AB"/>
</g>
<g style="mix-blend-mode:soft-light" opacity="0.58">
<path d="M1078.7 -1038.17C1048.87 -1060.32 1017.25 -1079.5 984.252 -1095.47C950.411 -1111.88 915.189 -1124.69 879.078 -1133.72C841.653 -1143.01 803.24 -1146.73 764.894 -1144.78C725.06 -1142.53 685.709 -1134.24 647.984 -1120.15C614.813 -1107.81 583.369 -1090.54 554.548 -1068.83C522.635 -1044.94 495.993 -1013.64 476.546 -977.199C457.78 -942.017 444.918 -903.484 438.562 -863.401C470.324 -875.364 502.485 -885.735 535.048 -894.515C573.094 -904.522 611.677 -911.942 650.572 -916.731C686.191 -921.221 722.152 -921.491 757.824 -917.536C795.287 -913.039 831.309 -899.285 863.136 -877.324C896.323 -855.79 924.914 -826.815 947.007 -792.328C982.668 -797.813 1018.78 -798.959 1054.67 -795.746C1089.74 -792.77 1124.33 -785.037 1157.63 -772.725C1194.96 -759.118 1230.51 -740.314 1263.4 -716.781C1295.27 -693.968 1324.42 -666.955 1350.19 -636.358C1355.55 -630.427 1360.68 -624.295 1365.71 -617.861C1361.85 -634.755 1356.99 -651.36 1351.16 -667.572C1337.5 -706.059 1320.57 -743.079 1300.6 -778.153C1281.35 -811.801 1260.19 -844.116 1237.25 -874.912C1214.27 -905.772 1189.58 -935.08 1163.31 -962.673C1137.22 -990.579 1108.82 -1015.82 1078.47 -1038.07L1078.7 -1038.17ZM2670.67 4109.52C2679.03 4072.56 2684.09 4034.8 2685.78 3996.78C2687.73 3955.77 2684.94 3914.65 2677.46 3874.39C2669.85 3832.66 2655.52 3792.73 2635.14 3756.42C2615.99 3721.81 2592.33 3690.41 2564.9 3663.18C2528.05 3666.38 2491.67 3674.22 2456.49 3686.55C2421.53 3698.82 2388.09 3715.7 2356.91 3736.82C2324.55 3758.65 2294.02 3783.54 2265.69 3811.21C2237.96 3838.35 2211.13 3866.68 2185.19 3896.2C2159.25 3925.73 2134.39 3956.14 2110.61 3987.43C2086.19 4019.84 2063.68 4053.9 2043.24 4089.42C2022.71 4125.18 2004.76 4162.63 1989.54 4201.41C1987.88 4205.63 1986.17 4209.9 1984.5 4214.38C2022.41 4217.77 2059.45 4228.51 2093.88 4246.09C2129.29 4263.67 2160.59 4289.74 2185.42 4322.34C2211 4355.37 2230.53 4393.42 2242.96 4434.43C2273.89 4413.83 2306.08 4395.56 2339.3 4379.74C2372.15 4363.87 2406.02 4350.62 2440.64 4340.09C2477.35 4328.67 2515.16 4321.92 2553.3 4319.98C2567.3 4319.27 2581.33 4319.74 2595.26 4321.39C2603.97 4288.05 2615.88 4255.81 2630.79 4225.18C2648.39 4188.55 2661.78 4149.71 2670.67 4109.52V4109.52ZM757.593 -917.334C721.921 -921.289 685.96 -921.02 650.341 -916.53C611.446 -911.741 572.863 -904.321 534.817 -894.313C502.193 -885.501 470.031 -875.129 438.331 -863.2C403.591 -852.695 369.712 -839.077 337.04 -822.486C304.807 -806.221 274.024 -786.753 245.082 -764.331C216.477 -742.255 189.613 -717.624 164.77 -690.694C141.242 -665.147 119.247 -637.982 98.9214 -609.367C127.541 -634.298 156.807 -658.391 186.72 -681.646C216.633 -704.902 247.1 -727.068 278.122 -748.146C309.532 -769.516 342.195 -788.623 375.902 -805.346C410.72 -822.781 448.22 -833.008 486.481 -835.505C524.447 -838.156 562.527 -832.814 598.632 -819.772C634.984 -806.368 671.782 -794.64 709.027 -784.587C746.114 -774.293 784.199 -768.86 822.472 -768.402C860.888 -767.834 899.117 -774.325 935.547 -787.603C939.243 -789.161 942.94 -790.619 946.776 -791.875C924.711 -826.412 896.136 -855.439 862.951 -877.023C831.124 -898.983 795.102 -912.737 757.64 -917.234" fill="#F29666"/>
</g>
<g style="mix-blend-mode:soft-light" opacity="0.58">
<path d="M2337.04 6041.32C2299.06 6047.08 2262.15 6059.24 2227.61 6077.36C2215.23 6083.84 2202.8 6090.48 2190.65 6097.16C2192.13 6123.15 2193.79 6149.09 2195.27 6174.97C2197.73 6213.98 2200.32 6253.03 2203.03 6292.14C2205.62 6325.65 2208.18 6358.97 2210.7 6392.11C2213.6 6430.88 2215.54 6469.65 2216.52 6508.42C2216.99 6533.89 2216.99 6559.68 2216.52 6585.78C2254.15 6579.35 2292.37 6578.04 2330.29 6581.86C2345.36 6583.27 2360.47 6584.93 2375.58 6586.89L2452.15 6042.43C2414 6035.89 2375.17 6035.59 2336.95 6041.52L2337.04 6041.32ZM2379.27 2806.88C2408.75 2787.3 2436.9 2765.47 2463.51 2741.54C2493.9 2715.14 2515.71 2678.85 2525.76 2637.99C2536.48 2595.85 2536.91 2551.39 2527.01 2509.01C2517.62 2467.62 2500.63 2428.72 2477.05 2394.66C2453.71 2360.89 2424.14 2332.79 2390.23 2312.18C2356.51 2291.95 2320.28 2277.15 2282.65 2268.25C2243.84 2258.97 2203.91 2256.58 2164.4 2261.16C2126.85 2265.46 2090.03 2275.45 2055.02 2290.82L1990.97 2328.47C1955.1 2347.61 1917.18 2361.86 1878.08 2370.89C1856.75 2375.62 1835.13 2378.69 1813.39 2380.09C1773.86 2385.93 1733.97 2388.52 1694.08 2387.83C1654.55 2387.31 1615.12 2383.73 1576.06 2377.12C1571.44 2376.42 1567.19 2375.76 1562.52 2375.21C1539.16 2358.53 1514.4 2344.28 1488.58 2332.64C1454.33 2317.51 1418.29 2307.73 1381.52 2303.59C1345.76 2299.44 1309.69 2299.89 1274.03 2304.94C1234.52 2310.4 1195.52 2319.63 1157.49 2332.54C1119.5 2345.45 1082.43 2361.4 1046.59 2380.24C1045.35 2423.41 1051.27 2466.47 1064.06 2507.36C1076.16 2546.74 1095.21 2583.18 1120.15 2614.62C1145.98 2647.45 1176.69 2675.33 1211 2697.1C1245.3 2718.96 1283.71 2732.06 1323.34 2735.4C1360.66 2738.75 1398.22 2734.77 1434.24 2723.64L1447.78 2719.57C1428.45 2705.79 1407.82 2694.31 1386.23 2685.34C1350.16 2670.58 1311.93 2663.05 1273.39 2663.12C1311.93 2663.05 1350.16 2670.58 1386.23 2685.34C1407.82 2694.31 1428.45 2705.79 1447.78 2719.57L1526.34 2777.42C1558.86 2796.48 1592.46 2813.26 1626.94 2827.69C1661.02 2841.69 1695.85 2853.48 1731.23 2862.97C1768.96 2872.99 1807.26 2880.25 1845.88 2884.69C1885.22 2889.16 1924.86 2889.82 1964.31 2886.65C1998.65 2884.03 2032.84 2880.42 2066.99 2876.09C2106.64 2871.03 2145.99 2864.93 2185.06 2857.8C2221.84 2851.09 2258.48 2843.05 2294.99 2833.67C2323.5 2826.32 2351.61 2817.25 2379.18 2806.48L2379.27 2806.88ZM1372.87 987.723C1347.86 1015.47 1323.95 1044.15 1301.16 1073.77C1278.07 1103.93 1256.57 1135.48 1236.74 1168.27C1196.97 1233.67 1168.57 1306.45 1152.96 1383C1144.8 1422.36 1139.81 1462.42 1138.04 1502.73C1136.1 1543 1137.52 1583.37 1142.29 1623.36C1146.97 1663.6 1154.82 1703.32 1165.76 1742.09C1173.22 1767.85 1181.1 1793.42 1189.42 1818.79C1229.45 1817.82 1269.01 1809.19 1306.29 1793.3C1342.57 1777.75 1375.96 1755.19 1404.85 1726.7C1432.89 1699.54 1457.92 1668.9 1479.43 1635.43C1500.45 1602.62 1518.67 1567.79 1533.87 1531.38C1549.4 1494.56 1561.12 1455.97 1568.8 1416.32C1576.62 1375.02 1597.28 1337.9 1627.31 1311.22C1638.22 1301.64 1650.45 1293.95 1663.53 1288.45C1673.87 1247.27 1688.4 1207.47 1706.83 1169.78C1725.06 1132.41 1747.37 1097.58 1773.28 1066.03C1796.66 1037.47 1822.01 1010.89 1849.11 986.516C1879.15 959.157 1910.66 933.762 1943.47 910.467C1971.6 890.562 2000.54 871.898 2030.3 854.473C2008.73 851.926 1986.99 849.513 1965.05 847.235C1930.98 843.415 1896.8 841.086 1862.51 840.248C1828.22 839.41 1793.94 840.013 1759.65 842.057C1724.81 843.867 1690.04 847.519 1655.35 853.015C1620.67 858.511 1586.21 865.916 1551.98 875.232C1517.85 884.447 1483.96 895.22 1450.32 907.552C1423.55 933.32 1397.7 960.044 1372.78 987.723" fill="#57BA8D"/>
</g>
<g style="mix-blend-mode:soft-light" opacity="0.58">
<path d="M1125.47 834.77L1003.38 851.659C966.986 860.296 931.277 872.061 896.592 886.843C873.31 896.706 850.581 908.052 828.525 920.822C850.583 953.912 869.619 989.264 885.363 1026.38C901.106 1062.75 913.175 1100.87 921.361 1140.07C929.812 1180.18 934.855 1221.05 936.425 1262.17C938.025 1302.71 937.222 1343.32 934.022 1383.75C932.574 1401.71 930.572 1419.64 928.015 1437.54L947.7 1391.24C952.035 1350.96 959.674 1311.17 970.528 1272.37C981.381 1233.78 995.473 1196.36 1012.62 1160.58C1028.3 1127.88 1045.62 1096.15 1064.52 1065.53C1069.55 1057.59 1074.5 1049.6 1079.35 1041.66L1183.74 888.653L1125.47 834.77Z" fill="#5869B0"/>
</g>
<g style="mix-blend-mode:soft-light" opacity="0.58">
<path d="M2592.16 4540.84C2557.1 4535.52 2521.51 4535.66 2486.48 4541.24C2448.27 4547.27 2411.18 4559.91 2376.64 4578.69C2345.35 4595.57 2315.13 4614.73 2286.21 4636.04C2267.36 4650.05 2248.24 4663.63 2228.86 4676.8C2216.83 4715.77 2200.06 4752.81 2179 4786.93C2176.09 4791.96 2173.09 4796.58 2170.18 4801.51C2147.01 4830.06 2123.41 4858.54 2099.38 4886.96C2075.09 4915.71 2053.25 4946.8 2034.14 4979.85C2014.61 5013.39 1997.77 5048.71 1983.81 5085.4C1959.32 5149.33 1944.96 5217.31 1941.35 5286.46C1970.01 5261.97 2000.18 5239.63 2031.64 5219.61C2062.92 5199.95 2095.49 5182.85 2129.1 5168.44C2166.09 5152.61 2204.36 5140.6 2243.42 5132.55C2281.87 5124.61 2321.06 5121.73 2360.14 5123.95C2396.45 5126.02 2432.46 5132.11 2467.63 5142.15C2503.12 5152.53 2537.28 5167.73 2569.29 5187.39C2602.87 5208.83 2633.37 5235.52 2659.81 5266.6C2667.81 5276 2675.25 5285.5 2682.32 5295.05L2694.7 5280.27C2720.08 5249.87 2741.81 5216.09 2759.4 5179.75C2777.61 5142.21 2790.85 5102.05 2798.72 5060.47C2806.83 5018.42 2809.24 4975.31 2805.88 4932.5C2803.16 4894.2 2793.75 4856.83 2778.16 4822.37C2776.81 4819.53 2775.03 4816.96 2772.89 4814.78C2749.78 4794.2 2726.59 4773.83 2703.3 4753.66C2672.97 4726.25 2647.78 4692.75 2629.08 4654.99C2611.27 4619.23 2598.97 4580.53 2592.67 4540.44L2592.16 4540.84ZM1049.45 462.866C1051.49 453.517 1053.61 444.268 1055.83 434.97C1039.7 395.195 1019.11 357.748 994.512 323.484C970.112 289.759 941.69 259.721 909.994 234.165C880.069 209.901 847.959 189.001 814.155 171.787C781.511 155.052 747.469 141.755 712.494 132.078C677.322 122.346 641.379 116.27 605.149 113.933C568.707 111.69 532.149 113.679 496.095 119.864C457.017 126.641 418.834 138.523 382.373 155.25C357.917 166.582 334.336 180.029 311.857 195.461C294.574 207.273 277.569 219.085 260.564 231.048C231.971 258.53 205.682 288.724 182.008 321.272C177.803 327.002 173.644 332.833 169.392 338.714V339.568C167.605 383.084 175.682 426.411 192.913 465.731C209.308 503.854 234.85 536.464 266.849 560.127C298.625 584.256 333.019 604.025 369.249 618.986C403.598 633.429 438.178 646.531 472.99 658.293C508.288 669.908 542.734 684.391 576.037 701.62C609.647 718.575 642.201 737.901 673.493 759.474L686.848 768.723C716.203 740.646 748.624 716.606 783.38 697.147C817.472 678.079 853.74 664.016 891.233 655.327C929.265 646.405 968.142 642.474 1007.03 643.616L1027.69 644.47L1040.03 643.364L1034.34 589.129C1035.02 546.562 1040.07 504.211 1049.41 462.866" fill="#B273AE"/>
</g>
<g style="mix-blend-mode:soft-light" opacity="0.58">
<path d="M2473.5 5828.96C2474.7 5817.85 2475.99 5806.69 2477.24 5795.53C2481.49 5759.01 2486.79 5722.58 2493.14 5686.26C2499.51 5648.39 2507.34 5610.99 2516.61 5574.07C2525.88 5537.14 2536.25 5500.28 2547.71 5463.49L2527.28 5425.99L2521.78 5429.51L2527.28 5425.99C2500.59 5395.27 2468.06 5371.25 2431.95 5355.62C2397.03 5339.83 2359.16 5333.32 2321.47 5336.62C2285.17 5339.47 2249.41 5347.74 2215.18 5361.2C2178.22 5375.68 2142.93 5394.78 2110.01 5418.1C2081.38 5438.39 2054.65 5461.69 2030.21 5487.66C2020.97 5497.31 2012.05 5506.96 2003.13 5516.67C2030.71 5547.78 2055.36 5581.83 2076.69 5618.3C2095.6 5650.46 2111.6 5684.53 2124.47 5720.03C2136.84 5754.23 2147.31 5789.19 2155.85 5824.73C2159.64 5840.68 2163.55 5856.67 2167.59 5872.69C2200.99 5857.6 2235.57 5845.83 2270.91 5837.5C2309.89 5828.1 2349.71 5823.5 2389.63 5823.78C2417.72 5824.18 2445.71 5825.86 2473.59 5828.81L2473.5 5828.96ZM2399.05 1150.03C2388.62 1109.65 2370.5 1072.11 2345.86 1039.85C2322.02 1008.18 2293.55 981.011 2261.58 959.424C2224.59 964.36 2188.08 972.855 2152.48 984.808C2117.39 996.697 2083.36 1012.02 2050.82 1030.6C2017.32 1050.03 1985.78 1073.19 1956.69 1099.71C1926.13 1127.67 1899.94 1160.84 1879.15 1197.93C1858.38 1234.85 1843.32 1275.23 1834.56 1317.46C1833.12 1324.14 1831.74 1330.93 1830.4 1337.56C1858.53 1368.22 1882.36 1403.23 1901.1 1441.46C1919 1477.56 1931.88 1516.35 1939.31 1556.56C1943.27 1577.06 1945.93 1597.84 1947.26 1618.74L1947.63 1619.89C1969.72 1611.95 1992.13 1605.25 2014.87 1599.79C2050.91 1591.12 2087.59 1585.94 2124.47 1584.31C2160.62 1582.57 2196.8 1586.82 2231.77 1596.92C2268.44 1607.39 2301.91 1628.19 2328.81 1657.24C2355.59 1686.33 2376.64 1721.05 2390.69 1759.28C2391.15 1747.01 2391.24 1734.7 2391.01 1722.48C2390.9 1716.87 2389.95 1711.32 2388.19 1706.05C2382.81 1690.07 2375.89 1674.75 2367.54 1660.36C2347.06 1624.16 2331.49 1584.93 2321.33 1543.9C2314.36 1516.7 2310.05 1488.79 2308.48 1460.61C2333.02 1441.97 2354.35 1418.76 2371.47 1392.05C2393.77 1357.34 2407.24 1316.83 2410.51 1274.63C2413.7 1232.68 2409.82 1190.45 2399.05 1150.03Z" fill="#688AC6"/>
</g>
<g style="mix-blend-mode:soft-light" opacity="0.58">
<path d="M2191.52 7728.18C2192.11 7729.35 2192.93 7730.37 2193.93 7731.15C2197.07 7732.99 2200.68 7733.65 2204.2 7733.03C2207.72 7732.4 2210.95 7730.52 2213.38 7727.68C2215 7726.09 2216.25 7724.11 2217.03 7721.9C2224.47 7701.35 2229.23 7679.76 2231.17 7657.76C2233.11 7636 2235.47 7613.73 2238.2 7591.72C2240.92 7569.7 2243.79 7547.38 2246.84 7525.52C2248.59 7513.15 2250.35 7500.79 2252.15 7488.63C2252.16 7488.41 2252.16 7488.19 2252.15 7487.97C2252.08 7487.47 2252.08 7486.96 2252.15 7486.46L2267.22 7370.35C2267.15 7370.06 2267.15 7369.75 2267.22 7369.45C2267.22 7369.45 2267.22 7369.45 2267.22 7369.45L2342.72 6796.44L2371 6586.29L2447.94 6041.52L2469.29 5828.4C2470.58 5817.3 2471.79 5806.14 2473.08 5794.98C2477.33 5758.44 2482.69 5721.59 2488.98 5685.4C2495.4 5647.65 2503.3 5610.01 2512.54 5572.91C2521.78 5535.82 2532.18 5498.27 2543.78 5461.73C2543.86 5461.42 2543.99 5461.14 2544.15 5460.87C2544.11 5460.59 2544.11 5460.3 2544.15 5460.02L2562.63 5407.99L2524.28 5433.13C2523.76 5433.53 2523.16 5433.81 2522.53 5433.95C2521.9 5434.09 2521.26 5434.08 2520.63 5433.93C2519.83 5433.7 2519.11 5433.22 2518.55 5432.55C2518 5431.87 2517.64 5431.04 2517.52 5430.15C2517.39 5429.25 2517.51 5428.34 2517.86 5427.52C2518.21 5426.7 2518.77 5426.01 2519.47 5425.54L2519.98 5425.24L2525.11 5422.02L2568.59 5393.62L2594.43 5374.77C2626.06 5351.83 2654.53 5324.11 2678.99 5292.44L2691.51 5277.36C2716.51 5247.26 2737.95 5213.88 2755.33 5177.99C2773.39 5140.8 2786.51 5101.01 2794.28 5059.82C2802.3 5018.21 2804.71 4975.56 2801.44 4933.2C2798.59 4895.46 2789.18 4858.66 2773.72 4824.73C2772.61 4822.44 2771.18 4820.35 2769.47 4818.55C2746.36 4798.09 2723.03 4777.58 2700.15 4757.63C2669.4 4729.78 2643.86 4695.75 2624.92 4657.4C2606.89 4621.32 2594.4 4582.27 2587.96 4541.79C2576.51 4468.37 2577.57 4393.28 2591.1 4320.28C2591.1 4320.28 2591.1 4319.98 2591.1 4319.93C2599.95 4286.3 2611.95 4253.74 2626.91 4222.77C2644.31 4186.7 2657.6 4148.45 2666.47 4108.87C2674.78 4072.16 2679.8 4034.65 2681.44 3996.88C2683.39 3956.27 2680.63 3915.55 2673.21 3875.7C2665.71 3834.53 2651.64 3795.11 2631.62 3759.23C2612.69 3725.08 2589.35 3694.05 2562.31 3667.1C2551.4 3659.56 2540.59 3652.02 2529.96 3644.48C2496.85 3623.21 2461.81 3605.71 2425.39 3592.26V3592.26L2424.14 3591.8L2420.03 3590.65L2415.41 3592.76C2381.57 3610.3 2346.19 3624.11 2309.82 3633.98C2273.3 3643.9 2236 3649.98 2198.41 3652.12C2193.42 3652.12 2188.47 3652.57 2183.67 3652.92C2144.42 3657.92 2104.79 3658.34 2065.46 3654.18C2030.61 3650.24 1996.2 3642.54 1962.74 3631.21H1962.23L1875.68 3587.88C1875.18 3587.64 1874.72 3587.29 1874.35 3586.85C1873.97 3586.42 1873.68 3585.9 1873.48 3585.34C1873.29 3584.78 1873.2 3584.18 1873.22 3583.58C1873.24 3582.98 1873.37 3582.4 1873.6 3581.85C1874.08 3580.77 1874.93 3579.94 1875.96 3579.53C1877 3579.11 1878.14 3579.16 1879.15 3579.64L1965.47 3622.82C1998.39 3633.89 2032.24 3641.42 2066.53 3645.28C2105.28 3649.35 2144.31 3648.91 2182.98 3643.98H2183.25L2198.13 3643.07C2235.09 3640.93 2271.76 3634.91 2307.65 3625.08C2343.5 3615.32 2378.37 3601.71 2411.76 3584.47L2417.77 3581.85L2418.23 3581.6C2433.6 3576.72 2448.64 3570.67 2463.24 3563.51C2498.61 3546.11 2531.44 3523.16 2560.69 3495.4C2588.52 3469 2610.84 3436.44 2626.17 3399.9C2642.1 3362.27 2648.71 3320.77 2645.35 3279.51C2642.12 3237.32 2632 3196.09 2615.45 3157.77C2599.66 3120.9 2575.21 3089.2 2544.57 3065.89C2512.8 3041.47 2476.26 3025.39 2437.82 3018.89C2413.11 3025.01 2387.62 3026.49 2362.45 3023.27C2329.41 3019.61 2298.7 3003.04 2276.04 2976.62C2266.04 2964.96 2258.19 2951.31 2252.94 2936.41C2252.71 2935.76 2252.63 2935.06 2252.68 2934.36C2252.74 2933.67 2252.94 2932.99 2253.26 2932.39C2263.38 2914.09 2275.06 2896.88 2288.15 2880.97C2313.77 2849.81 2343.85 2823.36 2377.24 2802.66C2406.52 2783.29 2434.5 2761.69 2460.97 2738.02C2490.61 2712.13 2511.93 2676.69 2521.88 2636.79C2532.38 2595.4 2532.81 2551.75 2523.12 2510.12C2513.84 2469.32 2497.09 2430.97 2473.86 2397.38C2450.85 2364.15 2421.74 2336.49 2388.38 2316.15C2355.05 2296.19 2319.26 2281.55 2282.09 2272.67C2243.72 2263.55 2204.25 2261.19 2165.18 2265.69C2127.99 2269.96 2091.53 2279.82 2056.82 2294.99L1992.96 2332.49C1956.72 2351.81 1918.43 2366.23 1878.96 2375.41C1857.45 2380.09 1835.66 2383.17 1813.76 2384.61C1774.06 2390.5 1734 2393.1 1693.94 2392.4C1654.22 2391.81 1614.58 2388.22 1575.32 2381.65C1571.02 2380.99 1566.54 2380.24 1561.96 2379.69C1560.87 2379.52 1559.88 2378.91 1559.19 2377.98C1558.51 2377.04 1558.17 2375.85 1558.27 2374.66C1558.42 2373.48 1558.98 2372.41 1559.85 2371.68C1560.71 2370.95 1561.8 2370.61 1562.89 2370.74C1567.51 2371.29 1572.13 2371.95 1576.47 2372.7C1615.36 2379.19 1654.6 2382.75 1693.94 2383.35C1733.65 2384.06 1773.35 2381.45 1812.7 2375.56H1813.02C1834.55 2374.16 1855.97 2371.12 1877.11 2366.47C1915.88 2357.54 1953.47 2343.41 1989.03 2324.4L2052.9 2286.9C2087.84 2266.87 2121.1 2243.54 2152.29 2217.18C2181.27 2192.69 2208.69 2166.09 2234.36 2137.56C2260.03 2108.79 2283.68 2077.95 2305.11 2045.33C2314.12 2031.69 2322.31 2017.44 2329.64 2002.65C2347.79 1965.68 2361.75 1926.46 2371.23 1885.84C2380.8 1844.5 2385.8 1802.06 2386.11 1759.43C2386.53 1747.11 2386.67 1734.85 2386.44 1722.73C2386.34 1717.58 2385.45 1712.49 2383.8 1707.66C2378.52 1692.02 2371.75 1677.03 2363.61 1662.92C2342.83 1626.38 2327.06 1586.74 2316.8 1545.25C2309.88 1517.6 2305.7 1489.23 2304.32 1460.61C2304.29 1459.84 2304.43 1459.07 2304.74 1458.38C2305.04 1457.69 2305.5 1457.09 2306.08 1456.64C2330.2 1438.3 2351.16 1415.48 2368 1389.23C2389.85 1355.16 2403.08 1315.42 2406.35 1274.03C2409.46 1232.65 2405.6 1191.01 2394.98 1151.13C2384.71 1111.41 2366.89 1074.47 2342.68 1042.71C2319.14 1011.43 2291.04 984.562 2259.5 963.194L2184.08 914.891C2170.22 909.01 2156.64 903.229 2142.87 897.399C2106.73 882 2069.68 869.287 2031.96 859.349L2029.65 858.745C2008.3 856.132 1986.4 853.719 1964.73 851.558C1930.95 847.738 1896.57 845.375 1862.56 844.571C1828.55 843.767 1794.17 844.571 1759.97 846.381C1725.78 848.19 1690.43 851.859 1656.05 857.288C1621.67 862.716 1587.1 870.306 1553.05 879.354C1518.99 888.401 1485.16 899.459 1451.89 911.623C1436.52 918.191 1420.85 923.895 1404.94 928.713C1367.34 939.958 1327.99 942.543 1289.42 936.303C1250.97 930.354 1214.15 915.456 1181.47 892.624L1181.01 892.221L1122.74 838.188C1122.32 837.742 1121.92 837.272 1121.54 836.78C1103.46 814.93 1087.69 790.937 1074.54 765.254C1055.09 727.686 1042.01 686.621 1035.91 644.017L1030.28 589.581C1030.25 589.398 1030.25 589.212 1030.28 589.029C1030.92 546.108 1035.99 503.401 1045.39 461.71C1047.37 452.511 1049.55 443.162 1051.76 433.964V432.908C1051.92 432.106 1052.23 431.351 1052.69 430.697V430.697C1052.72 429.988 1052.91 429.299 1053.24 428.686C1053.28 428.375 1053.36 428.07 1053.47 427.781C1066.13 393.1 1081.59 359.71 1099.68 328.007C1120.21 292.295 1144.27 259.14 1171.45 229.138L1177.18 223.157C1177.43 222.907 1177.69 222.672 1177.96 222.453C1209.36 201.388 1239.15 177.621 1267.05 151.379C1294.56 125.455 1320.13 97.2017 1343.53 66.8856C1367 36.2899 1387.95 3.50873 1406.14 -31.0791C1425.29 -67.3699 1439.55 -106.452 1448.52 -147.139C1457.44 -187.977 1461.19 -229.951 1459.66 -271.894C1458.09 -312.43 1450.28 -352.392 1436.55 -390.115C1423.75 -425.87 1405.57 -459.062 1382.76 -488.331C1379.76 -492.001 1376.71 -495.77 1373.52 -499.44C1344.38 -524.485 1311.83 -544.429 1277.04 -558.55C1240.56 -573.14 1201.84 -579.966 1162.99 -578.656C1137.61 -577.784 1112.35 -574.419 1087.53 -568.603C1086.45 -568.347 1085.32 -568.561 1084.39 -569.201C1083.46 -569.84 1082.79 -570.853 1082.54 -572.021C1082.31 -573.221 1082.52 -574.472 1083.14 -575.499C1083.75 -576.527 1084.72 -577.246 1085.82 -577.5C1111.13 -583.45 1136.88 -586.916 1162.76 -587.854C1202.69 -589.133 1242.47 -582.068 1279.95 -567.045C1313.04 -553.546 1344.16 -534.924 1372.37 -511.754C1372.37 -513.514 1372.37 -515.172 1372.37 -516.781C1372.09 -550.246 1368.41 -583.574 1361.37 -616.153C1357.56 -632.851 1352.75 -649.256 1346.95 -665.261C1333.41 -703.555 1316.61 -740.391 1296.77 -775.289C1277.73 -808.752 1256.8 -840.898 1234.11 -871.544C1211.26 -902.269 1186.71 -931.444 1160.59 -958.903C1134.66 -986.622 1106.47 -1011.71 1076.35 -1033.85C1046.71 -1055.85 1015.32 -1074.91 982.541 -1090.8C948.917 -1107.04 913.948 -1119.76 878.108 -1128.8C841.029 -1137.99 802.974 -1141.66 764.986 -1139.7C725.623 -1137.46 686.74 -1129.26 649.462 -1115.33C616.65 -1103.1 585.549 -1086 557.043 -1064.51C525.602 -1040.92 499.383 -1010.01 480.289 -974.033C462.946 -941.589 450.717 -906.217 444.107 -869.383C473.588 -880.29 503.856 -889.941 534.123 -898.034C572.274 -908.101 610.965 -915.571 649.971 -920.401C685.885 -924.865 722.135 -925.135 758.101 -921.205C796.204 -916.583 832.837 -902.573 865.215 -880.24C898.88 -858.384 927.88 -828.981 950.287 -793.987C950.605 -793.5 950.831 -792.948 950.953 -792.365C951.074 -791.782 951.088 -791.179 950.993 -790.59C950.899 -790.001 950.698 -789.438 950.402 -788.934C950.106 -788.43 949.722 -787.995 949.27 -787.654C948.35 -786.978 947.225 -786.715 946.131 -786.922C945.037 -787.128 944.059 -787.786 943.402 -788.76C921.64 -822.702 893.512 -851.243 860.871 -872.5C829.525 -894.116 794.063 -907.679 757.177 -912.158C721.827 -916.062 686.192 -915.793 650.895 -911.354C612.25 -906.542 573.916 -899.139 536.11 -889.187C503.763 -880.492 471.417 -870.137 440.179 -858.275H439.809C405.282 -847.921 371.603 -834.471 339.118 -818.064C307.131 -801.902 276.58 -782.57 247.854 -760.31C219.352 -738.396 192.581 -713.933 167.819 -687.176C144.46 -661.875 122.59 -634.997 102.34 -606.703L77.8492 -565.034C77.6948 -564.743 77.5086 -564.473 77.2947 -564.23L56.7314 -522.058C40.5889 -483.189 28.3944 -442.519 20.3644 -400.771C13.2078 -363.407 9.33957 -325.387 8.81201 -287.225V-285.315C9.5567 -246.44 13.1883 -207.694 19.6713 -169.456C26.4221 -131.679 36.3687 -94.6609 49.3841 -58.8752C63.5855 -19.2643 81.5833 18.6092 103.08 54.1184C116.831 76.8541 132.469 98.1715 149.798 117.803L230.387 199.532L263.15 227.58C263.61 227.949 263.996 228.417 264.282 228.955C264.569 229.493 264.751 230.09 264.816 230.708C264.881 231.326 264.828 231.952 264.66 232.546C264.493 233.141 264.215 233.692 263.843 234.164C263.146 235.093 262.144 235.691 261.049 235.832C259.954 235.972 258.851 235.645 257.974 234.918L228.862 210.088C211.158 242.673 195.905 276.763 183.253 312.023C180.065 321.071 176.876 330.169 173.642 339.116V340.171C171.94 382.871 179.873 425.374 196.747 463.972C212.804 501.328 237.778 533.318 269.065 556.608C300.632 580.506 334.774 600.104 370.726 614.965C404.829 629.19 439.624 642.409 474.235 654.121C509.794 665.861 544.5 680.462 578.068 697.8C611.798 714.873 644.502 734.247 675.987 755.805C680.608 758.971 684.859 761.987 689.341 765.003C689.444 765.131 689.57 765.233 689.711 765.305C719.185 790.065 747.111 816.932 773.304 845.727C794.161 868.744 813.787 893.045 832.083 918.51C854.32 951.894 873.525 987.548 889.429 1024.97C905.244 1061.65 917.404 1100.07 925.704 1139.57C934.18 1179.95 939.238 1221.09 940.814 1262.47C942.438 1303.21 941.635 1344.03 938.411 1384.66C937.857 1392.6 937.071 1400.59 936.193 1408.53L965.49 1339.57C965.718 1339.03 966.042 1338.55 966.443 1338.15C966.844 1337.75 967.314 1337.44 967.825 1337.24C968.336 1337.04 968.879 1336.95 969.422 1336.98C969.965 1337.01 970.498 1337.16 970.989 1337.41C971.492 1337.65 971.946 1338 972.323 1338.44C972.701 1338.88 972.995 1339.39 973.188 1339.95C973.382 1340.51 973.471 1341.11 973.45 1341.71C973.43 1342.31 973.3 1342.9 973.068 1343.44L932.127 1439.75C919.015 1479.85 914.049 1522.57 917.571 1564.96C920.586 1602.57 932.025 1638.81 950.888 1670.51C971.539 1705.95 998.198 1736.79 1029.44 1761.39C1060.47 1786.07 1096.24 1802.76 1134.06 1810.19C1152.36 1813.74 1170.94 1815.17 1189.51 1814.47C1229.08 1813.52 1268.18 1805.01 1305.04 1789.33C1340.85 1773.97 1373.82 1751.7 1402.36 1723.59C1430.12 1696.62 1454.93 1666.26 1476.29 1633.11C1497.11 1600.51 1515.21 1565.94 1530.36 1529.82C1545.67 1493.16 1557.21 1454.78 1564.78 1415.37C1572.9 1373.08 1594.1 1335.09 1624.86 1307.75C1636.11 1297.83 1648.72 1289.87 1662.24 1284.18C1662.6 1284 1663 1283.92 1663.39 1283.93C1703.74 1280.3 1744.29 1287.19 1781.69 1304.03C1799.77 1311.84 1816.93 1321.96 1832.8 1334.19C1833.03 1334.31 1833.24 1334.48 1833.4 1334.7C1861.79 1365.69 1885.85 1401.05 1904.79 1439.65C1922.89 1476.18 1935.91 1515.43 1943.42 1556.11C1947.35 1576.58 1950.01 1597.32 1951.37 1618.19V1618.84C1951.55 1619.6 1951.55 1620.39 1951.37 1621.15L1940.33 1789.49C1940.33 1789.49 1940.33 1789.74 1940.33 1789.84C1935.11 1832.19 1922.98 1873.2 1904.52 1910.92C1889.48 1941.78 1870.15 1969.92 1847.22 1994.36C1846.66 1994.96 1845.97 1995.37 1845.21 1995.57C1844.45 1995.76 1843.66 1995.73 1842.92 1995.47C1791.59 1975.78 1738.54 1961.87 1684.6 1953.95C1610.03 1942.34 1534.26 1943.22 1459.93 1956.56C1433.76 1961.03 1407.96 1967.75 1382.76 1976.67C1356.93 1985.89 1331.9 1997.56 1307.95 2011.55C1264.86 2036.6 1224.65 2067.12 1188.17 2102.48L1172.65 2117.56C1143.55 2146.17 1118.63 2179.42 1098.71 2216.18C1079.11 2251.97 1065.06 2291.03 1057.12 2331.78C1053.89 2347.85 1051.73 2364.14 1050.65 2380.54C1049.44 2423.1 1055.28 2465.54 1067.89 2505.85C1079.88 2544.7 1098.71 2580.64 1123.34 2611.65C1148.88 2644.19 1179.3 2671.79 1213.31 2693.28C1247.08 2714.77 1284.89 2727.66 1323.89 2730.98C1360.65 2734.27 1397.65 2730.33 1433.13 2719.37L1437.75 2718.06C1388.41 2684.96 1331.54 2667.55 1273.57 2667.8C1273.02 2667.81 1272.47 2667.69 1271.96 2667.47C1271.44 2667.25 1270.98 2666.92 1270.58 2666.5C1270.19 2666.08 1269.87 2665.57 1269.66 2665.02C1269.44 2664.47 1269.32 2663.88 1269.32 2663.28C1269.33 2662.06 1269.78 2660.9 1270.56 2660.04C1271.35 2659.17 1272.41 2658.68 1273.52 2658.65C1336.17 2658.45 1397.49 2678.33 1449.81 2715.8L1528.37 2773.66L1528.92 2774.16C1557.42 2803.86 1580.55 2839.1 1597.13 2878.05C1613.33 2916.25 1622.43 2957.56 1623.88 2999.59C1624.61 3016.79 1624.31 3034.01 1623.01 3051.16C1623.01 3051.16 1623.01 3051.16 1623.01 3051.47C1616.45 3094.65 1598.83 3134.94 1572.18 3167.73C1567.77 3173.02 1563.4 3178.38 1559.05 3183.81C1533.91 3212.01 1506.12 3237.28 1476.15 3259.21C1443.43 3283.17 1408.76 3303.84 1372.6 3320.98C1364.14 3324.9 1355.55 3328.97 1347.09 3333.3C1312.28 3353.31 1281.28 3380.33 1255.73 3412.91C1232.81 3442.33 1215.67 3476.54 1205.36 3513.44C1194.28 3554.03 1188.52 3596.11 1188.27 3638.45C1187.91 3680.74 1191.25 3722.96 1198.25 3764.56C1205.21 3805.91 1215.89 3846.42 1230.13 3885.5C1244 3923.54 1262.67 3959.3 1285.58 3991.75C1309.04 4025.13 1337.45 4054.01 1369.64 4077.2C1402.18 4100.66 1437.12 4119.9 1473.75 4134.56C1507.85 4148.03 1543.06 4159.94 1577.95 4169.99C1612.96 4179.9 1648.44 4187.68 1684.23 4193.31C1716.59 4198.55 1749.19 4201.9 1781.88 4203.37L1984.32 4210H1984.55C2022.98 4213.5 2060.53 4224.39 2095.45 4242.17C2131.41 4260.07 2163.21 4286.54 2188.47 4319.63C2214.35 4352.97 2234.19 4391.35 2246.93 4432.72V4433.02C2256.88 4475.6 2260.25 4519.68 2256.91 4563.46C2253.71 4602.82 2245.48 4641.51 2232.47 4678.41C2220.35 4717.71 2203.46 4755.07 2182.24 4789.5C2179.23 4794.22 2176.32 4799.1 2173.46 4803.92C2173.3 4804.11 2173.16 4804.31 2173.04 4804.52C2149.94 4832.87 2126.14 4861.73 2102.2 4889.97C2078.12 4918.53 2056.47 4949.4 2037.51 4982.21C2018.14 5015.59 2001.41 5050.7 1987.51 5087.16C1973.25 5124.34 1962.41 5162.96 1955.16 5202.47C1950.1 5230.22 1946.79 5258.31 1945.27 5286.56C1942.83 5367.25 1964.24 5446.67 2006.36 5513.15C2034.07 5544.43 2058.84 5578.64 2080.3 5615.28C2099.32 5647.83 2115.4 5682.3 2128.31 5718.23C2140.75 5752.57 2151.27 5787.7 2159.82 5823.43C2163.61 5839.11 2167.54 5855.24 2171.52 5871.28C2180.44 5912.45 2186.78 5954.23 2190.51 5996.34C2193.28 6029.61 2194.57 6063.39 2194.44 6096.86C2195.96 6122.65 2197.53 6148.69 2199.06 6174.52C2201.46 6213.38 2204.09 6252.78 2206.82 6291.69C2209.41 6324.96 2211.95 6358.25 2214.44 6391.56C2217.4 6430.17 2219.34 6469.42 2220.27 6508.12C2220.77 6533.61 2220.82 6559.7 2220.27 6585.68L2215.14 6809.71L2203.4 7366.63L2200.53 7434.44V7438.21C2200.53 7460.48 2199.56 7483.1 2198.41 7505.82C2197.25 7528.54 2196.19 7550.35 2195.41 7570.91C2194.62 7591.47 2193.93 7611.92 2193.37 7630.92C2192.79 7650.25 2191.09 7669.53 2188.29 7688.63V7688.63C2185.66 7701.84 2186.8 7715.6 2191.57 7728.08L2191.52 7728.18ZM2186.39 7735.82C2185.43 7734.63 2184.61 7733.32 2183.95 7731.9V7731.9C2178.46 7717.76 2177.14 7702.11 2180.16 7687.12C2182.86 7668.4 2184.52 7649.51 2185.1 7630.57C2185.7 7611.62 2186.39 7591.42 2187.18 7570.61C2187.97 7549.8 2188.89 7527.93 2190.14 7505.26C2191.39 7482.59 2191.99 7460.03 2192.26 7438.11V7434.44C2192.24 7434.33 2192.24 7434.21 2192.26 7434.09L2195.08 7366.33L2207.14 6809.81L2212.36 6585.73C2212.73 6559.9 2212.64 6533.96 2212.36 6508.63C2211.44 6470.08 2209.5 6431.07 2206.59 6392.57C2204.06 6359.29 2201.52 6325.98 2198.96 6292.64C2196.19 6253.74 2193.56 6214.23 2191.15 6175.38C2189.44 6149.59 2187.87 6123.35 2186.53 6097.57C2186.53 6097.57 2186.53 6097.57 2186.53 6097.27C2186.53 6064.04 2185.38 6030.47 2182.65 5997.44C2178.98 5955.84 2172.7 5914.56 2163.84 5873.89C2159.92 5857.86 2155.94 5841.72 2152.15 5825.94C2143.66 5790.6 2133.25 5755.84 2120.96 5721.84C2108.27 5686.47 2092.44 5652.54 2073.69 5620.51C2052.52 5584.25 2028.03 5550.42 2000.59 5519.53L2000.12 5518.93C1956.89 5450.73 1934.91 5369.25 1937.42 5286.46C1938.95 5257.76 1942.3 5229.21 1947.44 5201.01C1954.76 5160.91 1965.75 5121.71 1980.25 5083.99C1994.3 5047.05 2011.23 5011.49 2030.85 4977.68C2050.13 4944.41 2072.13 4913.09 2096.56 4884.09C2120.41 4855.84 2144.11 4827.14 2167.13 4798.64C2170.04 4793.62 2172.9 4788.99 2175.86 4784.32C2196.7 4750.54 2213.28 4713.87 2225.16 4675.3C2237.91 4639.14 2245.97 4601.23 2249.1 4562.65C2252.4 4519.94 2249.12 4476.93 2239.4 4435.39C2227.1 4394.95 2207.86 4357.43 2182.7 4324.8C2158.06 4292.85 2127.1 4267.37 2092.13 4250.26C2058.17 4232.9 2021.62 4222.28 1984.23 4218.9L1781.97 4212.26C1748.95 4210.76 1716.02 4207.4 1683.31 4202.21C1647.19 4196.52 1611.38 4188.65 1576.06 4178.64C1540.8 4168.58 1505.5 4156.47 1471.07 4142.95C1433.81 4127.98 1398.28 4108.33 1365.2 4084.39C1332.24 4060.76 1303.17 4031.26 1279.21 3997.13C1255.73 3964.06 1236.62 3927.59 1222.42 3888.76C1207.96 3849.14 1197.12 3808.06 1190.07 3766.12C1183.01 3723.95 1179.61 3681.16 1179.9 3638.3C1180.19 3595.09 1186.07 3552.15 1197.37 3510.73C1208.01 3472.64 1225.72 3437.33 1249.4 3406.98C1275.6 3373.63 1307.35 3345.95 1342.98 3325.4H1343.21C1351.76 3321.03 1360.54 3316.86 1369.08 3312.99C1404.78 3296.05 1438.98 3275.61 1471.25 3251.92C1500.71 3230.44 1527.99 3205.62 1552.63 3177.88C1556.88 3172.55 1561.27 3167.27 1565.66 3161.9C1591.31 3130.52 1608.3 3091.91 1614.69 3050.51C1615.94 3033.79 1616.21 3017 1615.52 3000.25C1614.1 2959.36 1605.27 2919.19 1589.55 2882.02C1573.5 2844.36 1551.16 2810.27 1523.66 2781.5L1446.95 2725.05L1435.3 2728.57C1398.84 2739.8 1360.83 2743.84 1323.06 2740.48C1282.8 2737.05 1243.77 2723.73 1208.92 2701.53C1174.13 2679.52 1142.99 2651.3 1116.83 2618.04C1091.53 2586.12 1072.2 2549.14 1059.94 2509.17C1046.95 2467.79 1040.95 2424.19 1042.24 2380.49C1043.32 2363.58 1045.54 2346.78 1048.9 2330.23C1056.98 2288.5 1071.33 2248.51 1091.37 2211.85C1111.75 2174.35 1137.27 2140.46 1167.06 2111.33C1172.19 2106.3 1177.41 2101.27 1182.63 2096.25C1219.57 2060.25 1260.29 2029.1 1303.93 2003.46C1328.32 1989.29 1353.82 1977.52 1380.13 1968.27C1405.77 1959.13 1432.04 1952.22 1458.69 1947.62C1484.82 1942.95 1511.17 1939.78 1537.61 1938.12C1587.14 1935.18 1636.82 1937.48 1685.94 1945C1739.57 1952.89 1792.33 1966.63 1843.43 1986.02C1865.06 1962.64 1883.34 1935.87 1897.68 1906.6C1915.63 1869.83 1927.44 1829.89 1932.57 1788.63L1943.61 1620.9V1620.25C1943.56 1619.91 1943.56 1619.57 1943.61 1619.24C1942.32 1598.59 1939.69 1578.07 1935.75 1557.82C1928.39 1518.03 1915.65 1479.65 1897.95 1443.92C1879.43 1406.23 1855.94 1371.68 1828.22 1341.38C1812.94 1329.66 1796.46 1319.91 1779.1 1312.33C1743.06 1296.15 1704.01 1289.5 1665.15 1292.93C1652.45 1298.17 1640.6 1305.57 1630.03 1314.84C1600.75 1340.86 1580.6 1377.05 1572.96 1417.33C1565.09 1457.2 1553.23 1496.02 1537.61 1533.09C1522.27 1569.74 1503.93 1604.82 1482.81 1637.89C1461.04 1671.6 1435.8 1702.5 1407.58 1729.97C1378.35 1758.77 1344.58 1781.61 1307.9 1797.38C1270.16 1813.44 1230.12 1822.18 1189.61 1823.21C1170.42 1823.9 1151.21 1822.4 1132.31 1818.74C1093.26 1811.09 1056.32 1793.9 1024.27 1768.47C992.176 1743.19 964.796 1711.5 943.587 1675.08C924.042 1642.15 912.222 1604.51 909.16 1565.46C905.535 1521.85 910.61 1477.91 924.04 1436.63C926.582 1419.04 928.661 1401.15 930.001 1383.55C933.164 1343.3 933.951 1302.88 932.358 1262.52C930.789 1221.69 925.793 1181.11 917.432 1141.28C909.192 1102.34 897.124 1064.47 881.435 1028.34C865.811 991.471 846.914 956.354 825.013 923.486C806.979 898.325 787.599 874.341 766.973 851.658C741.118 823.215 713.53 796.699 684.397 772.291L671.135 763.143C639.934 741.771 607.523 722.565 574.094 705.641C540.88 688.47 506.527 674.037 471.324 662.464C436.575 650.652 401.594 637.332 367.353 623.007C330.806 607.898 296.104 587.961 264.028 563.645C231.639 539.499 205.777 506.37 189.122 467.691C171.643 427.697 163.425 383.659 165.185 339.417V338.563C165.167 338.245 165.167 337.926 165.185 337.608L165.463 336.452C165.447 336.251 165.447 336.049 165.463 335.849C168.744 326.801 171.932 317.653 175.167 308.505C188.306 272.359 204.083 237.415 222.347 204.006L144.068 124.438C126.22 104.268 110.089 82.3803 95.871 59.0444C74.135 23.0512 55.9363 -15.3267 41.5746 -55.4572C28.3695 -91.8653 18.2838 -129.522 11.446 -167.948C4.78848 -206.79 1.09453 -246.163 0.401855 -285.667V-287.727C0.904369 -326.483 4.8349 -365.097 12.1391 -403.033C20.3202 -445.451 32.7155 -486.776 49.1068 -526.281V-526.281L70.0398 -569.256C70.3061 -569.712 70.5994 -570.149 70.9178 -570.563L95.2702 -611.679C95.3738 -611.752 95.4545 -611.857 95.5013 -611.981C115.937 -640.743 138.056 -668.043 161.72 -693.71C186.798 -720.828 213.909 -745.627 242.771 -767.85C271.866 -790.404 302.802 -810.005 335.191 -826.407C367.279 -842.728 400.537 -856.176 434.634 -866.619C441.243 -906.208 454.077 -944.263 472.572 -979.11C492.401 -1016.36 519.616 -1048.33 552.237 -1072.7C581.34 -1094.67 613.114 -1112.13 646.644 -1124.57C684.703 -1138.87 724.41 -1147.33 764.617 -1149.71C803.413 -1151.62 842.269 -1147.85 880.141 -1138.5C916.499 -1129.34 951.965 -1116.42 986.053 -1099.89C1019.28 -1083.8 1051.11 -1064.48 1081.15 -1042.19C1111.7 -1019.76 1140.28 -994.315 1166.55 -966.192C1192.95 -938.528 1217.73 -909.1 1240.76 -878.079C1263.68 -847.108 1284.83 -814.625 1304.07 -780.818C1324.15 -745.484 1341.17 -708.195 1354.9 -669.433C1360.79 -653.038 1365.72 -636.249 1369.64 -619.169C1376.89 -585.893 1380.65 -551.832 1380.87 -517.635C1380.87 -513.363 1380.87 -509.04 1380.87 -504.918C1383.73 -501.568 1386.55 -498.217 1389.32 -494.866C1412.8 -464.816 1431.54 -430.745 1444.78 -394.036C1458.79 -355.357 1466.72 -314.39 1468.25 -272.849C1469.84 -230.041 1466 -187.199 1456.84 -145.53C1447.75 -103.991 1433.22 -64.0901 1413.68 -27.058C1395.2 7.99767 1373.92 41.2164 1350.09 72.2135C1326.41 102.845 1300.56 131.416 1272.78 157.662C1244.6 184.038 1214.58 208.002 1183 229.339L1177.18 235.773C1150.66 265.214 1127.17 297.709 1107.12 332.682C1089.32 363.888 1074.1 396.756 1061.65 430.898V431.451C1061.57 432.422 1061.24 433.348 1060.68 434.115C1060.66 434.247 1060.66 434.384 1060.68 434.517L1060.45 435.773C1060.45 435.773 1060.45 435.773 1060.45 436.125C1058.28 445.273 1055.83 454.622 1054.12 463.921C1044.66 504.812 1039.44 546.724 1038.55 588.878L1044.19 642.861C1050.16 684.324 1062.9 724.292 1081.8 760.881C1094.82 786.171 1110.43 809.778 1128.33 831.251L1186.42 885.134C1217.94 907.21 1253.46 921.629 1290.57 927.406C1328.06 933.525 1366.31 931.042 1402.86 920.118C1418.53 915.372 1433.95 909.735 1449.07 903.229C1482.71 890.814 1517 879.907 1551.1 870.708C1585.21 861.51 1620.42 854.021 1654.94 848.441C1689.46 842.862 1724.71 839.243 1759.42 837.333C1794.12 835.423 1828.36 834.87 1862.51 835.524C1896.66 836.177 1931.41 838.74 1965.42 842.56C1987.18 844.772 2009.13 847.185 2030.67 849.748C2030.84 849.771 2031.01 849.771 2031.18 849.748L2033.72 850.351C2071.78 860.441 2109.18 873.27 2145.68 888.753L2187.27 906.446H2187.87L2263.61 955.051C2295.99 976.955 2324.85 1004.48 2349.05 1036.53C2374.11 1069.46 2392.5 1107.78 2403.03 1148.97C2413.92 1189.92 2417.87 1232.69 2414.67 1275.18C2411.28 1318.16 2397.56 1359.42 2374.88 1394.81C2357.96 1421.25 2336.94 1444.29 2312.78 1462.92C2314.43 1490 2318.6 1516.82 2325.21 1542.99C2335.29 1583.63 2350.76 1622.46 2371.14 1658.25C2379.56 1672.9 2386.56 1688.46 2392.03 1704.69C2394 1710.45 2395.07 1716.54 2395.17 1722.68C2395.17 1734.95 2395.17 1747.41 2394.85 1759.68C2394.52 1802.91 2389.45 1845.93 2379.74 1887.85C2370.05 1929.22 2355.77 1969.16 2337.22 2006.78C2329.71 2021.91 2321.31 2036.5 2312.08 2050.46C2290.4 2083.44 2266.48 2114.61 2240.51 2143.7C2214.63 2172.57 2186.93 2199.44 2157.61 2224.12C2137.78 2240.93 2117.11 2256.52 2095.69 2270.81C2118.05 2263.94 2140.92 2259.17 2164.03 2256.54C2203.99 2251.89 2244.37 2254.3 2283.62 2263.68C2321.7 2272.69 2358.37 2287.68 2392.49 2308.16C2426.8 2329.09 2456.71 2357.59 2480.29 2391.85C2504.27 2426.38 2521.57 2465.85 2531.12 2507.86C2541.16 2551 2540.72 2596.25 2529.82 2639.15C2519.55 2680.87 2497.35 2717.96 2466.42 2745.06C2439.62 2768.97 2411.3 2790.81 2381.68 2810.4C2349.15 2830.63 2319.82 2856.41 2294.8 2886.75C2282.5 2901.68 2271.48 2917.82 2261.9 2934.95C2266.73 2947.93 2273.68 2959.85 2282.42 2970.14C2303.76 2994.94 2332.63 3010.51 2363.7 3013.97C2388.16 3017.18 2412.95 3015.72 2436.94 3009.65C2437.46 3009.52 2438 3009.52 2438.51 3009.65C2478.46 3016.32 2516.42 3033.02 2549.42 3058.4C2581.3 3082.6 2606.71 3115.55 2623.08 3153.9C2640.06 3193.18 2650.43 3235.45 2653.71 3278.71C2657.2 3321.52 2650.35 3364.57 2633.84 3403.62C2617.97 3441.24 2594.9 3474.76 2566.19 3501.93C2536.37 3530.32 2502.86 3553.76 2466.75 3571.5C2455.94 3576.52 2444.85 3581.55 2433.57 3585.67C2468.55 3599.07 2502.26 3616.12 2534.21 3636.59C2545.26 3644.23 2556.16 3651.92 2567.21 3659.66L2567.72 3660.11C2595.44 3687.63 2619.35 3719.38 2638.69 3754.36C2659.3 3791.14 2673.8 3831.59 2681.53 3873.84C2689.1 3914.44 2691.93 3955.91 2689.94 3997.28C2688.27 4035.61 2683.18 4073.67 2674.74 4110.93C2665.69 4151.25 2652.16 4190.23 2634.44 4226.99C2619.79 4257.32 2608.02 4289.2 2599.32 4322.14C2592.16 4360.18 2588.56 4398.92 2588.56 4437.75C2588.34 4472.06 2590.9 4506.32 2596.23 4540.14C2602.51 4579.73 2614.68 4617.95 2632.27 4653.28C2650.73 4690.55 2675.58 4723.63 2705.47 4750.74C2728.57 4770.85 2751.68 4791.2 2775.06 4811.71C2775.06 4811.71 2775.06 4811.71 2775.06 4811.96C2777.54 4814.51 2779.61 4817.5 2781.16 4820.81C2797.06 4855.78 2806.72 4893.71 2809.62 4932.6C2816.07 5019.01 2799.76 5105.62 2762.58 5182.31C2744.94 5218.93 2723.09 5252.96 2697.57 5283.59C2693.41 5288.62 2689.29 5293.64 2685.14 5298.37C2660.16 5330.6 2631.15 5358.85 2598.95 5382.31C2590.68 5388.29 2582.41 5394.27 2574.14 5400.36L2552.01 5463.44C2552.01 5463.69 2552.01 5463.89 2551.68 5464.14C2551.66 5464.36 2551.66 5464.58 2551.68 5464.79C2540.13 5501.18 2529.69 5538.38 2520.58 5575.37C2511.48 5612.37 2503.53 5649.61 2497.15 5687.16C2490.92 5723.2 2485.6 5759.94 2481.3 5796.18C2480.06 5807.39 2478.81 5818.45 2477.61 5829.61L2456.21 6042.78L2379.64 6587.54L2351.41 6797.65L2275.86 7370.66C2275.86 7370.96 2275.86 7371.31 2275.63 7371.56L2260.61 7487.72C2260.65 7487.97 2260.65 7488.23 2260.61 7488.47C2260.68 7489.01 2260.68 7489.55 2260.61 7490.08C2258.76 7502.15 2257 7514.51 2255.29 7526.88C2252.24 7548.64 2249.33 7570.81 2246.61 7592.87C2243.88 7614.94 2241.57 7636.85 2239.67 7658.57C2237.67 7681.4 2232.71 7703.8 2224.93 7725.12C2223.72 7728.66 2221.74 7731.83 2219.16 7734.37C2215.44 7738.48 2210.6 7741.16 2205.36 7742.02C2200.12 7742.89 2194.76 7741.87 2190.09 7739.14C2190.03 7739.11 2189.97 7739.1 2189.91 7739.1C2189.84 7739.1 2189.78 7739.11 2189.72 7739.14C2188.52 7738.3 2187.43 7737.29 2186.49 7736.13" fill="white"/>
</g>
<g style="mix-blend-mode:soft-light" opacity="0.58">
<path d="M1137.71 -456.463C1137.02 -463.751 1136.1 -470.688 1134.99 -477.122C1133.73 -483.69 1132.11 -490.169 1130.14 -496.524C1128.25 -502.648 1125.92 -508.598 1123.16 -514.317L1122.93 -514.82V-515.172L1121.26 -518.539L1114.42 -529.849V-530.15C1111.18 -534.848 1107.6 -539.252 1103.7 -543.32L1102.32 -544.827L1097.7 -548.949C1096.54 -550.055 1094.51 -551.714 1091.83 -553.975C1091.09 -554.478 1090.58 -554.931 1090.26 -555.182L1085.64 -558.248C1084.63 -558.978 1083.58 -559.633 1082.49 -560.208L1081.8 -560.711L1079.49 -562.068C1074.87 -564.531 1070.99 -566.491 1067.52 -567.949L1063.87 -569.256L1063.22 -569.658L1042.34 -575.69H1041.74L1033.56 -577.248L1002.37 -579.51V-579.208H1002.6L1018.31 -577.65L1041.41 -573.126H1041.88L1060.68 -566.743L1074.55 -559.806L1076.02 -558.952L1076.72 -558.449L1077.46 -558.097L1078.84 -557.142L1079.58 -556.69L1086.01 -552.166L1086.28 -551.864L1087.3 -551.11C1087.75 -550.663 1088.24 -550.275 1088.78 -549.954L1097.56 -541.711L1099.45 -539.449C1103.03 -535.558 1106.25 -531.299 1109.06 -526.732L1109.39 -526.381L1114.84 -516.68V-516.177L1115.07 -515.725C1115.43 -515.09 1115.75 -514.436 1116.04 -513.764L1116.73 -512.256V-511.703C1119.13 -506.238 1121.17 -500.594 1122.83 -494.815C1124.48 -488.679 1125.84 -482.455 1126.9 -476.167C1127.78 -470.085 1128.52 -463.55 1128.93 -456.564C1129.35 -449.577 1129.4 -442.49 1129.26 -435.905C1129.12 -429.321 1128.61 -421.53 1128.1 -414.593C1127.59 -407.657 1126.53 -400.067 1125.51 -392.829L1121.26 -367.697V-366.943L1111.47 -325.123C1110.17 -320.097 1108 -312.457 1105 -302.253L1087.99 -250.079L1063.92 -185.54C1058.77 -172.806 1052.27 -157.392 1044.42 -139.297C1031.48 -109.641 1017.52 -79.3822 1002.55 -48.5201C990.228 -22.7178 975.842 6.16723 959.391 38.1352L831.252 273.773L796.779 334.693C796.779 334.693 796.779 334.693 796.779 334.995L889.753 185.359L969.234 44.2171C985.284 14.0587 1000.02 -14.7259 1013.46 -42.1365C1028.86 -73.7694 1042.97 -104.213 1055.78 -133.466C1063.09 -150.221 1069.62 -165.803 1075.38 -180.212C1081.82 -195.961 1087.82 -211.627 1093.4 -227.209L1116.5 -297.88L1122.79 -321.303C1124.08 -326.531 1125.88 -334.271 1128.19 -344.525C1129.95 -353.02 1131.48 -360.66 1132.82 -367.647C1133.83 -373.578 1134.99 -381.117 1136.24 -390.517C1137.48 -399.916 1137.94 -406.953 1138.31 -413.035C1138.87 -421.479 1139.05 -428.868 1139.05 -435.051C1139.05 -443.462 1138.78 -450.599 1138.22 -456.463" fill="white"/>
</g>
<g style="mix-blend-mode:soft-light" opacity="0.58">
<path d="M831.899 834.871L799.783 788.025L763.832 744.948L748.999 729.316L748.306 728.612L747.705 727.959L724.97 706.044L691.145 676.84L689.804 675.785L687.032 673.624C685.83 672.669 684.953 671.864 684.352 671.512C683.926 671.1 683.478 670.714 683.012 670.356L625.25 629.542L586.942 606.521L544.66 584.505C544.66 584.505 544.383 584.505 544.429 584.505C544.475 584.505 544.429 584.505 544.429 584.505L546.046 585.561C547.539 586.588 549.082 587.528 550.667 588.376C551.268 588.878 552.423 589.532 554.087 590.638L576.129 604.712C576.722 604.964 577.282 605.302 577.792 605.717L614.76 630.849L675.711 677.695L677.051 678.801L731.486 729.065L739.434 737.308L740.173 737.911L755.099 754.197C762.677 762.742 769.47 770.683 775.431 778.123L787.122 792.749L812.953 829.04L829.912 855.881C835.781 865.934 840.864 875.032 845.069 883.124L858.932 910.568C863.275 920.068 867.249 929.116 870.9 937.862L871.87 940.325V940.827V941.33L880.65 964.602C886.242 980.033 891.51 996.821 896.408 1014.87L902.415 1038.24V1038.99L908.561 1067.95L915.723 1111.42V1112.58L917.063 1122.63C917.063 1122.88 917.063 1122.93 917.341 1122.63C917.618 1122.33 917.341 1122.63 917.341 1122.63L915.446 1092.47C914.291 1079.96 912.905 1068.4 911.38 1057.79L908.191 1037.69V1037.03V1036.28L904.079 1016.17C903.912 1015.12 903.68 1014.08 903.385 1013.06L899.042 994.359L881.436 937.007V936.505V936.002L881.066 935.298L877.924 926.904V926.502L862.721 891.317L848.442 863.069L848.026 862.064L847.518 861.31L831.899 834.871Z" fill="white"/>
</g>
<g style="mix-blend-mode:soft-light" opacity="0.58">
<path d="M990.444 437.784C990.444 437.784 990.444 437.533 990.444 437.784C990.444 438.036 990.213 437.784 990.444 437.784L977.321 471.411L976.858 472.919L976.581 473.622L968.679 503.127L964.058 531.426V531.929V532.331L963.735 536.302C963.458 538.363 963.273 540.021 963.227 541.328L962.487 551.381C962.118 558.77 962.025 565.857 962.487 572.693L963.92 594.96C964.705 602.097 965.861 609.738 967.385 617.78L976.258 652.01L989.381 685.385C992.708 692.321 996.328 699.358 1000.24 706.496L1012.35 726.602C1016.51 732.784 1020.94 739.017 1025.47 745.199L1032.22 754.096L1060.41 785.963C1062.53 788.225 1065.03 790.487 1067.43 792.95L1068.72 794.307L1102.55 824.466L1118.77 836.981C1123.91 840.868 1130.32 845.459 1137.99 850.754L1155.18 861.912C1155.18 861.912 1155.41 861.912 1155.46 861.912L1093.31 805.818L1058.79 768.522L1033.47 736.805L1033.23 736.202L1010.13 699.61C1006.29 692.774 1002.87 685.988 999.871 679.504L988.919 653.166L980.648 626.124L978.106 615.267C976.581 608.28 975.334 601.142 974.317 593.653C973.393 587.722 972.7 580.635 972.145 572.442L971.498 552.336C971.498 546.958 971.498 540.524 972.145 532.783L973.762 514.688C974.965 504.076 976.677 493.54 978.892 483.122L984.483 459.146L990.444 437.784Z" fill="white"/>
</g>
<g style="mix-blend-mode:soft-light" opacity="0.58">
<path d="M1220.57 75.1803H1220.8C1220.8 75.1803 1220.8 74.929 1220.8 75.1803C1218.67 74.0063 1216.44 73.0472 1214.15 72.3152C1211.97 71.6115 1209.52 70.9079 1207.4 70.4052L1190.76 68.3947H1186.14L1179.12 68.7465L1165.26 70.7571C1160.58 71.5924 1155.95 72.7167 1151.39 74.1248C1146.77 75.3814 1142.43 76.839 1137.95 78.3972L1124.68 83.4236C1120.06 85.4844 1115.44 87.5453 1111.7 89.4553C1109.94 90.3098 1105.74 92.4711 1099.04 96.0399L1077.41 108.656L1018.82 150.426L1015.44 153.743L974.364 204.007C965.584 215.467 958.976 224.113 954.632 229.943C946.176 241.353 939.799 250.049 935.502 256.332L882.129 338.815C876.584 348.315 871.27 357.865 866.095 367.466L850.984 396.971C845.347 408.582 840.726 418.584 837.121 427.129L818.637 473.573L812.907 490.261L796.411 551.935V552.94L792.621 572.543V573.548L792.344 574.554L791.651 579.58V580.032L789.941 593.051V594.056V595.112L787.723 620.244L791.05 599.635L793.453 587.371C795.024 579.681 796.226 574.252 797.011 571.136L800.893 555.051C803.758 544.496 806.808 533.84 810.135 523.284C810.643 521.978 812.353 516.8 815.356 507.702L828.341 473.02L846.502 431.955C851.908 420.444 856.714 410.693 860.827 402.651L876.261 373.95C880.882 365.556 886.381 356.106 892.573 345.802L927.322 291.064C931.296 284.982 937.442 275.985 945.806 264.324C954.17 252.663 960.409 244.218 964.706 238.237C969.004 232.255 975.565 223.158 984.022 212.401L1023.81 162.137L1023.25 162.69L1024.09 161.886L1023.81 162.137L1045.48 144.695C1047.98 142.785 1050.1 141.278 1051.07 140.272L1091.41 111.471L1115.53 97.0452C1120.94 93.9791 1125.1 92.0188 1127.92 90.5108L1140.21 84.5797C1143.77 83.0718 1148.02 81.413 1153.01 79.5533C1158 77.6935 1161.84 76.7385 1166.32 75.5824C1170.75 74.36 1175.24 73.3869 1179.77 72.6671L1181.43 72.3655H1182.35H1182.77H1183.19H1184.94H1185.73H1187.81H1188.27L1195.15 72.0639H1197.74L1207.21 72.8179L1220.57 75.1803Z" fill="white"/>
</g>
<g style="mix-blend-mode:soft-light" opacity="0.58">
<path d="M633.613 520.669L649.833 552.034C650.322 552.88 650.739 553.771 651.081 554.698L657.735 569.476C658.14 570.131 658.467 570.841 658.705 571.587L668.271 594.608C668.271 594.608 668.271 594.608 668.594 594.608L664.62 578.473C663.003 572.391 661.201 566.359 659.214 560.277L648.354 530.722L631.395 496.744C630.102 494.582 629.408 493.426 629.224 493.175L622.662 482.318C620.074 478.347 616.793 473.673 612.912 468.395L606.904 460.654L596.184 448.088C592.302 444.167 590.315 442.056 590.084 441.805L587.82 439.342L577.423 429.541C572.524 425.369 568.181 421.75 563.837 418.483L549.697 408.43C548.08 407.475 546.97 406.771 546.185 406.218L542.488 404.007C541.92 403.579 541.316 403.209 540.686 402.901L527.978 395.763L527.008 395.411L521.555 392.647L495.539 381.941L464.07 373.396L429.321 368.369L411.253 367.615H410.144C410.144 367.615 409.866 367.615 410.144 367.615H411.114L424.977 370.531C428.535 371.184 434.219 372.541 442.075 374.552L463.793 380.684L498.034 393.652L502.147 395.663C508.293 398.528 512.822 400.689 516.01 402.448L516.888 402.85L522.063 405.615L522.849 406.218L536.712 414.461L538.422 415.517L556.028 428.083L556.813 428.736C557.506 429.289 558.615 430.094 560.048 431.3L569.475 440.247C573.695 443.899 577.761 447.719 581.674 451.707L601.96 474.175L603.901 476.638C608.152 482.033 611.433 486.356 613.743 489.606L633.613 520.669Z" fill="white"/>
</g>
<g style="mix-blend-mode:soft-light" opacity="0.58">
<path d="M322.808 -69.7319C323.732 -67.0176 325.257 -62.896 327.429 -57.4675L332.696 -45.3538C336.393 -36.9597 340.413 -29.018 344.665 -21.3779L359.267 1.59281C364.509 8.96517 370.109 16.0289 376.041 22.754L383.481 30.7962L383.989 31.3994L385.237 32.5555C387.963 35.3703 391.105 38.4866 394.802 41.9549L400.856 47.3834C401.336 47.7006 401.785 48.0712 402.196 48.4892L415.134 58.542C418.924 61.407 422.482 63.87 425.716 65.8805C428.951 67.8911 432.925 70.6054 436.483 72.6662L441.982 75.7825L442.629 76.1847L458.525 84.2772C472.579 90.9184 487.067 96.4123 501.87 100.714C507.831 102.523 514.762 104.383 522.479 106.243L542.026 110.113L590.639 115.491C594.751 115.742 598.772 115.843 602.838 115.994H625.943C625.943 115.994 625.943 115.994 625.943 115.692H625.665L564.807 107.047L504.596 90.912L495.632 87.5946L494.384 87.1925L459.08 71.2085L442.444 61.4573C440.18 60.1002 436.668 57.8886 432.093 54.8727L422.066 47.6347C415.227 42.3067 408.804 36.9787 402.889 31.4999L391.891 20.9947L391.614 20.3916L384.867 13.2541C379.219 6.8885 373.912 0.175592 368.971 -6.85155L355.108 -28.4651C346.716 -43.0231 339.467 -58.3239 333.436 -74.2054L325.534 -97.3268C323.362 -104.565 321.236 -112.406 319.157 -120.147L314.536 -142.062C313.658 -146.787 313.011 -150.355 312.688 -152.617L308.067 -182.122L302.845 -253.397H302.568V-253.095L301.135 -199.061L304.509 -151.059L309.776 -117.684C313.011 -101.368 317.367 -85.3387 322.808 -69.7319" fill="white"/>
</g>
<g style="mix-blend-mode:soft-light" opacity="0.58">
<path d="M459.681 296.542H450.439C445.818 296.542 438.886 296.24 429.737 295.737L399.608 292.219L371.143 286.187C365.182 284.629 359.221 282.87 353.398 281.161L329.231 271.761L328.307 271.259L299.61 256.984L298.917 256.481L283.298 246.931L282.652 246.579L260.748 230.947C260.748 230.947 260.748 230.947 260.517 230.947L285.794 253.616V253.867L290.415 257.386L291.108 258.039L301.782 265.428C302.247 265.781 302.743 266.084 303.261 266.333L304.786 267.388L318.279 275.481C328.614 281.248 339.28 286.285 350.21 290.56L359.128 293.878L395.634 303.93L423.36 308.153L459.357 309.912H459.588L470.447 310.967C477.259 311.75 484.03 312.907 490.733 314.436C497.341 315.994 503.857 317.904 510.419 320.166L535.788 331.375L538.006 332.681C539.901 333.687 542.627 335.295 546.555 337.708C557.354 344.413 567.604 352.115 577.192 360.729L601.775 385.861L620.259 409.485C625.527 416.823 629.963 423.257 633.475 428.837L644.427 446.379C644.427 446.379 644.427 446.379 644.75 446.379C645.074 446.379 644.75 446.379 644.75 446.379L642.578 441.352L626.128 409.485L614.39 390.837L594.936 365.253L580.38 349.771L561.157 333.385L543.782 321.774C539.577 319.311 536.435 317.703 534.54 316.748L533.477 316.094L524.882 312.073C522.433 311.018 519.106 309.61 514.855 307.952L504.458 304.433C500.997 303.282 497.479 302.342 493.922 301.618C486.842 299.811 479.666 298.484 472.434 297.647L460.928 296.692H460.605C460.41 296.765 460.199 296.765 460.004 296.692L459.681 296.542Z" fill="white"/>
</g>
<g style="mix-blend-mode:soft-light" opacity="0.58">
<path d="M1435.03 969.628L1484.89 943.39C1485.12 943.39 1485.16 943.39 1484.89 942.988L1371.95 986.668C1356.42 992.046 1342.61 996.721 1330.36 1000.09C1315.85 1004.51 1300.83 1008.55 1285.31 1012.2L1238.31 1021.05C1222.64 1023.3 1206.85 1024.53 1191.04 1024.72L1167.94 1023.81C1162.9 1023.31 1159.16 1022.86 1156.71 1022.56C1153.47 1022.2 1149.78 1021.55 1145.66 1020.8L1116.97 1012.75L1105.14 1007.73C1101.95 1006.22 1098.94 1004.61 1096.17 1003C1094.19 1001.95 1091.55 1000.19 1087.72 997.977C1085.96 996.821 1083.33 994.911 1079.95 992.347L1072.79 986.366C1070.57 984.356 1068.45 982.345 1066.32 980.184L1053.94 965.858L1042.71 948.819C1040.55 945.37 1038.59 941.778 1036.84 938.062L1027.18 916.348H1026.9V916.7L1028.61 922.782C1030.2 928.524 1032.13 934.148 1034.39 939.621C1035.73 943.189 1037.35 947.06 1039.38 951.282C1041.41 955.504 1043.77 959.776 1046.45 964.401C1047.79 966.802 1049.26 969.117 1050.84 971.337L1061.61 985.612C1063.55 987.874 1065.67 990.186 1068.03 992.599C1070.32 995.016 1072.73 997.298 1075.24 999.435C1077.73 1001.65 1080.37 1003.81 1083.23 1005.92C1085.04 1007.33 1087.85 1009.39 1091.83 1012C1094.42 1013.76 1097.51 1015.57 1101.07 1017.53L1107.77 1021.05H1108.46L1110.91 1022.3C1114.34 1023.92 1117.84 1025.33 1121.4 1026.53L1132.31 1030.2C1134.34 1030.85 1138.13 1031.86 1143.54 1033.16L1155.23 1035.42L1175.98 1037.79L1191.09 1038.34C1207.45 1038.43 1223.8 1037.3 1240.02 1034.97L1288.03 1025.52C1303.19 1021.7 1318.39 1017.38 1333.55 1012.2C1347.41 1007.58 1361.28 1002.45 1375.14 996.821L1435.03 969.628Z" fill="white"/>
</g>
</g>
</svg>
