<svg width="1280" height="2280" viewBox="0 0 1280 2280" fill="none" xmlns="http://www.w3.org/2000/svg">
<g style="mix-blend-mode:soft-light" opacity="0.58">
<g style="mix-blend-mode:soft-light" opacity="0.58">
<path d="M94.3961 195.804L70.5477 175.518C56.8634 200.308 45.116 226.304 35.4291 253.231C33.0812 259.908 30.7667 266.548 28.3853 273.116V273.955L37.5422 261.295C54.727 237.669 73.8094 215.752 94.5638 195.804" fill="#89CFD9"/>
</g>
<g style="mix-blend-mode:soft-light" opacity="0.58">
<path d="M722.204 634.026C708.962 618.179 697.447 600.72 687.89 581.998C673.933 555.076 664.559 525.635 660.218 495.09L651.262 495.893C646.264 495.674 641.199 495.419 636.269 495.273C608.038 494.424 579.816 497.278 552.212 503.774C524.997 510.081 498.671 520.288 473.925 534.129C448.697 548.254 425.163 565.704 403.855 586.084C425.162 603.916 445.333 623.298 464.231 644.095C479.31 660.688 493.478 678.231 506.662 696.634C522.672 687.365 539.17 679.129 556.07 671.97C581.253 661.262 607.172 652.722 633.585 646.43L722.204 634.026Z" fill="#89CFD9"/>
</g>
<g style="mix-blend-mode:soft-light" opacity="0.58">
<path d="M757.691 196.825L759.67 194.818C749.972 169.615 737.72 145.667 723.143 123.417C707.668 99.6036 689.401 78.0901 668.804 59.4219C648.114 40.049 625.327 23.4961 600.949 10.1306C576.754 -3.35105 551.454 -14.3443 525.378 -22.706C499.698 -31.1631 473.302 -36.7979 446.588 -39.5256C419.772 -42.4431 392.783 -42.9921 365.886 -41.1674C339.923 -39.3882 314.075 -35.9895 288.47 -30.9881C262.807 -25.9443 237.422 -19.3547 212.43 -11.2497C187.363 -2.93338 162.89 7.37088 139.208 19.5802C115.828 31.7123 93.3926 45.8908 72.1238 61.9759C50.7213 78.2291 30.5332 96.2969 11.748 116.01L70.5474 175.517L94.3958 195.803C106.739 187.144 119.128 178.534 131.56 169.972C147.906 158.78 165.044 149.02 182.813 140.784C209.261 128.655 236.97 120.078 265.326 115.244C291.484 110.733 318.011 109.29 344.452 110.939C397.058 114.33 448.591 128.581 496.297 152.933C520.792 165.414 544.074 180.534 565.797 198.065C588.796 216.585 609.417 238.364 627.112 262.826C645.027 287.749 659.993 315.023 671.655 344.006V343.094L672.36 341.233V340.941L672.729 339.883C681.911 314.87 693.137 290.803 706.271 267.971C720.982 242.368 738.2 218.574 757.624 197.007" fill="#89CFD9"/>
</g>
<g style="mix-blend-mode:soft-light" opacity="0.58">
<path d="M958.139 686.966C947.001 691.683 935.636 695.739 924.094 699.115C897.175 707.201 868.996 709.053 841.379 704.551C813.945 700.296 787.683 689.629 764.4 673.284L688.628 784.344C685.106 790.109 681.517 795.91 677.861 801.675C664.153 823.885 651.589 846.906 640.227 870.632C627.752 896.613 617.501 923.787 609.603 951.811C601.768 979.988 596.234 1008.86 593.067 1038.1L608.529 1001.61L593.067 1038.1L578.778 1071.7C569.063 1101.29 565.389 1132.83 568.011 1164.12C570.209 1191.94 578.677 1218.74 592.664 1242.16C607.826 1268.24 627.431 1290.93 650.424 1309C673.291 1327.22 699.674 1339.54 727.57 1345.01C741.084 1347.61 754.809 1348.67 768.525 1348.18C762.465 1329.8 756.741 1311.23 751.352 1292.47C743.375 1264.35 737.674 1235.53 734.312 1206.33C730.842 1177.31 729.821 1147.99 731.26 1118.77C732.519 1089.52 736.133 1060.45 742.061 1031.9C753.43 976.304 774.051 923.443 802.906 875.922C817.287 852.152 832.91 829.299 849.697 807.476C866.222 785.901 883.564 765.056 901.721 744.94C919.878 724.825 938.684 705.5 958.139 686.966Z" fill="#89CFD9"/>
</g>
<g style="mix-blend-mode:soft-light" opacity="0.58">
<path d="M1380.87 648.729L1379.02 648.328C1357.47 660.927 1336.46 674.463 1316 688.936C1292.18 705.842 1269.31 724.275 1247.51 744.137C1227.82 761.815 1209.4 781.111 1192.43 801.857C1173.63 824.728 1157.45 849.989 1144.23 877.089C1130.88 904.442 1120.35 933.32 1112.83 963.194C1141.65 960.587 1170.61 965.503 1197.33 977.533C1210.24 983.16 1222.5 990.421 1233.85 999.168C1234.83 994.243 1235.83 989.317 1236.87 984.574C1243.24 953.925 1254.17 924.617 1269.24 897.813C1284.33 870.893 1303.34 846.817 1325.52 826.521C1346.64 807.269 1369.54 790.456 1393.85 776.354C1417.47 762.87 1442.17 751.746 1467.64 743.116C1493.49 734.44 1519.99 728.274 1546.84 724.691L1491.86 689.41L1380.87 648.729Z" fill="#89CFD9"/>
</g>
<g style="mix-blend-mode:soft-light" opacity="0.58">
<path d="M1191.49 1702.97C1174.68 1678.72 1155.09 1656.91 1133.2 1638.06C1112.54 1620.03 1090.31 1604.26 1066.82 1590.96C1043.05 1577.82 1018.21 1567.11 992.621 1558.96C966.528 1550.81 939.771 1545.42 912.723 1542.87C886.264 1540.36 859.637 1540.81 833.262 1544.22C806.517 1547.68 780.134 1553.9 754.472 1562.79C733.066 1583.71 714.729 1608.07 700.1 1635.03C685.729 1661.32 675.439 1690 669.644 1719.93C667.207 1731.73 665.614 1743.73 664.881 1755.8C690.914 1742.15 717.817 1730.57 745.382 1721.14C772.955 1711.82 801.228 1705.17 829.874 1701.25C855.756 1697.6 881.941 1697.27 907.893 1700.27C934.567 1703.29 960.718 1710.37 985.577 1721.32C1004.37 1729.76 1022.4 1740.06 1039.45 1752.11L1049.21 1753.57C1077.55 1758.38 1106.18 1760.95 1134.87 1761.27C1163.84 1761.81 1192.81 1759.93 1221.51 1755.65C1212.96 1737.16 1202.92 1719.52 1191.49 1702.97Z" fill="#89CFD9"/>
</g>
<g style="mix-blend-mode:soft-light" opacity="0.58">
<path d="M1571.19 2085.07C1544.71 2091.88 1518.11 2097.72 1491.39 2102.59C1463.06 2107.77 1434.49 2112.18 1405.69 2115.83C1380.94 2119.08 1356.05 2121.6 1331.16 2123.57C1302.52 2125.84 1273.75 2125.35 1245.19 2122.11C1217.15 2118.85 1189.33 2113.54 1161.94 2106.24C1136.23 2099.27 1110.93 2090.63 1086.17 2080.37C1061.14 2069.91 1036.75 2057.73 1013.15 2043.88C1033.52 2065.15 1050.02 2090.4 1061.78 2118.31C1073.43 2145.63 1079.94 2175.2 1080.94 2205.29C1081.44 2217.64 1081.23 2230.01 1080.3 2242.32C1098.88 2251.03 1118.03 2258.22 1137.59 2263.81C1161.33 2270.8 1185.6 2275.46 1210.11 2277.72C1238.57 2280.13 1267.16 2280.29 1295.64 2278.19C1321.6 2276.22 1347.57 2274.22 1373.56 2272.21C1399.54 2270.19 1425.58 2267.75 1451.68 2264.91C1477.04 2262.18 1502.35 2258.6 1527.62 2254.15C1552.89 2249.69 1577.64 2244.34 1601.88 2238.09C1626.48 2231.79 1650.75 2224.37 1674.7 2215.84C1656.94 2220.35 1638.6 2221.45 1620.5 2219.08C1597.21 2216.55 1575.57 2204.88 1559.62 2186.25C1552.68 2178.07 1547.25 2168.52 1543.62 2158.12C1550.86 2145.02 1559.21 2132.7 1568.57 2121.3C1586.93 2099.02 1608.44 2080.08 1632.3 2065.19C1612.3 2073.1 1591.88 2079.72 1571.15 2085" fill="#89CFD9"/>
</g>
<g style="mix-blend-mode:soft-light" opacity="0.58">
<path d="M928.622 7.17517C942.646 -19.4286 953.095 -48.0807 959.648 -77.9081C966.183 -107.875 968.892 -138.678 967.698 -169.449C966.621 -199.224 960.952 -228.589 950.927 -256.32C941.495 -282.592 928.12 -306.979 911.347 -328.488C909.1 -331.297 906.752 -334.106 904.471 -336.843C883.023 -355.398 859.027 -370.172 833.362 -380.625C806.552 -391.413 778.079 -396.467 749.507 -395.511C730.905 -394.895 712.393 -392.453 694.196 -388.214C674.339 -390.646 654.482 -392.02 634.625 -392.337C607.927 -392.909 581.228 -391.262 554.761 -387.411C528.095 -383.544 501.798 -378.326 475.87 -371.941C447.858 -364.645 418.374 -368.421 392.686 -382.595C368.334 -395.949 343.524 -408.11 318.256 -419.08C294.358 -429.197 268.817 -433.914 243.189 -432.944C214.54 -432.116 186.553 -423.391 161.849 -407.587C137.161 -392.122 113.246 -375.242 90.2032 -357.019C66.7908 -338.703 43.9934 -319.476 21.8109 -299.336C0.679367 -279.877 -19.7254 -259.713 -39.4034 -238.844C-57.4491 -219.58 -74.7904 -199.695 -91.4272 -179.191C-90.9121 -150.712 -88.2421 -122.328 -83.4442 -94.3264C-78.5069 -66.7283 -71.2307 -39.6869 -61.7089 -13.5483C-51.3652 15.46 -38.2095 43.1871 -22.4647 69.1633C-12.4118 85.8923 -0.958717 101.575 11.7483 116.01C30.5501 96.3171 50.7367 78.2507 72.1241 61.9758C93.3934 45.9023 115.829 31.736 139.208 19.6166C162.919 7.41208 187.427 -2.86826 212.531 -11.1403C237.523 -19.2453 262.908 -25.835 288.571 -30.8788C314.176 -35.8802 340.024 -39.2789 365.986 -41.0581C392.817 -42.8487 419.735 -42.3119 446.487 -39.4528C473.212 -36.6984 499.617 -31.0517 525.311 -22.5966C551.387 -14.235 576.687 -3.2417 600.882 10.2399C625.271 23.5803 648.079 40.0953 668.804 59.4218C689.392 78.045 707.659 99.5089 723.143 123.271C737.752 145.563 750.027 169.561 759.737 194.818L761.951 192.41C784.8 176.979 806.491 159.607 826.821 140.455C846.857 121.52 865.507 100.917 882.602 78.8319C899.82 56.4405 915.218 32.4648 928.622 7.17517Z" fill="#7565AB"/>
</g>
<g style="mix-blend-mode:soft-light" opacity="0.58">
<path d="M1442.99 1321.37C1416.53 1314.15 1389.12 1312.02 1361.99 1315.09C1344.65 1317.07 1327.55 1320.94 1310.93 1326.66C1307.19 1357.03 1298.48 1386.43 1285.21 1413.46C1274.41 1435.64 1260.49 1455.85 1243.95 1473.37C1206.51 1459.01 1167.81 1448.88 1128.47 1443.16C1093 1437.69 1057.13 1436.03 1021.37 1438.19C1002.26 1439.37 983.225 1441.66 964.344 1445.05C945.197 1448.37 926.322 1453.32 907.893 1459.87C888.966 1466.6 870.626 1475.15 853.085 1485.41C821.577 1503.67 792.188 1525.96 765.54 1551.81C761.817 1555.46 758.06 1559.11 754.303 1562.75C779.963 1553.85 806.347 1547.63 833.094 1544.18C859.469 1540.77 886.097 1540.33 912.555 1542.87C939.636 1545.41 966.427 1550.8 992.553 1558.96C1018.15 1567.08 1042.99 1577.76 1066.78 1590.85C1090.27 1604.18 1112.5 1619.98 1133.16 1638.02C1155.07 1656.87 1174.65 1678.71 1191.42 1703C1202.93 1719.54 1213.03 1737.17 1221.61 1755.69C1237.39 1754.71 1253.09 1752.49 1268.57 1749.05C1296.95 1742.5 1324.47 1732.15 1350.51 1718.25L1397.04 1690.89C1422.57 1676.22 1446.86 1659.13 1469.62 1639.81C1490.78 1621.98 1510.79 1602.58 1529.49 1581.76C1548.24 1560.76 1565.51 1538.26 1581.15 1514.45C1583.58 1484.53 1579.35 1454.42 1568.81 1426.66C1558.44 1398.68 1540.65 1374.68 1517.69 1357.74C1495.01 1340.86 1469.75 1328.5 1443.09 1321.26" fill="#7565AB"/>
</g>
<g style="mix-blend-mode:soft-light" opacity="0.58">
<path d="M688.259 -725.481C666.601 -741.558 643.655 -755.479 619.699 -767.074C595.135 -778.988 569.569 -788.287 543.357 -794.84C516.191 -801.584 488.309 -804.284 460.475 -802.866C431.56 -801.236 402.997 -795.218 375.613 -784.989C351.535 -776.032 328.711 -763.496 307.791 -747.737C284.626 -730.397 265.288 -707.68 251.172 -681.225C237.55 -655.688 228.214 -627.718 223.6 -598.623C246.655 -607.306 270 -614.834 293.636 -621.207C321.253 -628.471 349.259 -633.857 377.491 -637.333C403.346 -640.592 429.449 -640.788 455.343 -637.917C482.536 -634.653 508.683 -624.67 531.785 -608.729C555.875 -593.098 576.628 -572.066 592.664 -547.033C618.55 -551.014 644.762 -551.846 670.817 -549.514C696.271 -547.354 721.376 -541.74 745.549 -532.804C772.645 -522.927 798.452 -509.278 822.327 -492.196C845.457 -475.637 866.615 -456.029 885.319 -433.82C889.21 -429.514 892.933 -425.063 896.589 -420.393C893.784 -432.656 890.255 -444.709 886.023 -456.477C876.108 -484.413 863.824 -511.285 849.328 -536.744C835.35 -561.168 819.992 -584.624 803.342 -606.978C786.66 -629.379 768.737 -650.652 749.675 -670.681C730.732 -690.937 710.117 -709.257 688.091 -725.408L688.259 -725.481ZM1843.82 3011.07C1849.89 2984.23 1853.56 2956.83 1854.79 2929.23C1856.2 2899.46 1854.17 2869.61 1848.75 2840.39C1843.22 2810.1 1832.82 2781.11 1818.02 2754.76C1804.12 2729.64 1786.95 2706.84 1767.04 2687.08C1740.3 2689.4 1713.89 2695.09 1688.35 2704.04C1662.98 2712.95 1638.7 2725.2 1616.07 2740.53C1592.58 2756.37 1570.42 2774.44 1549.85 2794.53C1529.73 2814.23 1510.25 2834.79 1491.42 2856.22C1472.6 2877.65 1454.55 2899.73 1437.29 2922.44C1419.56 2945.97 1403.22 2970.69 1388.38 2996.47C1373.48 3022.43 1360.45 3049.61 1349.41 3077.76C1348.2 3080.83 1346.96 3083.93 1345.75 3087.17C1373.27 3089.64 1400.16 3097.43 1425.15 3110.2C1450.85 3122.96 1473.57 3141.88 1491.59 3165.54C1510.16 3189.52 1524.33 3217.14 1533.35 3246.91C1555.8 3231.95 1579.17 3218.69 1603.29 3207.21C1627.13 3195.69 1651.72 3186.07 1676.85 3178.42C1703.49 3170.14 1730.94 3165.24 1758.62 3163.83C1768.78 3163.32 1778.96 3163.66 1789.08 3164.85C1795.4 3140.65 1804.05 3117.25 1814.87 3095.02C1827.64 3068.43 1837.37 3040.23 1843.82 3011.07ZM455.175 -637.771C429.282 -640.642 403.178 -640.446 377.324 -637.187C349.091 -633.711 321.085 -628.325 293.469 -621.061C269.788 -614.664 246.443 -607.136 223.433 -598.477C198.216 -590.852 173.624 -580.967 149.908 -568.924C126.512 -557.118 104.167 -542.987 83.1596 -526.711C62.396 -510.686 42.8964 -492.808 24.8634 -473.26C7.78485 -454.716 -8.18054 -434.998 -22.9341 -414.227C-2.16034 -432.324 19.083 -449.812 40.7959 -466.693C62.5088 -483.573 84.6243 -499.663 107.142 -514.962C129.941 -530.474 153.65 -544.344 178.117 -556.482C203.391 -569.138 230.611 -576.561 258.384 -578.374C285.942 -580.298 313.582 -576.42 339.79 -566.954C366.177 -557.224 392.887 -548.711 419.922 -541.414C446.842 -533.942 474.487 -529.998 502.268 -529.666C530.154 -529.254 557.903 -533.966 584.346 -543.603C587.029 -544.734 589.712 -545.792 592.496 -546.704C576.481 -571.773 555.738 -592.843 531.651 -608.51C508.549 -624.451 482.402 -634.434 455.209 -637.698" fill="#F29666"/>
</g>
<g style="mix-blend-mode:soft-light" opacity="0.58">
<path d="M1601.64 4413.3C1574.08 4417.47 1547.28 4426.3 1522.22 4439.46C1513.23 4444.16 1504.2 4448.98 1495.38 4453.83C1496.46 4472.69 1497.66 4491.52 1498.74 4510.31C1500.53 4538.62 1502.4 4566.97 1504.37 4595.36C1506.25 4619.68 1508.11 4643.87 1509.94 4667.93C1512.04 4696.07 1513.45 4724.21 1514.17 4752.35C1514.5 4770.84 1514.5 4789.55 1514.17 4808.5C1541.48 4803.84 1569.22 4802.88 1596.75 4805.66C1607.68 4806.68 1618.65 4807.88 1629.62 4809.31L1685.2 4414.1C1657.51 4409.36 1629.33 4409.14 1601.58 4413.44L1601.64 4413.3ZM1632.3 2065.52C1653.69 2051.31 1674.13 2035.46 1693.45 2018.09C1715.5 1998.93 1731.33 1972.59 1738.63 1942.93C1746.41 1912.34 1746.73 1880.07 1739.54 1849.31C1732.72 1819.26 1720.39 1791.03 1703.28 1766.3C1686.33 1741.79 1664.87 1721.39 1640.25 1706.43C1615.78 1691.75 1589.48 1681 1562.17 1674.54C1534 1667.81 1505.01 1666.07 1476.33 1669.4C1449.07 1672.52 1422.35 1679.77 1396.94 1690.93L1350.45 1718.25C1324.4 1732.15 1296.88 1742.5 1268.5 1749.05C1253.02 1752.48 1237.32 1754.71 1221.54 1755.72C1192.85 1759.96 1163.9 1761.84 1134.94 1761.34C1106.25 1760.96 1077.62 1758.37 1049.27 1753.57C1045.92 1753.06 1042.83 1752.59 1039.44 1752.18C1022.49 1740.08 1004.52 1729.73 985.777 1721.28C960.915 1710.3 934.75 1703.2 908.06 1700.19C882.109 1697.18 855.921 1697.51 830.041 1701.18C801.357 1705.14 773.05 1711.84 745.448 1721.21C717.869 1730.58 690.963 1742.16 664.947 1755.83C664.047 1787.17 668.342 1818.42 677.626 1848.1C686.409 1876.69 700.241 1903.14 718.346 1925.96C737.096 1949.79 759.386 1970.03 784.29 1985.83C809.184 2001.7 837.066 2011.21 865.831 2013.64C892.918 2016.07 920.187 2013.18 946.332 2005.1L956.16 2002.14C942.13 1992.14 927.151 1983.81 911.482 1977.3C885.299 1966.58 857.547 1961.12 829.572 1961.17C857.547 1961.12 885.299 1966.58 911.482 1977.3C927.151 1983.81 942.13 1992.14 956.16 2002.14L1013.18 2044.14C1036.79 2057.97 1061.18 2070.15 1086.2 2080.62C1110.95 2090.79 1136.23 2099.34 1161.91 2106.23C1189.29 2113.51 1217.09 2118.77 1245.12 2122C1273.69 2125.24 1302.46 2125.72 1331.09 2123.42C1356.02 2121.52 1380.84 2118.9 1405.62 2115.76C1434.4 2112.08 1462.97 2107.66 1491.32 2102.48C1518.02 2097.61 1544.62 2091.77 1571.12 2084.96C1591.82 2079.63 1612.22 2073.04 1632.23 2065.23L1632.3 2065.52ZM901.788 745.049C883.631 765.189 866.278 786.01 849.731 807.512C832.974 829.404 817.363 852.304 802.973 876.104C774.102 923.571 753.489 976.402 742.161 1031.97C736.239 1060.54 732.613 1089.62 731.327 1118.88C729.919 1148.11 730.952 1177.41 734.413 1206.44C737.809 1235.64 743.509 1264.48 751.452 1292.62C756.864 1311.32 762.588 1329.88 768.626 1348.29C797.68 1347.59 826.394 1341.33 853.454 1329.8C879.788 1318.51 904.027 1302.13 924.999 1281.45C945.353 1261.73 963.521 1239.5 979.136 1215.2C994.391 1191.38 1007.62 1166.1 1018.65 1139.67C1029.93 1112.94 1038.43 1084.93 1044.01 1056.16C1049.68 1026.17 1064.67 999.231 1086.47 979.867C1094.4 972.909 1103.27 967.334 1112.77 963.34C1120.27 933.447 1130.81 904.555 1144.2 877.198C1157.43 850.075 1173.62 824.79 1192.43 801.893C1209.4 781.158 1227.8 761.862 1247.47 744.174C1269.28 724.314 1292.15 705.881 1315.97 688.972C1336.38 674.524 1357.39 660.976 1378.99 648.327C1363.34 646.479 1347.55 644.728 1331.63 643.074C1306.9 640.301 1282.09 638.61 1257.2 638.002C1232.31 637.394 1207.42 637.832 1182.54 639.316C1157.24 640.629 1132.01 643.28 1106.83 647.269C1081.65 651.258 1056.64 656.634 1031.8 663.396C1007.02 670.085 982.423 677.905 958.005 686.856C938.572 705.56 919.811 724.958 901.721 745.049" fill="#57BA8D"/>
</g>
<g style="mix-blend-mode:soft-light" opacity="0.58">
<path d="M722.204 634.026L633.585 646.285C607.166 652.554 581.246 661.094 556.07 671.824C539.17 678.983 522.672 687.219 506.662 696.488C522.673 720.507 536.491 746.168 547.919 773.107C559.346 799.508 568.107 827.18 574.048 855.636C580.183 884.75 583.843 914.416 584.983 944.258C586.144 973.688 585.562 1003.17 583.239 1032.52C582.188 1045.55 580.734 1058.57 578.878 1071.55L593.167 1037.95C596.314 1008.71 601.859 979.832 609.737 951.665C617.615 923.656 627.844 896.494 640.294 870.522C651.673 846.788 664.248 823.755 677.962 801.529C681.618 795.764 685.207 789.963 688.729 784.198L764.5 673.138L722.204 634.026Z" fill="#5869B0"/>
</g>
<g style="mix-blend-mode:soft-light" opacity="0.58">
<path d="M1786.83 3324.14C1761.38 3320.28 1735.55 3320.38 1710.12 3324.44C1682.38 3328.81 1655.46 3337.99 1630.39 3351.62C1607.67 3363.87 1585.74 3377.78 1564.75 3393.25C1551.06 3403.41 1537.19 3413.28 1523.12 3422.84C1514.39 3451.12 1502.22 3478 1486.93 3502.78C1484.82 3506.42 1482.64 3509.78 1480.52 3513.36C1463.71 3534.08 1446.58 3554.75 1429.14 3575.38C1411.51 3596.25 1395.65 3618.82 1381.78 3642.81C1367.6 3667.16 1355.38 3692.79 1345.25 3719.42C1327.47 3765.83 1317.05 3815.17 1314.42 3865.36C1335.23 3847.59 1357.13 3831.38 1379.97 3816.84C1402.67 3802.57 1426.31 3790.16 1450.71 3779.7C1477.56 3768.21 1505.34 3759.49 1533.69 3753.65C1561.6 3747.89 1590.05 3745.79 1618.42 3747.41C1644.77 3748.91 1670.91 3753.33 1696.43 3760.62C1722.2 3768.15 1746.99 3779.19 1770.23 3793.45C1794.6 3809.01 1816.74 3828.39 1835.94 3850.95C1841.74 3857.78 1847.14 3864.67 1852.27 3871.6L1861.26 3860.88C1879.68 3838.8 1895.46 3814.29 1908.22 3787.91C1921.44 3760.66 1931.05 3731.51 1936.76 3701.33C1942.65 3670.8 1944.4 3639.51 1941.96 3608.44C1939.99 3580.64 1933.16 3553.51 1921.84 3528.5C1920.86 3526.44 1919.57 3524.57 1918.01 3522.99C1901.24 3508.05 1884.4 3493.27 1867.5 3478.62C1845.49 3458.73 1827.2 3434.41 1813.63 3407C1800.7 3381.04 1791.77 3352.95 1787.2 3323.85L1786.83 3324.14ZM667.028 364.073C668.504 357.286 670.047 350.573 671.656 343.823C659.95 314.952 644.999 287.771 627.146 262.899C609.435 238.419 588.804 216.616 565.798 198.065C544.076 180.453 520.768 165.283 496.231 152.788C472.536 140.64 447.825 130.988 422.439 123.964C396.908 116.9 370.818 112.49 344.52 110.793C318.068 109.165 291.532 110.608 265.361 115.098C236.996 120.018 209.28 128.642 182.814 140.784C165.062 149.009 147.946 158.77 131.629 169.972C119.084 178.546 106.74 187.12 94.3968 195.803C73.6424 215.752 54.56 237.668 37.3753 261.294C34.3229 265.453 31.3041 269.686 28.2183 273.954V274.575C26.9206 306.161 32.7837 337.611 45.2912 366.152C57.1919 393.825 75.7317 417.495 98.9586 434.671C122.024 452.185 146.99 466.535 173.288 477.395C198.221 487.879 223.322 497.389 248.59 505.927C274.212 514.358 299.215 524.871 323.389 537.377C347.785 549.684 371.415 563.712 394.129 579.371L403.823 586.084C425.131 565.704 448.664 548.255 473.892 534.13C498.639 520.289 524.964 510.081 552.18 503.774C579.786 497.298 608.006 494.444 636.236 495.273L651.229 495.893L660.185 495.091L656.059 455.723C656.551 424.825 660.219 394.084 666.994 364.073" fill="#B273AE"/>
</g>
<g style="mix-blend-mode:soft-light" opacity="0.58">
<path d="M1700.69 4259.15C1701.57 4251.08 1702.51 4242.98 1703.41 4234.88C1706.5 4208.37 1710.34 4181.93 1714.95 4155.57C1719.58 4128.08 1725.26 4100.94 1731.99 4074.13C1738.72 4047.33 1746.24 4020.57 1754.56 3993.86L1739.74 3966.65L1735.75 3969.2L1739.74 3966.65C1720.36 3944.34 1696.75 3926.91 1670.54 3915.57C1645.19 3904.11 1617.7 3899.38 1590.34 3901.78C1563.99 3903.84 1538.03 3909.84 1513.19 3919.62C1486.37 3930.13 1460.75 3943.99 1436.85 3960.92C1416.07 3975.65 1396.67 3992.56 1378.92 4011.41C1372.22 4018.42 1365.74 4025.42 1359.27 4032.47C1379.29 4055.05 1397.18 4079.77 1412.67 4106.24C1426.39 4129.58 1438 4154.31 1447.35 4180.08C1456.32 4204.9 1463.93 4230.28 1470.13 4256.08C1472.88 4267.66 1475.72 4279.26 1478.65 4290.89C1502.89 4279.94 1527.99 4271.39 1553.65 4265.35C1581.93 4258.52 1610.84 4255.18 1639.82 4255.39C1660.21 4255.68 1680.52 4256.9 1700.76 4259.04L1700.69 4259.15ZM1646.66 862.86C1639.08 833.553 1625.93 806.305 1608.05 782.885C1590.75 759.901 1570.07 740.178 1546.87 724.509C1520.02 728.091 1493.52 734.257 1467.68 742.934C1442.21 751.563 1417.51 762.688 1393.88 776.171C1369.57 790.274 1346.67 807.086 1325.56 826.338C1303.38 846.634 1284.37 870.711 1269.28 897.63C1254.2 924.435 1243.27 953.743 1236.91 984.392C1235.87 989.244 1234.86 994.17 1233.89 998.986C1254.31 1021.24 1271.6 1046.65 1285.21 1074.4C1298.21 1100.6 1307.56 1128.76 1312.95 1157.95C1315.82 1172.83 1317.75 1187.91 1318.72 1203.08L1318.99 1203.92C1335.02 1198.16 1351.29 1193.29 1367.79 1189.33C1393.95 1183.04 1420.58 1179.28 1447.35 1178.09C1473.59 1176.83 1499.85 1179.92 1525.24 1187.25C1551.85 1194.84 1576.15 1209.95 1595.67 1231.03C1615.11 1252.15 1630.39 1277.35 1640.59 1305.1C1640.92 1296.19 1640.99 1287.25 1640.82 1278.39C1640.74 1274.32 1640.05 1270.29 1638.78 1266.46C1634.87 1254.86 1629.84 1243.74 1623.78 1233.29C1608.92 1207.02 1597.62 1178.55 1590.24 1148.76C1585.18 1129.02 1582.05 1108.75 1580.92 1088.3C1598.73 1074.77 1614.21 1057.92 1626.63 1038.54C1642.82 1013.34 1652.6 983.937 1654.98 953.307C1657.29 922.858 1654.47 892.206 1646.66 862.86Z" fill="#688AC6"/>
</g>
<g style="mix-blend-mode:soft-light" opacity="0.58">
<path d="M1496.02 5637.74C1496.45 5638.59 1497.04 5639.32 1497.76 5639.89C1500.04 5641.23 1502.66 5641.71 1505.22 5641.25C1507.77 5640.79 1510.12 5639.43 1511.89 5637.37C1513.06 5636.22 1513.97 5634.78 1514.54 5633.18C1519.94 5618.25 1523.39 5602.58 1524.8 5586.62C1526.21 5570.82 1527.92 5554.66 1529.9 5538.68C1531.88 5522.7 1533.96 5506.5 1536.17 5490.63C1537.44 5481.65 1538.72 5472.68 1540.03 5463.85C1540.04 5463.69 1540.04 5463.53 1540.03 5463.37C1539.98 5463.01 1539.98 5462.64 1540.03 5462.28L1550.96 5378C1550.91 5377.78 1550.91 5377.56 1550.96 5377.34L1605.77 4961.41L1626.3 4808.87L1682.14 4413.44L1697.64 4258.75C1698.58 4250.68 1699.45 4242.58 1700.39 4234.48C1703.48 4207.96 1707.37 4181.22 1711.93 4154.95C1716.59 4127.55 1722.33 4100.22 1729.04 4073.29C1735.75 4046.37 1743.29 4019.11 1751.71 3992.59C1751.77 3992.37 1751.86 3992.16 1751.98 3991.97C1751.95 3991.76 1751.95 3991.55 1751.98 3991.35L1765.4 3953.58L1737.56 3971.83C1737.18 3972.12 1736.74 3972.32 1736.29 3972.42C1735.83 3972.52 1735.36 3972.52 1734.91 3972.41C1734.32 3972.24 1733.8 3971.89 1733.4 3971.4C1733 3970.92 1732.74 3970.31 1732.65 3969.66C1732.56 3969.02 1732.65 3968.35 1732.9 3967.76C1733.15 3967.17 1733.56 3966.66 1734.07 3966.32L1734.44 3966.1L1738.16 3963.76L1769.72 3943.15L1788.47 3929.47C1811.44 3912.82 1832.1 3892.69 1849.86 3869.71L1858.95 3858.76C1877.09 3836.91 1892.65 3812.68 1905.27 3786.63C1918.38 3759.64 1927.9 3730.76 1933.54 3700.85C1939.36 3670.65 1941.11 3639.69 1938.74 3608.95C1936.67 3581.55 1929.84 3554.84 1918.62 3530.21C1917.81 3528.55 1916.77 3527.03 1915.53 3525.72C1898.76 3510.87 1881.82 3495.99 1865.22 3481.5C1842.89 3461.29 1824.35 3436.59 1810.61 3408.75C1797.52 3382.56 1788.45 3354.21 1783.78 3324.84C1775.47 3271.54 1776.24 3217.04 1786.06 3164.05C1786.06 3164.05 1786.06 3163.83 1786.06 3163.79C1792.48 3139.38 1801.19 3115.75 1812.05 3093.27C1824.68 3067.08 1834.33 3039.32 1840.77 3010.59C1846.8 2983.94 1850.44 2956.72 1851.63 2929.3C1853.05 2899.82 1851.05 2870.27 1845.66 2841.34C1840.22 2811.46 1830 2782.84 1815.47 2756.8C1801.73 2732.01 1784.79 2709.49 1765.16 2689.92C1757.25 2684.45 1749.4 2678.98 1741.68 2673.51C1717.65 2658.06 1692.21 2645.36 1665.78 2635.6L1664.87 2635.27L1661.89 2634.43L1658.53 2635.96C1633.97 2648.7 1608.29 2658.72 1581.89 2665.88C1555.38 2673.08 1528.3 2677.49 1501.02 2679.05C1497.4 2679.05 1493.81 2679.38 1490.32 2679.63C1461.83 2683.26 1433.07 2683.56 1404.52 2680.55C1379.22 2677.68 1354.24 2672.1 1329.95 2663.87H1329.58L1266.76 2632.42C1266.39 2632.25 1266.07 2631.99 1265.79 2631.67C1265.52 2631.36 1265.3 2630.98 1265.16 2630.58C1265.02 2630.17 1264.96 2629.74 1264.97 2629.3C1264.99 2628.87 1265.08 2628.44 1265.25 2628.05C1265.6 2627.26 1266.21 2626.66 1266.96 2626.36C1267.72 2626.06 1268.54 2626.09 1269.28 2626.44L1331.93 2657.78C1355.83 2665.82 1380.4 2671.28 1405.29 2674.09C1433.41 2677.04 1461.75 2676.72 1489.81 2673.14H1490.02L1500.82 2672.48C1527.64 2670.93 1554.26 2666.56 1580.31 2659.42C1606.34 2652.34 1631.65 2642.46 1655.88 2629.94L1660.24 2628.05L1660.58 2627.86C1671.74 2624.32 1682.65 2619.93 1693.25 2614.73C1718.92 2602.1 1742.76 2585.44 1763.99 2565.29C1784.19 2546.13 1800.39 2522.49 1811.52 2495.97C1823.08 2468.66 1827.88 2438.54 1825.44 2408.59C1823.09 2377.96 1815.75 2348.04 1803.74 2320.22C1792.28 2293.45 1774.53 2270.45 1752.28 2253.53C1729.22 2235.8 1702.7 2224.13 1674.8 2219.41C1656.86 2223.85 1638.36 2224.93 1620.09 2222.59C1596.11 2219.93 1573.82 2207.9 1557.37 2188.73C1550.11 2180.26 1544.41 2170.35 1540.6 2159.54C1540.44 2159.06 1540.37 2158.56 1540.41 2158.05C1540.45 2157.55 1540.6 2157.06 1540.83 2156.62C1548.18 2143.34 1556.65 2130.84 1566.16 2119.3C1584.75 2096.68 1606.59 2077.48 1630.83 2062.45C1652.08 2048.4 1672.39 2032.72 1691.6 2015.53C1713.12 1996.74 1728.59 1971.02 1735.81 1942.05C1743.44 1912.01 1743.75 1880.32 1736.72 1850.11C1729.98 1820.49 1717.82 1792.66 1700.96 1768.27C1684.26 1744.15 1663.13 1724.08 1638.91 1709.31C1614.72 1694.82 1588.74 1684.2 1561.76 1677.75C1533.91 1671.13 1505.26 1669.42 1476.9 1672.68C1449.9 1675.79 1423.43 1682.94 1398.24 1693.95L1351.89 1721.17C1325.58 1735.2 1297.79 1745.66 1269.14 1752.33C1253.52 1755.73 1237.71 1757.96 1221.81 1759.01C1192.99 1763.28 1163.92 1765.17 1134.84 1764.66C1106.01 1764.23 1077.24 1761.62 1048.74 1756.85C1045.62 1756.38 1042.36 1755.83 1039.04 1755.43C1038.25 1755.31 1037.53 1754.87 1037.03 1754.19C1036.53 1753.51 1036.29 1752.65 1036.36 1751.78C1036.47 1750.93 1036.88 1750.15 1037.51 1749.62C1038.13 1749.09 1038.92 1748.84 1039.71 1748.94C1043.07 1749.34 1046.42 1749.81 1049.57 1750.36C1077.8 1755.07 1106.29 1757.65 1134.84 1758.09C1163.66 1758.6 1192.48 1756.71 1221.04 1752.44H1221.28C1236.91 1751.42 1252.45 1749.21 1267.8 1745.84C1295.94 1739.36 1323.23 1729.1 1349.04 1715.3L1395.39 1688.08C1420.76 1673.54 1444.9 1656.61 1467.54 1637.47C1488.58 1619.7 1508.48 1600.39 1527.11 1579.68C1545.75 1558.79 1562.91 1536.41 1578.47 1512.73C1585.01 1502.83 1590.96 1492.49 1596.28 1481.76C1609.45 1454.92 1619.58 1426.45 1626.47 1396.97C1633.41 1366.96 1637.04 1336.15 1637.27 1305.21C1637.57 1296.27 1637.67 1287.36 1637.5 1278.57C1637.43 1274.83 1636.78 1271.13 1635.59 1267.63C1631.75 1256.28 1626.84 1245.39 1620.93 1235.15C1605.85 1208.63 1594.4 1179.86 1586.95 1149.74C1581.93 1129.67 1578.89 1109.07 1577.9 1088.3C1577.87 1087.74 1577.97 1087.19 1578.2 1086.68C1578.42 1086.18 1578.75 1085.75 1579.17 1085.42C1596.68 1072.11 1611.89 1055.55 1624.12 1036.49C1639.98 1011.76 1649.58 982.917 1651.96 952.869C1654.21 922.835 1651.41 892.606 1643.71 863.663C1636.25 834.829 1623.32 808.019 1605.74 784.964C1588.66 762.255 1568.26 742.755 1545.36 727.245L1490.62 692.183C1480.56 687.914 1470.7 683.718 1460.7 679.486C1434.47 668.308 1407.58 659.081 1380.2 651.867L1378.52 651.429C1363.03 649.532 1347.13 647.78 1331.4 646.212C1306.88 643.439 1281.92 641.724 1257.23 641.14C1232.55 640.556 1207.59 641.14 1182.77 642.454C1157.95 643.767 1132.29 646.43 1107.33 650.371C1082.38 654.311 1057.29 659.82 1032.57 666.388C1007.85 672.955 983.295 680.982 959.145 689.811C947.988 694.578 936.614 698.719 925.066 702.216C897.771 710.379 869.211 712.255 841.211 707.725C813.301 703.407 786.575 692.593 762.856 676.02L762.521 675.728L720.224 636.506C719.917 636.183 719.626 635.842 719.352 635.485C706.228 619.625 694.785 602.209 685.24 583.567C671.121 556.297 661.623 526.489 657.199 495.565L653.107 456.051C653.09 455.918 653.09 455.783 653.107 455.65C653.574 424.495 657.253 393.496 664.075 363.233C665.517 356.556 667.094 349.77 668.704 343.094V342.327C668.816 341.745 669.045 341.197 669.375 340.722C669.4 340.208 669.538 339.707 669.777 339.262C669.806 339.036 669.862 338.816 669.945 338.606C679.13 313.431 690.355 289.195 703.487 266.183C718.385 240.26 735.853 216.194 755.578 194.417L759.737 190.075C759.919 189.894 760.109 189.723 760.307 189.564C783.096 174.274 804.722 157.022 824.977 137.974C844.94 119.156 863.502 98.6484 880.489 76.6429C897.525 54.4344 912.734 30.6396 925.938 5.53339C939.832 -20.8089 950.189 -49.1776 956.696 -78.7106C963.175 -108.354 965.895 -138.822 964.78 -169.267C963.643 -198.69 957.974 -227.697 948.009 -255.08C938.717 -281.033 925.523 -305.125 908.966 -326.371C906.786 -329.035 904.572 -331.771 902.257 -334.435C881.107 -352.614 857.477 -367.091 832.221 -377.341C805.742 -387.932 777.638 -392.886 749.44 -391.935C731.017 -391.302 712.684 -388.86 694.665 -384.638C693.883 -384.452 693.065 -384.608 692.387 -385.072C691.71 -385.536 691.227 -386.271 691.043 -387.119C690.874 -387.99 691.03 -388.898 691.477 -389.644C691.923 -390.39 692.624 -390.912 693.424 -391.096C711.796 -395.415 730.487 -397.931 749.272 -398.612C778.253 -399.54 807.129 -394.412 834.335 -383.507C858.354 -373.709 880.949 -360.192 901.419 -343.373C901.419 -344.65 901.419 -345.854 901.419 -347.022C901.222 -371.313 898.545 -395.505 893.436 -419.153C890.675 -431.273 887.179 -443.181 882.971 -454.799C873.139 -482.596 860.944 -509.334 846.544 -534.665C832.725 -558.954 817.535 -582.289 801.061 -604.534C784.479 -626.836 766.657 -648.013 747.695 -667.945C728.878 -688.065 708.411 -706.274 686.548 -722.344C665.036 -738.314 642.247 -752.149 618.458 -763.682C594.051 -775.47 568.668 -784.706 542.653 -791.264C515.738 -797.937 488.115 -800.6 460.541 -799.182C431.969 -797.556 403.745 -791.6 376.686 -781.486C352.868 -772.614 330.293 -760.2 309.602 -744.6C286.78 -727.478 267.748 -705.045 253.889 -678.927C241.3 -655.377 232.423 -629.702 227.625 -602.965C249.025 -610.882 270.995 -617.887 292.965 -623.761C320.658 -631.069 348.742 -636.491 377.055 -639.997C403.124 -643.238 429.437 -643.433 455.544 -640.581C483.201 -637.226 509.792 -627.057 533.294 -610.846C557.73 -594.981 578.781 -573.638 595.045 -548.237C595.276 -547.883 595.44 -547.483 595.528 -547.06C595.616 -546.637 595.626 -546.199 595.558 -545.771C595.489 -545.344 595.343 -544.935 595.129 -544.57C594.914 -544.204 594.635 -543.888 594.307 -543.64C593.64 -543.149 592.823 -542.959 592.029 -543.109C591.235 -543.258 590.525 -543.736 590.048 -544.443C574.251 -569.081 553.834 -589.797 530.141 -605.227C507.388 -620.918 481.647 -630.763 454.873 -634.014C429.213 -636.848 403.347 -636.652 377.726 -633.43C349.675 -629.937 321.849 -624.564 294.407 -617.34C270.928 -611.028 247.448 -603.512 224.774 -594.902H224.506C199.443 -587.386 174.997 -577.624 151.417 -565.714C128.199 -553.983 106.023 -539.95 85.1717 -523.792C64.4828 -507.886 45.0504 -490.129 27.0768 -470.706C10.1211 -452.341 -5.75347 -432.832 -20.4524 -412.294L-38.2297 -382.048C-38.3418 -381.836 -38.4769 -381.64 -38.6322 -381.464L-53.5585 -350.853C-65.2758 -322.639 -74.1274 -293.118 -79.9561 -262.814C-85.1508 -235.693 -87.9587 -208.095 -88.3416 -180.395V-179.008C-87.8011 -150.79 -85.165 -122.666 -80.4592 -94.91C-75.559 -67.4886 -68.3391 -40.6186 -58.8917 -14.6428C-48.5833 14.1094 -35.5192 41.6006 -19.9157 67.3756C-9.93371 83.8787 1.41742 99.3523 13.9953 113.602L72.4928 172.927L96.2741 193.286C96.6083 193.553 96.8882 193.893 97.0963 194.284C97.3043 194.675 97.436 195.108 97.4833 195.556C97.5305 196.005 97.4922 196.459 97.3707 196.891C97.2492 197.323 97.0472 197.722 96.7773 198.065C96.2711 198.74 95.5438 199.173 94.7491 199.276C93.9543 199.378 93.1541 199.14 92.5174 198.612L71.3859 180.589C58.5346 204.242 47.4631 228.986 38.2798 254.581C35.9654 261.148 33.651 267.752 31.3031 274.246V275.012C30.0681 306.006 35.826 336.858 48.0741 364.875C59.73 391.991 77.8572 415.212 100.568 432.117C123.482 449.463 148.264 463.689 174.36 474.476C199.114 484.802 224.371 494.397 249.494 502.898C275.305 511.42 300.498 522.018 324.864 534.604C349.347 546.997 373.086 561.059 395.939 576.708C399.294 579.006 402.379 581.195 405.633 583.384C405.707 583.477 405.799 583.551 405.901 583.603C427.296 601.576 447.566 621.078 466.579 641.979C481.719 658.687 495.964 676.326 509.245 694.81C525.386 719.042 539.326 744.922 550.87 772.085C562.35 798.713 571.177 826.6 577.201 855.271C583.354 884.58 587.025 914.44 588.169 944.477C589.348 974.052 588.765 1003.68 586.425 1033.17C586.022 1038.94 585.452 1044.74 584.815 1050.5L606.081 1000.45C606.246 1000.06 606.482 999.706 606.772 999.416C607.063 999.125 607.404 998.901 607.776 998.755C608.147 998.609 608.541 998.545 608.935 998.566C609.329 998.586 609.716 998.692 610.072 998.876C610.437 999.054 610.767 999.308 611.041 999.625C611.315 999.942 611.528 1000.31 611.669 1000.72C611.809 1001.13 611.874 1001.56 611.859 1002C611.844 1002.43 611.75 1002.86 611.582 1003.25L581.863 1073.16C572.346 1102.27 568.741 1133.28 571.298 1164.04C573.486 1191.35 581.789 1217.65 595.481 1240.66C610.471 1266.39 629.822 1288.77 652.503 1306.63C675.021 1324.54 700.989 1336.66 728.442 1342.06C741.721 1344.63 755.213 1345.67 768.693 1345.16C797.411 1344.47 825.795 1338.29 852.548 1326.91C878.544 1315.76 902.475 1299.6 923.188 1279.19C943.339 1259.62 961.347 1237.58 976.855 1213.52C991.969 1189.85 1005.1 1164.76 1016.1 1138.54C1027.21 1111.93 1035.59 1084.07 1041.09 1055.46C1046.98 1024.77 1062.37 997.194 1084.69 977.35C1092.86 970.144 1102.02 964.37 1111.83 960.239C1112.09 960.109 1112.38 960.046 1112.67 960.056C1141.95 957.42 1171.39 962.424 1198.53 974.65C1211.66 980.312 1224.11 987.662 1235.63 996.541C1235.8 996.622 1235.95 996.748 1236.07 996.906C1256.68 1019.4 1274.14 1045.07 1287.89 1073.09C1301.02 1099.6 1310.47 1128.09 1315.93 1157.62C1318.78 1172.48 1320.71 1187.54 1321.7 1202.68V1203.16C1321.83 1203.71 1321.83 1204.28 1321.7 1204.83L1313.68 1327.02C1313.68 1327.02 1313.68 1327.21 1313.68 1327.28C1309.89 1358.02 1301.09 1387.79 1287.69 1415.17C1276.77 1437.57 1262.75 1458 1246.1 1475.74C1245.7 1476.17 1245.19 1476.47 1244.64 1476.61C1244.09 1476.75 1243.52 1476.73 1242.98 1476.54C1205.72 1462.25 1167.21 1452.15 1128.06 1446.4C1073.93 1437.98 1018.93 1438.62 964.981 1448.3C945.983 1451.54 927.252 1456.42 908.966 1462.89C890.217 1469.59 872.046 1478.06 854.661 1488.21C823.381 1506.39 794.196 1528.55 767.72 1554.22L756.45 1565.16C735.332 1585.93 717.237 1610.07 702.783 1636.75C688.553 1662.73 678.354 1691.08 672.595 1720.66C670.248 1732.32 668.678 1744.15 667.899 1756.05C667.016 1786.94 671.254 1817.75 680.41 1847.01C689.112 1875.21 702.784 1901.3 720.661 1923.81C739.201 1947.43 761.281 1967.46 785.967 1983.06C810.48 1998.66 837.922 2008.01 866.233 2010.43C892.915 2012.81 919.774 2009.95 945.527 2002L948.881 2001.05C913.067 1977.02 871.783 1964.38 829.706 1964.56C829.305 1964.57 828.907 1964.49 828.535 1964.32C828.163 1964.16 827.824 1963.92 827.538 1963.62C827.251 1963.31 827.023 1962.95 826.865 1962.55C826.708 1962.15 826.624 1961.72 826.62 1961.28C826.629 1960.4 826.952 1959.56 827.522 1958.93C828.091 1958.3 828.862 1957.94 829.672 1957.92C875.147 1957.78 919.654 1972.2 957.635 1999.41L1014.66 2041.4L1015.06 2041.77C1035.74 2063.32 1052.53 2088.9 1064.57 2117.18C1076.33 2144.91 1082.93 2174.89 1083.99 2205.4C1084.51 2217.88 1084.3 2230.39 1083.35 2242.84C1083.35 2242.84 1083.35 2242.84 1083.35 2243.05C1078.59 2274.4 1065.8 2303.65 1046.46 2327.44C1043.26 2331.29 1040.08 2335.18 1036.93 2339.12C1018.68 2359.59 998.509 2377.93 976.755 2393.85C952.999 2411.24 927.84 2426.25 901.587 2438.69C895.448 2441.53 889.21 2444.49 883.071 2447.63C857.804 2462.15 835.302 2481.76 816.759 2505.42C800.118 2526.77 787.675 2551.6 780.198 2578.39C772.15 2607.85 767.971 2638.4 767.787 2669.13C767.528 2699.82 769.954 2730.47 775.032 2760.67C780.084 2790.68 787.836 2820.09 798.176 2848.45C808.245 2876.06 821.791 2902.02 838.427 2925.58C855.45 2949.8 876.071 2970.77 899.44 2987.61C923.057 3004.63 948.418 3018.6 975.01 3029.24C999.764 3039.01 1025.32 3047.66 1050.65 3054.96C1076.06 3062.15 1101.81 3067.8 1127.79 3071.89C1151.28 3075.69 1174.94 3078.12 1198.67 3079.18L1345.62 3084H1345.78C1373.68 3086.54 1400.93 3094.45 1426.29 3107.35C1452.39 3120.34 1475.46 3139.56 1493.81 3163.57C1512.59 3187.78 1526.99 3215.63 1536.24 3245.66V3245.88C1543.46 3276.79 1545.91 3308.78 1543.48 3340.56C1541.16 3369.14 1535.18 3397.22 1525.74 3424C1516.94 3452.53 1504.68 3479.65 1489.28 3504.64C1487.1 3508.07 1484.98 3511.6 1482.9 3515.11C1482.79 3515.24 1482.69 3515.39 1482.6 3515.54C1465.83 3536.12 1448.56 3557.06 1431.18 3577.57C1413.71 3598.3 1397.99 3620.71 1384.22 3644.52C1370.16 3668.75 1358.02 3694.23 1347.93 3720.7C1337.58 3747.69 1329.72 3775.72 1324.45 3804.4C1320.77 3824.54 1318.38 3844.94 1317.27 3865.44C1315.5 3924.01 1331.04 3981.66 1361.62 4029.91C1381.73 4052.62 1399.71 4077.45 1415.28 4104.05C1429.09 4127.67 1440.77 4152.7 1450.13 4178.77C1459.16 4203.7 1466.8 4229.2 1473.01 4255.13C1475.76 4266.52 1478.61 4278.23 1481.5 4289.87C1487.97 4319.75 1492.58 4350.08 1495.28 4380.64C1497.29 4404.8 1498.23 4429.31 1498.13 4453.61C1499.24 4472.33 1500.38 4491.23 1501.49 4509.98C1503.23 4538.19 1505.14 4566.79 1507.12 4595.03C1509 4619.18 1510.85 4643.35 1512.66 4667.52C1514.8 4695.55 1516.21 4724.04 1516.88 4752.13C1517.25 4770.63 1517.29 4789.57 1516.88 4808.43L1513.16 4971.04L1504.64 5375.3L1502.56 5424.52V5427.25C1502.56 5443.42 1501.86 5459.83 1501.02 5476.33C1500.18 5492.82 1499.41 5508.65 1498.84 5523.57C1498.27 5538.5 1497.76 5553.35 1497.36 5567.14C1496.94 5581.17 1495.7 5595.16 1493.67 5609.02C1491.76 5618.61 1492.59 5628.6 1496.05 5637.66L1496.02 5637.74ZM1492.3 5643.28C1491.6 5642.42 1491 5641.46 1490.52 5640.44C1486.54 5630.17 1485.58 5618.81 1487.77 5607.93C1489.73 5594.34 1490.93 5580.63 1491.36 5566.88C1491.79 5553.13 1492.3 5538.46 1492.87 5523.36C1493.44 5508.25 1494.11 5492.38 1495.01 5475.92C1495.92 5459.47 1496.36 5443.09 1496.56 5427.18V5424.52C1496.54 5424.43 1496.54 5424.35 1496.56 5424.26L1498.6 5375.08L1507.36 4971.12L1511.15 4808.47C1511.42 4789.71 1511.35 4770.89 1511.15 4752.5C1510.48 4724.51 1509.07 4696.2 1506.95 4668.25C1505.12 4644.1 1503.28 4619.92 1501.42 4595.72C1499.41 4567.48 1497.5 4538.81 1495.75 4510.6C1494.51 4491.89 1493.37 4472.84 1492.4 4454.12C1492.4 4454.12 1492.4 4454.12 1492.4 4453.9C1492.4 4429.79 1491.56 4405.42 1489.58 4381.45C1486.92 4351.25 1482.36 4321.28 1475.93 4291.77C1473.08 4280.13 1470.19 4268.41 1467.44 4256.96C1461.28 4231.31 1453.72 4206.07 1444.8 4181.4C1435.59 4155.72 1424.1 4131.09 1410.49 4107.84C1395.12 4081.52 1377.34 4056.97 1357.42 4034.55L1357.09 4034.11C1325.71 3984.61 1309.75 3925.46 1311.57 3865.36C1312.69 3844.53 1315.12 3823.81 1318.85 3803.34C1324.16 3774.23 1332.14 3745.78 1342.67 3718.4C1352.86 3691.59 1365.15 3665.77 1379.39 3641.24C1393.39 3617.08 1409.35 3594.35 1427.09 3573.3C1444.4 3552.8 1461.61 3531.96 1478.31 3511.28C1480.42 3507.63 1482.5 3504.27 1484.65 3500.88C1499.78 3476.36 1511.81 3449.74 1520.44 3421.74C1529.69 3395.5 1535.54 3367.98 1537.81 3339.98C1540.21 3308.97 1537.83 3277.75 1530.77 3247.6C1521.84 3218.25 1507.88 3191.01 1489.61 3167.33C1471.73 3144.14 1449.25 3125.64 1423.87 3113.22C1399.22 3100.62 1372.7 3092.91 1345.55 3090.46L1198.74 3085.64C1174.77 3084.55 1150.86 3082.11 1127.12 3078.34C1100.9 3074.21 1074.91 3068.5 1049.27 3061.23C1023.68 3053.94 998.054 3045.14 973.065 3035.33C946.016 3024.46 920.227 3010.2 896.22 2992.82C872.292 2975.67 851.19 2954.26 833.798 2929.48C816.759 2905.48 802.884 2879 792.575 2850.82C782.081 2822.06 774.217 2792.24 769.095 2761.8C763.973 2731.19 761.502 2700.13 761.716 2669.02C761.926 2637.66 766.194 2606.48 774.395 2576.42C782.116 2548.77 794.971 2523.14 812.163 2501.11C831.179 2476.9 854.223 2456.81 880.086 2441.9H880.254C886.459 2438.72 892.832 2435.7 899.037 2432.89C924.946 2420.59 949.769 2405.76 973.199 2388.56C994.583 2372.97 1014.38 2354.95 1032.27 2334.81C1035.35 2330.95 1038.54 2327.12 1041.73 2323.21C1060.34 2300.44 1072.68 2272.42 1077.31 2242.36C1078.22 2230.23 1078.42 2218.04 1077.92 2205.88C1076.89 2176.2 1070.48 2147.04 1059.07 2120.06C1047.42 2092.73 1031.2 2067.98 1011.24 2047.09L955.556 2006.12L947.103 2008.67C920.638 2016.83 893.044 2019.76 865.63 2017.32C836.403 2014.83 808.075 2005.17 782.78 1989.05C757.525 1973.07 734.926 1952.59 715.931 1928.44C697.566 1905.28 683.54 1878.43 674.641 1849.42C665.206 1819.38 660.854 1787.74 661.794 1756.01C662.574 1743.74 664.189 1731.55 666.624 1719.53C672.493 1689.24 682.907 1660.21 697.449 1633.61C712.247 1606.39 730.774 1581.78 752.391 1560.64C756.115 1556.99 759.905 1553.34 763.695 1549.69C790.513 1523.56 820.066 1500.95 851.743 1482.34C869.445 1472.06 887.956 1463.51 907.054 1456.8C925.665 1450.16 944.732 1445.15 964.076 1441.81C983.048 1438.42 1002.17 1436.12 1021.37 1434.91C1057.32 1432.78 1093.38 1434.45 1129.04 1439.91C1167.96 1445.64 1206.26 1455.61 1243.35 1469.68C1259.05 1452.71 1272.32 1433.28 1282.73 1412.03C1295.76 1385.34 1304.33 1356.35 1308.05 1326.4L1316.07 1204.65V1204.18C1316.03 1203.94 1316.03 1203.69 1316.07 1203.45C1315.13 1188.46 1313.22 1173.56 1310.36 1158.86C1305.02 1129.98 1295.77 1102.12 1282.93 1076.19C1269.48 1048.83 1252.43 1023.75 1232.31 1001.76C1221.22 993.249 1209.25 986.172 1196.66 980.67C1170.5 968.926 1142.15 964.1 1113.94 966.587C1104.73 970.393 1096.12 975.762 1088.45 982.495C1067.2 1001.38 1052.57 1027.65 1047.03 1056.89C1041.31 1085.83 1032.7 1114 1021.37 1140.91C1010.23 1167.52 996.917 1192.98 981.585 1216.98C965.783 1241.45 947.462 1263.88 926.978 1283.82C905.761 1304.73 881.252 1321.31 854.628 1332.75C827.232 1344.41 798.17 1350.76 768.76 1351.5C754.83 1352 740.89 1350.92 727.168 1348.26C698.827 1342.7 672.014 1330.23 648.746 1311.77C625.451 1293.42 605.577 1270.41 590.182 1243.98C575.995 1220.08 567.415 1192.76 565.193 1164.41C562.561 1132.76 566.245 1100.86 575.993 1070.9C577.838 1058.13 579.348 1045.14 580.32 1032.37C582.616 1003.15 583.188 973.809 582.031 944.514C580.892 914.882 577.266 885.425 571.197 856.512C565.216 828.244 556.456 800.758 545.068 774.53C533.727 747.77 520.01 722.28 504.113 698.422C491.023 680.158 476.955 662.749 461.984 646.285C443.216 625.638 423.191 606.391 402.044 588.675L392.417 582.034C369.77 566.521 346.244 552.58 321.979 540.295C297.87 527.831 272.934 517.355 247.381 508.955C222.158 500.381 196.766 490.712 171.912 480.314C145.383 469.347 120.195 454.875 96.9114 437.225C73.4013 419.698 54.6287 395.651 42.5397 367.575C29.852 338.545 23.887 306.579 25.1649 274.465V273.845C25.1512 273.614 25.1512 273.382 25.1649 273.151L25.3661 272.312C25.3546 272.167 25.3546 272.02 25.3661 271.875C27.7476 265.307 30.062 258.667 32.41 252.027C41.9477 225.79 53.3997 200.425 66.6564 176.174L9.83613 118.418C-3.11891 103.777 -14.8282 87.89 -25.1483 70.9512C-40.9257 44.825 -54.1356 16.9677 -64.5603 -12.1618C-74.1455 -38.5894 -81.4664 -65.9233 -86.4297 -93.8155C-91.2622 -122.009 -93.9435 -150.589 -94.4463 -179.264V-180.759C-94.0815 -208.891 -91.2285 -236.919 -85.9266 -264.456C-79.9882 -295.246 -70.9908 -325.243 -59.0929 -353.918L-43.8983 -385.112C-43.705 -385.443 -43.4921 -385.76 -43.261 -386.061L-25.5843 -415.906C-25.5091 -415.958 -25.4506 -416.035 -25.4166 -416.125C-10.5829 -437.002 5.47231 -456.818 22.6492 -475.45C40.8525 -495.134 60.5315 -513.134 81.4821 -529.265C102.601 -545.636 125.056 -559.865 148.566 -571.77C171.858 -583.617 195.999 -593.378 220.749 -600.958C225.546 -629.695 234.862 -657.318 248.287 -682.612C262.68 -709.651 282.435 -732.859 306.114 -750.547C327.239 -766.496 350.302 -779.169 374.64 -788.2C402.267 -798.579 431.088 -804.719 460.273 -806.442C488.434 -807.83 516.638 -805.094 544.128 -798.306C570.52 -791.662 596.264 -782.279 621.007 -770.286C645.123 -758.601 668.226 -744.583 690.037 -728.401C712.208 -712.115 732.957 -693.649 752.022 -673.235C771.184 -653.155 789.175 -631.794 805.891 -609.277C822.531 -586.796 837.877 -563.218 851.844 -538.678C866.42 -513.03 878.772 -485.963 888.74 -457.827C893.02 -445.927 896.594 -433.74 899.44 -421.342C904.701 -397.188 907.436 -372.464 907.591 -347.642C907.591 -344.541 907.591 -341.403 907.591 -338.412C909.67 -335.979 911.716 -333.547 913.729 -331.115C930.768 -309.302 944.369 -284.571 953.979 -257.925C964.151 -229.849 969.911 -200.113 971.019 -169.96C972.17 -138.887 969.382 -107.789 962.734 -77.5432C956.141 -47.3907 945.59 -18.4282 931.406 8.45221C917.994 33.898 902.55 58.0104 885.252 80.5103C868.062 102.745 849.299 123.483 829.136 142.535C808.678 161.68 786.889 179.075 763.963 194.563L759.737 199.233C740.49 220.603 723.439 244.19 708.887 269.576C695.962 292.227 684.916 316.085 675.882 340.868V341.269C675.824 341.974 675.58 342.646 675.177 343.203C675.158 343.299 675.158 343.399 675.177 343.495L675.01 344.407C675.01 344.407 675.01 344.407 675.01 344.662C673.433 351.303 671.655 358.089 670.414 364.839C663.549 394.52 659.758 424.943 659.111 455.541L663.203 494.725C667.54 524.822 676.787 553.834 690.506 580.392C699.958 598.75 711.289 615.885 724.283 631.472L766.445 670.583C789.324 686.608 815.112 697.074 842.049 701.267C869.26 705.709 897.024 703.907 923.557 695.977C934.927 692.532 946.123 688.44 957.099 683.718C981.517 674.706 1006.41 666.789 1031.16 660.112C1055.91 653.436 1081.47 647.999 1106.53 643.949C1131.58 639.9 1157.18 637.273 1182.37 635.886C1207.56 634.5 1232.41 634.099 1257.2 634.573C1281.99 635.047 1307.21 636.908 1331.9 639.681C1347.7 641.286 1363.63 643.037 1379.26 644.898C1379.38 644.915 1379.51 644.915 1379.63 644.898L1381.47 645.336C1409.1 652.66 1436.25 661.971 1462.75 673.21L1492.93 686.053H1493.37L1548.35 721.334C1571.85 737.233 1592.8 757.212 1610.36 780.477C1628.55 804.383 1641.9 832.194 1649.54 862.094C1657.45 891.82 1660.32 922.865 1657.99 953.708C1655.53 984.906 1645.57 1014.85 1629.11 1040.54C1616.83 1059.73 1601.58 1076.46 1584.03 1089.98C1585.23 1109.63 1588.26 1129.11 1593.06 1148.1C1600.37 1177.6 1611.6 1205.79 1626.4 1231.76C1632.51 1242.4 1637.59 1253.7 1641.56 1265.47C1642.99 1269.65 1643.77 1274.07 1643.84 1278.53C1643.84 1287.44 1643.84 1296.49 1643.61 1305.39C1643.37 1336.76 1639.69 1368 1632.64 1398.42C1625.6 1428.45 1615.24 1457.44 1601.78 1484.75C1596.32 1495.73 1590.23 1506.32 1583.53 1516.45C1567.79 1540.4 1550.43 1563.02 1531.57 1584.13C1512.79 1605.09 1492.68 1624.6 1471.4 1642.51C1457.01 1654.71 1442 1666.03 1426.45 1676.4C1442.69 1671.42 1459.28 1667.95 1476.06 1666.04C1505.07 1662.67 1534.38 1664.42 1562.87 1671.22C1590.51 1677.77 1617.13 1688.65 1641.89 1703.51C1666.8 1718.7 1688.51 1739.4 1705.62 1764.26C1723.03 1789.33 1735.59 1817.97 1742.52 1848.47C1749.81 1879.79 1749.49 1912.63 1741.58 1943.77C1734.13 1974.05 1718.01 2000.97 1695.56 2020.64C1676.1 2038 1655.55 2053.85 1634.05 2068.07C1610.43 2082.76 1589.14 2101.47 1570.99 2123.49C1562.06 2134.33 1554.06 2146.05 1547.1 2158.48C1550.61 2167.9 1555.65 2176.56 1562 2184.02C1577.49 2202.02 1598.45 2213.32 1621 2215.84C1638.75 2218.17 1656.74 2217.11 1674.16 2212.7C1674.54 2212.61 1674.93 2212.61 1675.3 2212.7C1704.3 2217.55 1731.86 2229.66 1755.8 2248.09C1778.94 2265.65 1797.39 2289.57 1809.27 2317.41C1821.6 2345.92 1829.13 2376.6 1831.51 2408C1834.04 2439.08 1829.06 2470.33 1817.08 2498.67C1805.56 2525.98 1788.82 2550.31 1767.98 2570.03C1746.33 2590.64 1722.01 2607.65 1695.8 2620.53C1687.95 2624.18 1679.9 2627.83 1671.71 2630.82C1697.11 2640.54 1721.57 2652.92 1744.77 2667.78C1752.78 2673.32 1760.7 2678.91 1768.72 2684.52L1769.09 2684.85C1789.21 2704.83 1806.56 2727.87 1820.61 2753.26C1835.57 2779.96 1846.09 2809.32 1851.7 2839.99C1857.2 2869.46 1859.25 2899.56 1857.8 2929.59C1856.59 2957.42 1852.89 2985.04 1846.77 3012.09C1840.2 3041.36 1830.38 3069.65 1817.52 3096.33C1806.88 3118.35 1798.34 3141.49 1792.03 3165.4C1786.83 3193.01 1784.21 3221.13 1784.21 3249.31C1784.05 3274.22 1785.92 3299.09 1789.78 3323.63C1794.34 3352.37 1803.18 3380.11 1815.94 3405.76C1829.34 3432.81 1847.38 3456.83 1869.08 3476.51C1885.85 3491.1 1902.62 3505.88 1919.59 3520.76C1919.59 3520.76 1919.59 3520.76 1919.59 3520.94C1921.39 3522.79 1922.89 3524.97 1924.02 3527.37C1935.56 3552.75 1942.57 3580.28 1944.68 3608.51C1949.36 3671.23 1937.52 3734.1 1910.53 3789.77C1897.73 3816.35 1881.87 3841.05 1863.34 3863.28C1860.32 3866.93 1857.34 3870.58 1854.32 3874.01C1836.19 3897.4 1815.13 3917.91 1791.76 3934.94C1785.76 3939.28 1779.75 3943.62 1773.75 3948.04L1757.68 3993.83C1757.68 3994.01 1757.68 3994.16 1757.45 3994.34C1757.43 3994.5 1757.43 3994.66 1757.45 3994.81C1749.06 4021.23 1741.48 4048.23 1734.87 4075.08C1728.27 4101.93 1722.5 4128.97 1717.87 4156.22C1713.34 4182.38 1709.48 4209.05 1706.36 4235.36C1705.46 4243.5 1704.55 4251.52 1703.68 4259.62L1688.15 4414.35L1632.57 4809.78L1612.08 4962.29L1557.23 5378.22C1557.23 5378.44 1557.23 5378.69 1557.07 5378.87L1546.17 5463.19C1546.2 5463.37 1546.2 5463.56 1546.17 5463.74C1546.22 5464.13 1546.22 5464.52 1546.17 5464.91C1544.82 5473.66 1543.55 5482.64 1542.31 5491.61C1540.09 5507.41 1537.98 5523.5 1536 5539.52C1534.02 5555.54 1532.35 5571.44 1530.97 5587.2C1529.52 5603.77 1525.91 5620.04 1520.27 5635.51C1519.39 5638.08 1517.95 5640.39 1516.08 5642.22C1513.38 5645.21 1509.86 5647.16 1506.06 5647.78C1502.26 5648.41 1498.37 5647.67 1494.98 5645.69C1494.94 5645.67 1494.89 5645.66 1494.85 5645.66C1494.8 5645.66 1494.75 5645.67 1494.71 5645.69C1493.84 5645.08 1493.05 5644.34 1492.36 5643.5" fill="white"/>
</g>
<g style="mix-blend-mode:soft-light" opacity="0.58">
<path d="M731.092 -303.239C730.589 -308.53 729.918 -313.565 729.113 -318.235C728.202 -323.002 727.026 -327.705 725.591 -332.318C724.222 -336.763 722.529 -341.082 720.527 -345.234L720.359 -345.599V-345.854L719.151 -348.299L714.187 -356.508V-356.727C711.835 -360.137 709.233 -363.333 706.405 -366.286L705.399 -367.38L702.045 -370.372C701.206 -371.175 699.73 -372.379 697.785 -374.021C697.248 -374.385 696.879 -374.714 696.645 -374.896L693.29 -377.122C692.561 -377.652 691.799 -378.127 691.009 -378.545L690.506 -378.91L688.829 -379.895C685.475 -381.682 682.658 -383.105 680.142 -384.163L677.492 -385.112L677.022 -385.404L661.861 -389.782H661.425L655.488 -390.913L632.847 -392.555V-392.336H633.015L644.42 -391.205L661.191 -387.921H661.526L675.178 -383.288L685.24 -378.253L686.314 -377.633L686.817 -377.268L687.353 -377.012L688.36 -376.319L688.896 -375.991L693.559 -372.707L693.76 -372.488L694.498 -371.941C694.824 -371.616 695.184 -371.334 695.571 -371.102L701.944 -365.118L703.319 -363.476C705.914 -360.652 708.25 -357.561 710.296 -354.246L710.531 -353.99L714.489 -346.949V-346.584L714.657 -346.255C714.914 -345.795 715.149 -345.32 715.361 -344.832L715.864 -343.738V-343.337C717.605 -339.37 719.085 -335.273 720.292 -331.078C721.489 -326.624 722.474 -322.106 723.243 -317.542C723.881 -313.127 724.417 -308.384 724.719 -303.312C725.021 -298.241 725.055 -293.097 724.954 -288.317C724.854 -283.537 724.485 -277.882 724.116 -272.847C723.747 -267.812 722.975 -262.303 722.237 -257.049L719.151 -238.807V-238.259L712.04 -207.904C711.101 -204.255 709.525 -198.71 707.345 -191.303L695.001 -153.432L677.526 -106.585C673.791 -97.3419 669.073 -86.1532 663.371 -73.0185C653.979 -51.4923 643.849 -29.5283 632.982 -7.12646C624.037 11.6025 613.594 32.5693 601.653 55.7738L508.641 226.816L483.619 271.036C483.619 271.036 483.619 271.036 483.619 271.255L551.105 162.639L608.798 60.1885C620.448 38.2975 631.148 17.4037 640.898 -2.49286C652.078 -25.4542 662.32 -47.5519 671.622 -68.7863C676.922 -80.948 681.662 -92.2583 685.844 -102.717C690.518 -114.149 694.878 -125.521 698.925 -136.831L715.696 -188.129L720.258 -205.131C721.197 -208.925 722.506 -214.544 724.183 -221.987C725.457 -228.153 726.564 -233.699 727.537 -238.77C728.275 -243.076 729.113 -248.548 730.019 -255.371C730.925 -262.194 731.26 -267.302 731.528 -271.716C731.931 -277.846 732.065 -283.209 732.065 -287.697C732.065 -293.802 731.864 -298.983 731.461 -303.239" fill="white"/>
</g>
<g style="mix-blend-mode:soft-light" opacity="0.58">
<path d="M509.111 634.099L485.799 600.095L459.704 568.827L448.937 557.48L448.433 556.969L447.997 556.495L431.495 540.588L406.942 519.39L405.969 518.624L403.957 517.055C403.084 516.362 402.447 515.778 402.011 515.522C401.702 515.223 401.377 514.943 401.038 514.683L359.111 485.057L331.304 468.347L300.613 452.367C300.613 452.367 300.412 452.367 300.446 452.367C300.479 452.367 300.446 452.367 300.446 452.367L301.62 453.133C302.703 453.878 303.823 454.56 304.974 455.176C305.41 455.541 306.248 456.015 307.456 456.818L323.456 467.034C323.886 467.217 324.293 467.462 324.663 467.763L351.497 486.006L395.739 520.01L396.712 520.813L436.224 557.298L441.993 563.281L442.53 563.719L453.364 575.54C458.865 581.743 463.796 587.507 468.123 592.907L476.609 603.524L495.359 629.867L507.669 649.35C511.929 656.647 515.618 663.251 518.671 669.125L528.733 689.045C531.886 695.941 534.771 702.508 537.421 708.857L538.125 710.645V711.009V711.374L544.498 728.267C548.557 739.468 552.38 751.654 555.936 764.752L560.296 781.718V782.265L564.757 803.28L569.956 834.84V835.679L570.929 842.976C570.929 843.158 570.929 843.195 571.13 842.976C571.332 842.757 571.13 842.976 571.13 842.976L569.755 821.085C568.917 812 567.91 803.609 566.803 795.91L564.489 781.316V780.842V780.295L561.504 765.701C561.383 764.935 561.215 764.18 561.001 763.439L557.848 749.866L545.068 708.237V707.872V707.507L544.8 706.996L542.519 700.903V700.611L531.484 675.072L521.119 654.567L520.817 653.837L520.448 653.29L509.111 634.099Z" fill="white"/>
</g>
<g style="mix-blend-mode:soft-light" opacity="0.58">
<path d="M1117.4 946.922C1117.4 946.922 1117.4 946.922 1117.2 946.74L1072.05 955.313L1046.52 962.428C1037.83 965.164 1029.45 968.047 1021.47 971.148L1008.45 976.548C1004.69 978.226 1000.27 980.196 995.236 982.568C986.56 986.824 977.839 991.604 969.073 996.907L947.573 1011.68L932.814 1023.72C929.024 1027.15 925.502 1030.47 922.181 1033.79L911.28 1045.5L903.968 1054.66C901.687 1057.47 899.205 1061.01 896.387 1065.17L893.033 1070.39L892.564 1071.08L888.438 1078.05L883.641 1087.17L875.39 1106.54V1106.95L870.426 1123L870.225 1123.95C870.225 1123.95 870.225 1124.13 870.225 1123.95C870.225 1123.77 870.392 1123.95 870.392 1123.95L876.094 1110.96C878.308 1106.22 880.824 1101.4 883.541 1096.36L885.319 1093.3L885.553 1092.64L892.899 1081L902.291 1067.94L918.022 1049.7C921.544 1046.05 924.73 1042.8 927.716 1040.1L949.518 1021.86C952.872 1019.27 956.83 1016.43 961.258 1013.32L973.601 1005.55C982.099 1000.3 990.54 995.544 998.926 991.288L1021.97 980.342L1065.57 963.34L1117.3 947.031C1117.3 947.031 1117.46 947.031 1117.3 946.849" fill="white"/>
</g>
<g style="mix-blend-mode:soft-light" opacity="0.58">
<path d="M624.194 345.866C624.194 345.866 624.194 345.684 624.194 345.866C624.194 346.049 624.026 345.866 624.194 345.866L614.668 370.275L614.333 371.37L614.131 371.88L608.396 393.297L605.041 413.838V414.203V414.495L604.807 417.377C604.605 418.873 604.471 420.077 604.438 421.026L603.901 428.323C603.633 433.686 603.566 438.83 603.901 443.792L604.941 459.955C605.511 465.136 606.35 470.682 607.456 476.52L613.897 501.366L623.422 525.592C625.837 530.627 628.465 535.735 631.305 540.916L640.093 555.51C643.112 559.997 646.332 564.522 649.619 569.009L654.516 575.467L674.977 598.599C676.52 600.241 678.331 601.882 680.075 603.67L681.014 604.655L705.567 626.546L717.34 635.631C721.075 638.453 725.726 641.785 731.294 645.628L743.771 653.728C743.771 653.728 743.939 653.728 743.973 653.728L698.859 613.01L673.803 585.938L655.422 562.916L655.254 562.478L638.483 535.917C635.699 530.955 633.217 526.03 631.037 521.323L623.087 502.205L617.083 482.576L615.238 474.695C614.131 469.624 613.226 464.443 612.488 459.007C611.817 454.701 611.314 449.557 610.911 443.61L610.442 429.016C610.442 425.112 610.442 420.442 610.911 414.823L612.085 401.689C612.958 393.986 614.201 386.338 615.808 378.776L619.867 361.373L624.194 345.866Z" fill="white"/>
</g>
<g style="mix-blend-mode:soft-light" opacity="0.58">
<path d="M791.234 82.6638H791.402C791.402 82.6638 791.402 82.4813 791.402 82.6638C789.853 81.8116 788.236 81.1154 786.571 80.5841C784.995 80.0733 783.217 79.5625 781.674 79.1977L769.599 77.7383H766.245L761.147 77.9937L751.084 79.4531C747.69 80.0594 744.33 80.8755 741.021 81.8976C737.667 82.8097 734.514 83.8678 731.261 84.9988L721.634 88.6473C718.28 90.1432 714.926 91.6391 712.209 93.0255C710.934 93.6458 707.882 95.2146 703.018 97.8051L687.32 106.963L644.789 137.282L642.34 139.69L612.521 176.175C606.148 184.494 601.352 190.769 598.199 195.001C592.061 203.283 587.432 209.595 584.313 214.156L545.571 274.028C541.546 280.924 537.689 287.856 533.932 294.825L522.964 316.241C518.872 324.669 515.518 331.93 512.901 338.132L499.485 371.845L495.325 383.958L483.351 428.725V429.454L480.6 443.684V444.413L480.399 445.143L479.896 448.792V449.12L478.655 458.57V459.299V460.065L477.045 478.308L479.46 463.349L481.204 454.447C482.345 448.865 483.217 444.924 483.787 442.662L486.604 430.987C488.684 423.325 490.898 415.59 493.313 407.928C493.682 406.98 494.923 403.222 497.103 396.618L506.528 371.443L519.71 341.635C523.635 333.28 527.123 326.202 530.109 320.364L541.312 299.531C544.666 293.438 548.657 286.579 553.152 279.099L578.376 239.367C581.26 234.953 585.721 228.422 591.792 219.957C597.864 211.493 602.392 205.363 605.511 201.021C608.631 196.68 613.394 190.076 619.532 182.268L648.412 145.783L648.009 146.184L648.613 145.601L648.412 145.783L664.143 133.123C665.954 131.736 667.497 130.642 668.201 129.912L697.484 109.006L714.993 98.5348C718.917 96.3092 721.936 94.8863 723.982 93.7917L732.904 89.4865C735.487 88.3919 738.573 87.1879 742.195 85.838C745.818 84.488 748.602 83.7948 751.855 82.9556C755.073 82.0683 758.331 81.362 761.616 80.8395L762.824 80.6206H763.494H763.796H764.098H765.373H765.943H767.452H767.788L772.786 80.4017H774.664L781.54 80.949L791.234 82.6638Z" fill="white"/>
</g>
<g style="mix-blend-mode:soft-light" opacity="0.58">
<path d="M365.182 406.03L376.955 428.797C377.31 429.41 377.613 430.058 377.861 430.731L382.691 441.457C382.985 441.933 383.222 442.448 383.395 442.99L390.338 459.7C390.338 459.7 390.338 459.7 390.573 459.7L387.689 447.988C386.515 443.573 385.207 439.195 383.764 434.78L375.882 413.327L363.572 388.663C362.633 387.094 362.13 386.255 361.995 386.073L357.232 378.192C355.354 375.31 352.973 371.917 350.155 368.086L345.795 362.467L338.013 353.346C335.195 350.5 333.753 348.967 333.585 348.785L331.942 346.997L324.395 339.883C320.839 336.854 317.686 334.228 314.533 331.856L304.269 324.559C303.095 323.866 302.29 323.355 301.72 322.954L299.037 321.348C298.624 321.038 298.186 320.769 297.729 320.546L288.505 315.365L287.8 315.109L283.842 313.103L264.958 305.331L242.116 299.129L216.892 295.48L203.777 294.933H202.972C202.972 294.933 202.771 294.933 202.972 294.933H203.677L213.739 297.049C216.322 297.524 220.448 298.509 226.15 299.968L241.915 304.419L266.769 313.832L269.755 315.292C274.216 317.371 277.503 318.94 279.817 320.217L280.455 320.509L284.211 322.516L284.781 322.954L294.844 328.937L296.085 329.703L308.865 338.825L309.435 339.299C309.938 339.7 310.743 340.284 311.783 341.16L318.625 347.654C321.689 350.305 324.641 353.078 327.481 355.973L342.206 372.281L343.614 374.069C346.7 377.985 349.082 381.123 350.759 383.482L365.182 406.03Z" fill="white"/>
</g>
<g style="mix-blend-mode:soft-light" opacity="0.58">
<path d="M1528.76 1086.15L1504.81 1090.89H1504.37H1503.8L1483.17 1092.94L1474.22 1093.23C1465.4 1093.4 1456.59 1092.99 1447.82 1091.99L1417.93 1086.37L1394.45 1078.89L1366.35 1066.41L1359.03 1062.47L1357.22 1061.52L1356.79 1061.16H1356.28L1332.54 1046.09L1304.9 1025.07C1296.88 1018.4 1289.23 1011.65 1281.92 1004.71L1281.18 1004.09L1247.64 970.163L1223.02 942.361C1223.02 942.179 1223.02 942.142 1222.79 942.361C1222.55 942.58 1222.79 942.544 1222.79 942.361L1223.36 943.31L1231.94 955.642C1236.84 962.282 1240.53 967.208 1243.08 970.491L1249.18 978.226L1277.22 1009.9C1283.93 1017.01 1291.58 1024.16 1299.87 1031.53L1328.54 1054.37L1352.46 1069.73L1373.96 1080.68L1401.36 1091.04C1406.49 1092.7 1411.7 1094.08 1416.96 1095.16L1425.72 1096.95L1445.37 1099.36L1467.98 1099.54C1470.13 1099.52 1472.28 1099.38 1474.42 1099.1C1482.05 1098.47 1489.65 1097.37 1497.16 1095.78L1505.31 1093.92L1528.79 1086.19C1528.79 1086.19 1528.99 1086.19 1528.79 1086.19L1528.76 1086.15Z" fill="white"/>
</g>
<g style="mix-blend-mode:soft-light" opacity="0.58">
<path d="M985.442 1513.06L986.113 1513.39L1015.36 1526.01L1047.03 1536.08C1054.97 1538.09 1062.82 1539.73 1070.5 1541.08L1094.79 1543.96H1095.19L1103.41 1544.26H1103.85L1122.56 1543.82C1127.26 1543.45 1131.69 1542.98 1135.98 1542.29L1142.69 1541.26L1161.87 1536.48C1166 1535.17 1170.06 1533.75 1173.98 1532.07L1179.82 1529.59L1180.56 1529.19L1181.26 1528.93L1194.68 1521.63L1195.01 1521.38H1195.35L1213.93 1507.88C1218.64 1503.82 1223.12 1499.46 1227.35 1494.82L1234.22 1486.86L1244.09 1473.26C1244.25 1473.26 1244.25 1473.26 1244.09 1473.07H1243.92L1227.88 1489.16L1211.11 1502.77L1201.99 1508.83L1201.45 1509.23L1192.43 1514.48C1188.24 1516.6 1184.85 1518.13 1182.2 1519.52L1171.1 1523.9C1166.57 1525.54 1162.71 1526.82 1159.43 1527.55L1144.97 1531.01L1125.21 1533.71H1124.41H1123.6L1095.63 1534.11H1095.16H1094.76L1071.51 1532.18C1064.13 1531.16 1056.38 1529.95 1048.37 1528.53L1043.64 1527.58H1042.93L985.442 1512.77H985.274C985.274 1512.77 985.274 1513.02 985.274 1512.99" fill="white"/>
</g>
<g style="mix-blend-mode:soft-light" opacity="0.58">
<path d="M1370.91 2141.81L1371.48 2142.14L1389.32 2156L1389.83 2156.33L1393.01 2159.32H1393.25L1393.45 2159.58L1396.6 2162.5C1401.53 2167.31 1406.06 2172.13 1410.29 2177.09L1429.17 2201.46L1446.24 2229.12L1463.65 2263.49C1463.65 2263.74 1463.65 2263.78 1463.89 2263.49C1464.12 2263.19 1463.89 2263.49 1463.89 2263.49L1455.94 2244.22C1453.22 2238.09 1450.27 2231.89 1447.05 2225.54L1437.89 2208.39L1426.15 2189.86C1422.46 2184.39 1418.4 2178.91 1413.94 2173.4L1413.51 2172.93L1413.17 2172.35L1396.84 2154.43L1386.51 2145.02C1386.27 2144.8 1385.94 2144.58 1385.5 2144.25L1369.33 2132.1C1363.43 2128.46 1357.66 2124.81 1351.92 2121.96L1334.75 2114.66L1333.51 2114.26C1327.24 2112.06 1320.85 2110.26 1314.39 2108.86C1301.48 2106.07 1288.34 2104.77 1275.18 2105C1269.31 2105 1262.74 2105.32 1255.56 2106.05C1249.59 2106.71 1243.11 2107.68 1236.14 2108.97C1229.86 2110.21 1223.59 2111.67 1217.35 2113.28H1217.79H1216.92H1217.35C1214.23 2113.28 1210.44 2113.28 1206.02 2113.28L1197.19 2112.55L1195.72 2112.29H1194.98L1186.59 2110.91L1166.84 2105.58L1148.62 2098.28L1123.1 2084.78L1110.19 2076.5C1109.73 2076.27 1109.29 2076 1108.88 2075.7L1087.08 2059.68L1062.69 2038.99L1039.91 2017.36L1030.99 2008.38L1013.68 1989.92C1008.39 1984.23 1002.75 1977.88 996.914 1971.02L962.332 1929.32L917.654 1870.69C917.654 1870.69 917.654 1870.51 917.453 1870.69C917.251 1870.87 917.285 1870.69 917.453 1870.69L960.99 1934.76L1008.85 1995.07L1039.04 2027.9L1059.64 2047.9L1086.17 2070.59C1086.71 2070.99 1087.14 2071.28 1087.41 2071.54L1109.21 2087.37L1110.49 2088.18L1119.17 2093.72L1142.12 2106.24L1159.56 2113.53L1176.83 2118.9L1192.97 2122.03C1197.23 2122.65 1201.42 2123.02 1205.48 2123.2C1209.54 2123.38 1214.2 2123.2 1218.02 2123.2H1218.93C1226.17 2121.27 1232.35 2119.81 1237.55 2118.79C1244.01 2117.47 1250.25 2116.48 1256.26 2115.79C1262.43 2115.03 1268.74 2114.55 1275.15 2114.44C1281.55 2114.34 1287.39 2114.44 1294.06 2115.03H1294.94L1312.81 2117.66C1318.99 2118.87 1325.11 2120.46 1331.13 2122.4L1348.84 2129.44C1354.59 2132.18 1360.19 2135.29 1365.61 2138.74L1370.91 2141.81Z" fill="white"/>
</g>
<g style="mix-blend-mode:soft-light" opacity="0.58">
<path d="M139.577 -22.5233C140.248 -20.5531 141.355 -17.5614 142.932 -13.621L146.755 -4.82809C149.439 1.26492 152.357 7.02957 155.443 12.5753L166.042 29.249C169.847 34.6003 173.912 39.7277 178.218 44.6092L183.618 50.4468L183.987 50.8846L184.893 51.7238C186.872 53.767 189.153 56.029 191.836 58.5465L196.23 62.4869C196.579 62.7172 196.905 62.9862 197.203 63.2896L206.595 70.5866C209.345 72.6662 211.928 74.454 214.276 75.9134C216.624 77.3728 219.508 79.343 222.091 80.8389L226.083 83.101L226.552 83.3928L238.091 89.267C248.291 94.0876 258.808 98.0754 269.553 101.198C273.88 102.511 278.911 103.861 284.513 105.211L298.701 108.02L333.988 111.924C336.973 112.107 339.891 112.18 342.843 112.289H359.614C359.614 112.289 359.614 112.289 359.614 112.07H359.412L315.237 105.795L271.532 94.083L265.025 91.6749L264.119 91.3831L238.493 79.7808L226.418 72.7027C224.774 71.7176 222.225 70.1123 218.905 67.9232L211.626 62.6693C206.662 58.8019 201.999 54.9345 197.706 50.9576L189.723 43.3322L189.522 42.8944L184.624 37.7135C180.525 33.093 176.672 28.2203 173.086 23.1195L163.023 7.43091C156.932 -3.13628 151.67 -14.2426 147.292 -25.7705L141.556 -42.5537C139.98 -47.8075 138.437 -53.4992 136.928 -59.1179L133.573 -75.0254C132.936 -78.455 132.467 -81.0454 132.232 -82.6873L128.878 -104.104L125.087 -155.84H124.886V-155.621L123.846 -116.399L126.295 -81.5562L130.119 -57.3301C132.466 -45.4868 135.628 -33.8518 139.577 -22.5233Z" fill="white"/>
</g>
<g style="mix-blend-mode:soft-light" opacity="0.58">
<path d="M238.929 243.343H232.221C228.867 243.343 223.835 243.124 217.194 242.759L195.325 240.205L174.663 235.827C170.336 234.696 166.009 233.419 161.782 232.179L144.24 225.356L143.569 224.991L122.739 214.629L122.236 214.264L110.899 207.332L110.429 207.077L94.5305 195.73C94.5305 195.73 94.5305 195.73 94.3628 195.73L112.71 212.185V212.367L116.065 214.921L116.568 215.395L124.316 220.759C124.653 221.015 125.013 221.235 125.389 221.415L126.496 222.182L136.29 228.056C143.792 232.242 151.534 235.898 159.468 239.001L165.942 241.409L192.44 248.706L212.565 251.771L238.694 253.048H238.862L246.745 253.814C251.689 254.382 256.604 255.222 261.47 256.332C266.266 257.463 270.996 258.849 275.758 260.491L294.173 268.627L295.783 269.576C297.158 270.305 299.137 271.473 301.988 273.224C309.827 278.092 317.268 283.682 324.227 289.934L342.071 308.177L355.488 325.325C359.312 330.652 362.532 335.322 365.081 339.372L373.031 352.105C373.031 352.105 373.031 352.105 373.265 352.105C373.5 352.105 373.265 352.105 373.265 352.105L371.689 348.457L359.748 325.325L351.228 311.789L337.107 293.218L326.541 281.981L312.588 270.087L299.976 261.659C296.924 259.871 294.643 258.703 293.267 258.01L292.496 257.536L286.257 254.617C284.479 253.851 282.064 252.829 278.979 251.625L271.432 249.071C268.919 248.236 266.366 247.553 263.784 247.028C258.645 245.716 253.436 244.753 248.187 244.146L239.835 243.452H239.6C239.459 243.505 239.305 243.505 239.164 243.452L238.929 243.343Z" fill="white"/>
</g>
<g style="mix-blend-mode:soft-light" opacity="0.58">
<path d="M946.903 731.915L983.094 712.87C983.262 712.87 983.296 712.87 983.094 712.578L901.118 744.284C889.847 748.188 879.818 751.581 870.93 754.025C860.397 757.236 849.496 760.167 838.226 762.818L804.114 769.239C792.736 770.877 781.277 771.766 769.8 771.903L753.029 771.246C749.373 770.881 746.656 770.553 744.879 770.334C742.531 770.079 739.847 769.604 736.862 769.057L716.032 763.219L707.445 759.571C705.131 758.476 702.951 757.309 700.938 756.141C699.496 755.375 697.584 754.098 694.8 752.493C693.526 751.654 691.614 750.267 689.165 748.406L683.966 744.065C682.356 742.605 680.813 741.146 679.27 739.577L670.281 729.179L662.13 716.81C660.561 714.307 659.139 711.699 657.87 709.002L650.86 693.241H650.659V693.496L651.9 697.911C653.055 702.079 654.455 706.161 656.093 710.134C657.065 712.724 658.239 715.533 659.715 718.598C661.191 721.663 662.902 724.764 664.847 728.121C665.821 729.863 666.884 731.544 668.034 733.156L675.849 743.517C677.258 745.159 678.801 746.838 680.511 748.589C682.172 750.344 683.919 752 685.744 753.551C687.555 755.156 689.467 756.725 691.547 758.257C692.855 759.279 694.901 760.775 697.785 762.672C699.664 763.949 701.911 765.263 704.494 766.685L709.357 769.239H709.861L711.638 770.152C714.123 771.324 716.665 772.347 719.252 773.216L727.168 775.88C728.644 776.354 731.395 777.084 735.319 778.032L743.805 779.674L758.866 781.389L769.834 781.79C781.711 781.853 793.579 781.037 805.355 779.346L840.205 772.487C851.207 769.714 862.242 766.576 873.244 762.818C883.307 759.461 893.369 755.74 903.432 751.654L946.903 731.915Z" fill="white"/>
</g>
</g>
</svg>
